<?xml version="1.0" encoding="UTF-8" standalone="yes"?><svg xmlns="http://www.w3.org/2000/svg" xmlns:xlink="http://www.w3.org/1999/xlink" height="188px" style="width:284px;height:188px;" version="1.1" viewBox="0 0 284 188" width="284px"><defs><filter height="300%" id="fkxoizu" width="300%" x="-1" y="-1"><feGaussianBlur result="blurOut" stdDeviation="2.0"/><feColorMatrix in="blurOut" result="blurOut2" type="matrix" values="0 0 0 0 0 0 0 0 0 0 0 0 0 0 0 0 0 0 .4 0"/><feOffset dx="4.0" dy="4.0" in="blurOut2" result="blurOut3"/><feBlend in="SourceGraphic" in2="blurOut3" mode="normal"/></filter></defs><g><!--class BaseClassLoader--><rect fill="#FEFECE" filter="url(#fkxoizu)" height="63.0229" style="stroke: #A80036; stroke-width: 1.5;" width="156" x="6" y="8"/><ellipse cx="31.35" cy="24" fill="#ADD1B2" rx="11" ry="11" style="stroke: #A80036; stroke-width: 1.0;"/><path d="M29.9281,29.3594 Q28.0688,29.3594 26.975,27.9688 Q25.8813,26.5781 25.8813,23.5938 Q25.8813,21.0625 27.0453,19.4063 Q28.2094,17.75 30.1938,17.75 Q31.6625,17.75 32.1313,17.875 Q32.6,18.0781 32.6,18.0781 Q32.6,18.0781 32.6,18.0078 Q32.6,17.9375 33.2094,17.0156 L34.2563,20.6719 L32.9281,21.0781 Q32.4594,19.5313 31.7953,18.8672 Q31.1313,18.2031 30.0688,18.2031 Q29.6781,18.2031 28.9125,19.7344 Q28.1469,21.2656 28.1469,23.5156 Q28.1469,25.9844 28.8109,27.375 Q29.475,28.7656 30.0063,28.7656 Q31.0688,28.7656 31.8266,28 Q32.5844,27.2344 32.9281,25.5781 L34.2563,26.1719 Q33.9281,27.5781 33.0297,28.4688 Q32.1313,29.3594 29.9281,29.3594 Z "/><text fill="#000000" font-family="sans-serif" font-size="12" lengthAdjust="spacingAndGlyphs" textLength="101" x="47.65" y="29.5576">BaseClassLoader</text><line style="stroke: #A80036; stroke-width: 1.5;" x1="7" x2="161" y1="40" y2="40"/><rect fill="none" height="6" style="stroke: #C82930; stroke-width: 1.0;" width="6" x="14" y="50.0115"/><text fill="#000000" font-family="sans-serif" font-size="11" lengthAdjust="spacingAndGlyphs" textLength="130" x="26" y="56.606">final Element[] dexElements</text><line style="stroke: #A80036; stroke-width: 1.5;" x1="7" x2="161" y1="63.0229" y2="63.0229"/><!--class DexClassLoader--><rect fill="#FEFECE" filter="url(#fkxoizu)" height="48" style="stroke: #A80036; stroke-width: 1.5;" width="125" x="21.5" y="131"/><ellipse cx="36.5" cy="147" fill="#ADD1B2" rx="11" ry="11" style="stroke: #A80036; stroke-width: 1.0;"/><path d="M35.0781,152.3594 Q33.2188,152.3594 32.125,150.9688 Q31.0313,149.5781 31.0313,146.5938 Q31.0313,144.0625 32.1953,142.4063 Q33.3594,140.75 35.3438,140.75 Q36.8125,140.75 37.2813,140.875 Q37.75,141.0781 37.75,141.0781 Q37.75,141.0781 37.75,141.0078 Q37.75,140.9375 38.3594,140.0156 L39.4063,143.6719 L38.0781,144.0781 Q37.6094,142.5313 36.9453,141.8672 Q36.2813,141.2031 35.2188,141.2031 Q34.8281,141.2031 34.0625,142.7344 Q33.2969,144.2656 33.2969,146.5156 Q33.2969,148.9844 33.9609,150.375 Q34.625,151.7656 35.1563,151.7656 Q36.2188,151.7656 36.9766,151 Q37.7344,150.2344 38.0781,148.5781 L39.4063,149.1719 Q39.0781,150.5781 38.1797,151.4688 Q37.2813,152.3594 35.0781,152.3594 Z "/><text fill="#000000" font-family="sans-serif" font-size="12" lengthAdjust="spacingAndGlyphs" textLength="93" x="50.5" y="152.5576">DexClassLoader</text><line style="stroke: #A80036; stroke-width: 1.5;" x1="22.5" x2="145.5" y1="163" y2="163"/><line style="stroke: #A80036; stroke-width: 1.5;" x1="22.5" x2="145.5" y1="171" y2="171"/><!--class Element--><rect fill="#FEFECE" filter="url(#fkxoizu)" height="48" style="stroke: #A80036; stroke-width: 1.5;" width="78" x="197" y="15.5"/><ellipse cx="212" cy="31.5" fill="#ADD1B2" rx="11" ry="11" style="stroke: #A80036; stroke-width: 1.0;"/><path d="M210.5781,36.8594 Q208.7188,36.8594 207.625,35.4688 Q206.5313,34.0781 206.5313,31.0938 Q206.5313,28.5625 207.6953,26.9063 Q208.8594,25.25 210.8438,25.25 Q212.3125,25.25 212.7813,25.375 Q213.25,25.5781 213.25,25.5781 Q213.25,25.5781 213.25,25.5078 Q213.25,25.4375 213.8594,24.5156 L214.9063,28.1719 L213.5781,28.5781 Q213.1094,27.0313 212.4453,26.3672 Q211.7813,25.7031 210.7188,25.7031 Q210.3281,25.7031 209.5625,27.2344 Q208.7969,28.7656 208.7969,31.0156 Q208.7969,33.4844 209.4609,34.875 Q210.125,36.2656 210.6563,36.2656 Q211.7188,36.2656 212.4766,35.5 Q213.2344,34.7344 213.5781,33.0781 L214.9063,33.6719 Q214.5781,35.0781 213.6797,35.9688 Q212.7813,36.8594 210.5781,36.8594 Z "/><text fill="#000000" font-family="sans-serif" font-size="12" lengthAdjust="spacingAndGlyphs" textLength="46" x="226" y="37.0576">Element</text><line style="stroke: #A80036; stroke-width: 1.5;" x1="198" x2="274" y1="47.5" y2="47.5"/><line style="stroke: #A80036; stroke-width: 1.5;" x1="198" x2="274" y1="55.5" y2="55.5"/><path d="M84,91.3536 C84,105.1427 84,119.4011 84,130.8252 " fill="none" style="stroke: #A80036; stroke-width: 1.0;"/><polygon fill="none" points="77.0001,91.2148,84,71.215,91.0001,91.2147,77.0001,91.2148" style="stroke: #A80036; stroke-width: 1.0;"/><path d="M167.222,39.5 C177.057,39.5 186.893,39.5 196.729,39.5 " fill="none" style="stroke: #A80036; stroke-width: 1.0;"/><polygon fill="#A80036" points="162.078,39.5,171.078,43.5,167.078,39.5,171.078,35.5,162.078,39.5" style="stroke: #A80036; stroke-width: 1.0;"/></g></svg>