<?xml version="1.0" encoding="UTF-8" standalone="yes"?><svg xmlns="http://www.w3.org/2000/svg" xmlns:xlink="http://www.w3.org/1999/xlink" height="346px" style="width:476px;height:346px;" version="1.1" viewBox="0 0 476 346" width="476px"><defs><filter height="300%" id="fkbu0ud" width="300%" x="-1" y="-1"><feGaussianBlur result="blurOut" stdDeviation="2.0"/><feColorMatrix in="blurOut" result="blurOut2" type="matrix" values="0 0 0 0 0 0 0 0 0 0 0 0 0 0 0 0 0 0 .4 0"/><feOffset dx="4.0" dy="4.0" in="blurOut2" result="blurOut3"/><feBlend in="SourceGraphic" in2="blurOut3" mode="normal"/></filter></defs><g><!--cluster AssetManager Class Structure Diagram--><rect fill="#FFFFFF" filter="url(#fkbu0ud)" height="315" style="stroke: #000000; stroke-width: 2.0;" width="447" x="22" y="24"/><path d="M306,25 L306,36.1201 L296,46.1201 L22,46.1201 " fill="#FFFFFF" style="stroke: #000000; stroke-width: 2.0;"/><text fill="#000000" font-family="sans-serif" font-size="14" font-weight="bold" lengthAdjust="spacingAndGlyphs" textLength="274" x="25" y="41.0439">AssetManager Class Structure Diagram</text><!--class ContextImpl--><rect fill="#FEFECE" filter="url(#fkbu0ud)" height="93.0688" style="stroke: #A80036; stroke-width: 1.5;" width="158" x="72" y="69.5"/><ellipse cx="114.45" cy="85.5" fill="#ADD1B2" rx="11" ry="11" style="stroke: #A80036; stroke-width: 1.0;"/><path d="M113.0281,90.8594 Q111.1688,90.8594 110.075,89.4688 Q108.9813,88.0781 108.9813,85.0938 Q108.9813,82.5625 110.1453,80.9063 Q111.3094,79.25 113.2938,79.25 Q114.7625,79.25 115.2313,79.375 Q115.7,79.5781 115.7,79.5781 Q115.7,79.5781 115.7,79.5078 Q115.7,79.4375 116.3094,78.5156 L117.3563,82.1719 L116.0281,82.5781 Q115.5594,81.0313 114.8953,80.3672 Q114.2313,79.7031 113.1688,79.7031 Q112.7781,79.7031 112.0125,81.2344 Q111.2469,82.7656 111.2469,85.0156 Q111.2469,87.4844 111.9109,88.875 Q112.575,90.2656 113.1063,90.2656 Q114.1688,90.2656 114.9266,89.5 Q115.6844,88.7344 116.0281,87.0781 L117.3563,87.6719 Q117.0281,89.0781 116.1297,89.9688 Q115.2313,90.8594 113.0281,90.8594 Z "/><text fill="#000000" font-family="sans-serif" font-size="12" lengthAdjust="spacingAndGlyphs" textLength="65" x="134.55" y="91.0576">ContextImpl</text><line style="stroke: #A80036; stroke-width: 1.5;" x1="73" x2="229" y1="101.5" y2="101.5"/><rect fill="none" height="6" style="stroke: #C82930; stroke-width: 1.0;" width="6" x="80" y="111.5115"/><text fill="#000000" font-family="sans-serif" font-size="11" lengthAdjust="spacingAndGlyphs" textLength="117" x="92" y="118.106">Resources mResources</text><line style="stroke: #A80036; stroke-width: 1.5;" x1="73" x2="229" y1="124.5229" y2="124.5229"/><ellipse cx="83" cy="137.5344" fill="#84BE84" rx="3" ry="3" style="stroke: #038048; stroke-width: 1.0;"/><text fill="#000000" font-family="sans-serif" font-size="11" lengthAdjust="spacingAndGlyphs" textLength="132" x="92" y="141.1289">Resources getResources()</text><ellipse cx="83" cy="152.5574" fill="#84BE84" rx="3" ry="3" style="stroke: #038048; stroke-width: 1.0;"/><text fill="#000000" font-family="sans-serif" font-size="11" lengthAdjust="spacingAndGlyphs" textLength="132" x="92" y="156.1519">AssetManager getAssets()</text><!--class Resources--><rect fill="#FEFECE" filter="url(#fkbu0ud)" height="108.0918" style="stroke: #A80036; stroke-width: 1.5;" width="187" x="265.5" y="62"/><ellipse cx="324.25" cy="78" fill="#ADD1B2" rx="11" ry="11" style="stroke: #A80036; stroke-width: 1.0;"/><path d="M322.8281,83.3594 Q320.9688,83.3594 319.875,81.9688 Q318.7813,80.5781 318.7813,77.5938 Q318.7813,75.0625 319.9453,73.4063 Q321.1094,71.75 323.0938,71.75 Q324.5625,71.75 325.0313,71.875 Q325.5,72.0781 325.5,72.0781 Q325.5,72.0781 325.5,72.0078 Q325.5,71.9375 326.1094,71.0156 L327.1563,74.6719 L325.8281,75.0781 Q325.3594,73.5313 324.6953,72.8672 Q324.0313,72.2031 322.9688,72.2031 Q322.5781,72.2031 321.8125,73.7344 Q321.0469,75.2656 321.0469,77.5156 Q321.0469,79.9844 321.7109,81.375 Q322.375,82.7656 322.9063,82.7656 Q323.9688,82.7656 324.7266,82 Q325.4844,81.2344 325.8281,79.5781 L327.1563,80.1719 Q326.8281,81.5781 325.9297,82.4688 Q325.0313,83.3594 322.8281,83.3594 Z "/><text fill="#000000" font-family="sans-serif" font-size="12" lengthAdjust="spacingAndGlyphs" textLength="61" x="344.75" y="83.5576">Resources</text><line style="stroke: #A80036; stroke-width: 1.5;" x1="266.5" x2="451.5" y1="94" y2="94"/><rect fill="none" height="6" style="stroke: #C82930; stroke-width: 1.0;" width="6" x="273.5" y="104.0115"/><text fill="#000000" font-family="sans-serif" font-size="11" lengthAdjust="spacingAndGlyphs" textLength="146" x="285.5" y="110.606">AssetManager_Java mAssets</text><rect fill="none" height="6" style="stroke: #C82930; stroke-width: 1.0;" width="6" x="273.5" y="119.0344"/><text fill="#000000" font-family="sans-serif" font-size="11" lengthAdjust="spacingAndGlyphs" textLength="100" x="285.5" y="125.6289">Resources mSystem</text><line style="stroke: #A80036; stroke-width: 1.5;" x1="266.5" x2="451.5" y1="132.0459" y2="132.0459"/><ellipse cx="276.5" cy="145.0574" fill="#84BE84" rx="3" ry="3" style="stroke: #038048; stroke-width: 1.0;"/><text fill="#000000" font-family="sans-serif" font-size="11" lengthAdjust="spacingAndGlyphs" textLength="161" x="285.5" y="148.6519">AssetManager_Java getAssets()</text><ellipse cx="276.5" cy="160.0803" fill="#84BE84" rx="3" ry="3" style="stroke: #038048; stroke-width: 1.0;"/><text fill="#000000" font-family="sans-serif" font-size="11" lengthAdjust="spacingAndGlyphs" textLength="115" x="285.5" y="163.6748">Resources getSystem()</text><!--class AssetManager_Java--><rect fill="#FEFECE" filter="url(#fkbu0ud)" height="93.0688" style="stroke: #A80036; stroke-width: 1.5;" width="188" x="265" y="230"/><ellipse cx="300.25" cy="246" fill="#ADD1B2" rx="11" ry="11" style="stroke: #A80036; stroke-width: 1.0;"/><path d="M298.8281,251.3594 Q296.9688,251.3594 295.875,249.9688 Q294.7813,248.5781 294.7813,245.5938 Q294.7813,243.0625 295.9453,241.4063 Q297.1094,239.75 299.0938,239.75 Q300.5625,239.75 301.0313,239.875 Q301.5,240.0781 301.5,240.0781 Q301.5,240.0781 301.5,240.0078 Q301.5,239.9375 302.1094,239.0156 L303.1563,242.6719 L301.8281,243.0781 Q301.3594,241.5313 300.6953,240.8672 Q300.0313,240.2031 298.9688,240.2031 Q298.5781,240.2031 297.8125,241.7344 Q297.0469,243.2656 297.0469,245.5156 Q297.0469,247.9844 297.7109,249.375 Q298.375,250.7656 298.9063,250.7656 Q299.9688,250.7656 300.7266,250 Q301.4844,249.2344 301.8281,247.5781 L303.1563,248.1719 Q302.8281,249.5781 301.9297,250.4688 Q301.0313,251.3594 298.8281,251.3594 Z "/><text fill="#000000" font-family="sans-serif" font-size="12" lengthAdjust="spacingAndGlyphs" textLength="111" x="318.75" y="251.5576">AssetManager_Java</text><line style="stroke: #A80036; stroke-width: 1.5;" x1="266" x2="452" y1="262" y2="262"/><rect fill="none" height="6" style="stroke: #C82930; stroke-width: 1.0;" width="6" x="273" y="272.0115"/><text fill="#000000" font-family="sans-serif" font-size="11" lengthAdjust="spacingAndGlyphs" textLength="145" x="285" y="278.606">AssetManager_Java sSystem</text><rect fill="none" height="6" style="stroke: #C82930; stroke-width: 1.0;" width="6" x="273" y="287.0344"/><text fill="#000000" font-family="sans-serif" font-size="11" lengthAdjust="spacingAndGlyphs" textLength="53" x="285" y="293.6289">int mObject</text><line style="stroke: #A80036; stroke-width: 1.5;" x1="266" x2="452" y1="300.0459" y2="300.0459"/><ellipse cx="276" cy="313.0574" fill="#84BE84" rx="3" ry="3" style="stroke: #038048; stroke-width: 1.0;"/><text fill="#000000" font-family="sans-serif" font-size="11" lengthAdjust="spacingAndGlyphs" textLength="162" x="285" y="316.6519">AssetManager_Java getSystem()</text><!--class AssetManager_Cpp--><rect fill="#FEFECE" filter="url(#fkbu0ud)" height="93.0688" style="stroke: #A80036; stroke-width: 1.5;" width="192" x="38" y="230"/><ellipse cx="75.95" cy="246" fill="#ADD1B2" rx="11" ry="11" style="stroke: #A80036; stroke-width: 1.0;"/><path d="M74.5281,251.3594 Q72.6688,251.3594 71.575,249.9688 Q70.4813,248.5781 70.4813,245.5938 Q70.4813,243.0625 71.6453,241.4063 Q72.8094,239.75 74.7938,239.75 Q76.2625,239.75 76.7313,239.875 Q77.2,240.0781 77.2,240.0781 Q77.2,240.0781 77.2,240.0078 Q77.2,239.9375 77.8094,239.0156 L78.8563,242.6719 L77.5281,243.0781 Q77.0594,241.5313 76.3953,240.8672 Q75.7313,240.2031 74.6688,240.2031 Q74.2781,240.2031 73.5125,241.7344 Q72.7469,243.2656 72.7469,245.5156 Q72.7469,247.9844 73.4109,249.375 Q74.075,250.7656 74.6063,250.7656 Q75.6688,250.7656 76.4266,250 Q77.1844,249.2344 77.5281,247.5781 L78.8563,248.1719 Q78.5281,249.5781 77.6297,250.4688 Q76.7313,251.3594 74.5281,251.3594 Z "/><text fill="#000000" font-family="sans-serif" font-size="12" lengthAdjust="spacingAndGlyphs" textLength="109" x="95.05" y="251.5576">AssetManager_Cpp</text><line style="stroke: #A80036; stroke-width: 1.5;" x1="39" x2="229" y1="262" y2="262"/><rect fill="none" height="6" style="stroke: #C82930; stroke-width: 1.0;" width="6" x="46" y="272.0115"/><text fill="#000000" font-family="sans-serif" font-size="11" lengthAdjust="spacingAndGlyphs" textLength="166" x="58" y="278.606">Vector&lt;asset_path&gt; mAssetPaths</text><rect fill="none" height="6" style="stroke: #C82930; stroke-width: 1.0;" width="6" x="46" y="287.0344"/><text fill="#000000" font-family="sans-serif" font-size="11" lengthAdjust="spacingAndGlyphs" textLength="113" x="58" y="293.6289">ResTable* mResources</text><rect fill="none" height="6" style="stroke: #C82930; stroke-width: 1.0;" width="6" x="46" y="302.0574"/><text fill="#000000" font-family="sans-serif" font-size="11" lengthAdjust="spacingAndGlyphs" textLength="127" x="58" y="308.6519">ResTable_config* mConfig</text><line style="stroke: #A80036; stroke-width: 1.5;" x1="39" x2="229" y1="315.0688" y2="315.0688"/><path d="M243.424,116 C246.404,116 249.384,116 252.365,116 " fill="none" style="stroke: #A80036; stroke-width: 1.0;"/><polygon fill="#A80036" points="265.432,116,256.432,112,260.432,116,256.432,120,265.432,116" style="stroke: #A80036; stroke-width: 1.0;"/><line style="stroke: #A80036; stroke-width: 1.0;" x1="260.432" x2="252.432" y1="116" y2="116"/><polygon fill="#A80036" points="230.219,116,236.219,120,242.219,116,236.219,112,230.219,116" style="stroke: #A80036; stroke-width: 1.0;"/><path d="M359,190.29 C359,196.712 359,203.187 359,209.544 " fill="none" style="stroke: #A80036; stroke-width: 1.0;"/><polygon fill="#A80036" points="359,229.84,363,220.84,359,224.84,355,220.84,359,229.84" style="stroke: #A80036; stroke-width: 1.0;"/><line style="stroke: #A80036; stroke-width: 1.0;" x1="359" x2="359" y1="224.84" y2="209.8405"/><polygon fill="none" points="352,190.219,359,170.219,366,190.219,352,190.219" style="stroke: #A80036; stroke-width: 1.0;"/><path d="M243.255,276.5 C246.079,276.5 248.903,276.5 251.727,276.5 " fill="none" style="stroke: #A80036; stroke-width: 1.0;"/><polygon fill="#A80036" points="264.945,276.5,258.945,272.5,252.945,276.5,258.945,280.5,264.945,276.5" style="stroke: #A80036; stroke-width: 1.0;"/><polygon fill="#A80036" points="230.24,276.5,239.24,280.5,235.24,276.5,239.24,272.5,230.24,276.5" style="stroke: #A80036; stroke-width: 1.0;"/><line style="stroke: #A80036; stroke-width: 1.0;" x1="235.24" x2="243.24" y1="276.5" y2="276.4999"/></g></svg>