<?xml version="1.0" encoding="UTF-8" standalone="yes"?><svg xmlns="http://www.w3.org/2000/svg" xmlns:xlink="http://www.w3.org/1999/xlink" height="405px" style="width:687px;height:405px;" version="1.1" viewBox="0 0 687 405" width="687px"><defs><filter height="300%" id="fbe3cei" width="300%" x="-1" y="-1"><feGaussianBlur result="blurOut" stdDeviation="2.0"/><feColorMatrix in="blurOut" result="blurOut2" type="matrix" values="0 0 0 0 0 0 0 0 0 0 0 0 0 0 0 0 0 0 .4 0"/><feOffset dx="4.0" dy="4.0" in="blurOut2" result="blurOut3"/><feBlend in="SourceGraphic" in2="blurOut3" mode="normal"/></filter></defs><g><rect fill="#FFFFFF" filter="url(#fbe3cei)" height="31.7544" style="stroke: #A80036; stroke-width: 1.0;" width="10" x="110" y="100.8745"/><rect fill="#FFFFFF" filter="url(#fbe3cei)" height="132.0176" style="stroke: #A80036; stroke-width: 1.0;" width="10" x="110" y="206.1377"/><rect fill="#FFFFFF" filter="url(#fbe3cei)" height="95.2632" style="stroke: #A80036; stroke-width: 1.0;" width="10" x="306" y="242.8921"/><rect fill="#FFFFFF" filter="url(#fbe3cei)" height="31.7544" style="stroke: #A80036; stroke-width: 1.0;" width="10" x="609" y="274.6465"/><rect fill="#FFFFFF" filter="url(#fbe3cei)" height="83.2632" style="stroke: #000000; stroke-width: 2.0;" width="199" x="6" y="58.1201"/><rect fill="#FFFFFF" filter="url(#fbe3cei)" height="191.5264" style="stroke: #000000; stroke-width: 2.0;" width="618.5" x="59.5" y="155.3833"/><line style="stroke: #A80036; stroke-width: 1.0; stroke-dasharray: 5.0,5.0;" x1="114.5" x2="114.5" y1="41.1201" y2="363.9097"/><line style="stroke: #A80036; stroke-width: 1.0; stroke-dasharray: 5.0,5.0;" x1="311" x2="311" y1="41.1201" y2="363.9097"/><line style="stroke: #A80036; stroke-width: 1.0; stroke-dasharray: 5.0,5.0;" x1="614" x2="614" y1="41.1201" y2="363.9097"/><rect fill="#FEFECE" filter="url(#fbe3cei)" height="33.1201" style="stroke: #A80036; stroke-width: 1.5;" width="87" x="69.5" y="3"/><text fill="#000000" font-family="sans-serif" font-size="14" lengthAdjust="spacingAndGlyphs" textLength="73" x="76.5" y="26.0439">ContextImpl</text><rect fill="#FEFECE" filter="url(#fbe3cei)" height="33.1201" style="stroke: #A80036; stroke-width: 1.5;" width="87" x="69.5" y="362.9097"/><text fill="#000000" font-family="sans-serif" font-size="14" lengthAdjust="spacingAndGlyphs" textLength="73" x="76.5" y="385.9536">ContextImpl</text><rect fill="#FEFECE" filter="url(#fbe3cei)" height="33.1201" style="stroke: #A80036; stroke-width: 1.5;" width="92" x="263" y="3"/><text fill="#000000" font-family="sans-serif" font-size="14" lengthAdjust="spacingAndGlyphs" textLength="78" x="270" y="26.0439">PackageInfo</text><rect fill="#FEFECE" filter="url(#fbe3cei)" height="33.1201" style="stroke: #A80036; stroke-width: 1.5;" width="92" x="263" y="362.9097"/><text fill="#000000" font-family="sans-serif" font-size="14" lengthAdjust="spacingAndGlyphs" textLength="78" x="270" y="385.9536">PackageInfo</text><rect fill="#FEFECE" filter="url(#fbe3cei)" height="33.1201" style="stroke: #A80036; stroke-width: 1.5;" width="104" x="560" y="3"/><text fill="#000000" font-family="sans-serif" font-size="14" lengthAdjust="spacingAndGlyphs" textLength="90" x="567" y="26.0439">ActivityThread</text><rect fill="#FEFECE" filter="url(#fbe3cei)" height="33.1201" style="stroke: #A80036; stroke-width: 1.5;" width="104" x="560" y="362.9097"/><text fill="#000000" font-family="sans-serif" font-size="14" lengthAdjust="spacingAndGlyphs" textLength="90" x="567" y="385.9536">ActivityThread</text><rect fill="#FFFFFF" filter="url(#fbe3cei)" height="31.7544" style="stroke: #A80036; stroke-width: 1.0;" width="10" x="110" y="100.8745"/><rect fill="#FFFFFF" filter="url(#fbe3cei)" height="132.0176" style="stroke: #A80036; stroke-width: 1.0;" width="10" x="110" y="206.1377"/><rect fill="#FFFFFF" filter="url(#fbe3cei)" height="95.2632" style="stroke: #A80036; stroke-width: 1.0;" width="10" x="306" y="242.8921"/><rect fill="#FFFFFF" filter="url(#fbe3cei)" height="31.7544" style="stroke: #A80036; stroke-width: 1.0;" width="10" x="609" y="274.6465"/><rect fill="none" height="83.2632" style="stroke: #000000; stroke-width: 2.0;" width="199" x="6" y="58.1201"/><polygon fill="#EEEEEE" points="6,58.1201,200,58.1201,200,67.1201,190,77.1201,6,77.1201,6,58.1201" style="stroke: #000000; stroke-width: 2.0;"/><text fill="#000000" font-family="sans-serif" font-size="13" font-weight="bold" lengthAdjust="spacingAndGlyphs" textLength="149" x="21" y="74.0181">get resource by context</text><polygon fill="#A80036" points="98,96.8745,108,100.8745,98,104.8745,102,100.8745" style="stroke: #A80036; stroke-width: 1.0;"/><line style="stroke: #A80036; stroke-width: 1.0;" x1="3" x2="104" y1="100.8745" y2="100.8745"/><text fill="#000000" font-family="sans-serif" font-size="13" lengthAdjust="spacingAndGlyphs" textLength="81" x="10" y="96.7725">getResource()</text><polygon fill="#A80036" points="14,128.6289,4,132.6289,14,136.6289,10,132.6289" style="stroke: #A80036; stroke-width: 1.0;"/><line style="stroke: #A80036; stroke-width: 1.0;" x1="8" x2="114" y1="132.6289" y2="132.6289"/><text fill="#000000" font-family="sans-serif" font-size="13" lengthAdjust="spacingAndGlyphs" textLength="66" x="20" y="128.5269">mResource</text><rect fill="none" height="191.5264" style="stroke: #000000; stroke-width: 2.0;" width="618.5" x="59.5" y="155.3833"/><polygon fill="#EEEEEE" points="59.5,155.3833,234.5,155.3833,234.5,164.3833,224.5,174.3833,59.5,174.3833,59.5,155.3833" style="stroke: #000000; stroke-width: 2.0;"/><text fill="#000000" font-family="sans-serif" font-size="13" font-weight="bold" lengthAdjust="spacingAndGlyphs" textLength="130" x="74.5" y="171.2813">init context resource</text><line style="stroke: #A80036; stroke-width: 1.0;" x1="115" x2="162" y1="193.8921" y2="193.8921"/><line style="stroke: #A80036; stroke-width: 1.0;" x1="162" x2="162" y1="193.8921" y2="206.8921"/><line style="stroke: #A80036; stroke-width: 1.0;" x1="121" x2="162" y1="206.8921" y2="206.8921"/><polygon fill="#A80036" points="131,202.8921,121,206.8921,131,210.8921,127,206.8921" style="stroke: #A80036; stroke-width: 1.0;"/><text fill="#000000" font-family="sans-serif" font-size="13" lengthAdjust="spacingAndGlyphs" textLength="25" x="127" y="189.0356">init()</text><polygon fill="#A80036" points="294,238.8921,304,242.8921,294,246.8921,298,242.8921" style="stroke: #A80036; stroke-width: 1.0;"/><line style="stroke: #A80036; stroke-width: 1.0;" x1="120" x2="300" y1="242.8921" y2="242.8921"/><text fill="#000000" font-family="sans-serif" font-size="13" lengthAdjust="spacingAndGlyphs" textLength="167" x="127" y="238.79">mPackageInfo.getResource()</text><polygon fill="#A80036" points="597,270.6465,607,274.6465,597,278.6465,601,274.6465" style="stroke: #A80036; stroke-width: 1.0;"/><line style="stroke: #A80036; stroke-width: 1.0;" x1="316" x2="603" y1="274.6465" y2="274.6465"/><text fill="#000000" font-family="sans-serif" font-size="13" lengthAdjust="spacingAndGlyphs" textLength="274" x="323" y="270.5444">mainTread.getTopLevelResource(mResDir, this)</text><polygon fill="#A80036" points="327,302.4009,317,306.4009,327,310.4009,323,306.4009" style="stroke: #A80036; stroke-width: 1.0;"/><line style="stroke: #A80036; stroke-width: 1.0; stroke-dasharray: 2.0,2.0;" x1="321" x2="613" y1="306.4009" y2="306.4009"/><text fill="#000000" font-family="sans-serif" font-size="13" lengthAdjust="spacingAndGlyphs" textLength="73" x="333" y="302.2988">mResources</text><polygon fill="#A80036" points="126,334.1553,116,338.1553,126,342.1553,122,338.1553" style="stroke: #A80036; stroke-width: 1.0;"/><line style="stroke: #A80036; stroke-width: 1.0; stroke-dasharray: 2.0,2.0;" x1="120" x2="310" y1="338.1553" y2="338.1553"/><text fill="#000000" font-family="sans-serif" font-size="13" lengthAdjust="spacingAndGlyphs" textLength="73" x="132" y="334.0532">mResources</text></g></svg>