<?xml version="1.0" encoding="UTF-8" standalone="yes"?><svg xmlns="http://www.w3.org/2000/svg" xmlns:xlink="http://www.w3.org/1999/xlink" height="1061px" style="width:1157px;height:1061px;" version="1.1" viewBox="0 0 1157 1061" width="1157px"><defs><filter height="300%" id="frk33y1" width="300%" x="-1" y="-1"><feGaussianBlur result="blurOut" stdDeviation="2.0"/><feColorMatrix in="blurOut" result="blurOut2" type="matrix" values="0 0 0 0 0 0 0 0 0 0 0 0 0 0 0 0 0 0 .4 0"/><feOffset dx="4.0" dy="4.0" in="blurOut2" result="blurOut3"/><feBlend in="SourceGraphic" in2="blurOut3" mode="normal"/></filter></defs><g><rect fill="#FFFFFF" filter="url(#frk33y1)" height="623.3794" style="stroke: #A80036; stroke-width: 1.0;" width="10" x="121" y="387.6641"/><rect fill="#FFFFFF" filter="url(#frk33y1)" height="591.625" style="stroke: #A80036; stroke-width: 1.0;" width="10" x="249" y="419.4185"/><rect fill="#FFFFFF" filter="url(#frk33y1)" height="434.5845" style="stroke: #A80036; stroke-width: 1.0;" width="10" x="470" y="576.459"/><rect fill="#FFFFFF" filter="url(#frk33y1)" height="190.2808" style="stroke: #A80036; stroke-width: 1.0;" width="10" x="620" y="119.8745"/><rect fill="#FFFFFF" filter="url(#frk33y1)" height="63.386" style="stroke: #A80036; stroke-width: 1.0;" width="10" x="740.5" y="151.6289"/><rect fill="#FFFFFF" filter="url(#frk33y1)" height="376.0757" style="stroke: #A80036; stroke-width: 1.0;" width="10" x="740.5" y="634.9678"/><rect fill="#FFFFFF" filter="url(#frk33y1)" height="274.8125" style="stroke: #A80036; stroke-width: 1.0;" width="10" x="745.5" y="674.7222"/><rect fill="#FFFFFF" filter="url(#frk33y1)" height="95.1404" style="stroke: #A80036; stroke-width: 1.0;" width="10" x="918.5" y="215.0149"/><rect fill="#FFFFFF" filter="url(#frk33y1)" height="111.2861" style="stroke: #000000; stroke-width: 2.0;" width="285" x="190" y="435.1729"/><rect fill="#FFFFFF" height="46.7544" style="stroke: none; stroke-width: 1.0;" width="285" x="190" y="499.7046"/><rect fill="#FFFFFF" filter="url(#frk33y1)" height="366.0757" style="stroke: #000000; stroke-width: 2.0;" width="750" x="392.5" y="592.2134"/><rect fill="#FFFFFF" filter="url(#frk33y1)" height="111.2861" style="stroke: #000000; stroke-width: 2.0;" width="303" x="692.5" y="808.2485"/><rect fill="#FFFFFF" height="46.7544" style="stroke: none; stroke-width: 1.0;" width="303" x="692.5" y="872.7803"/><line style="stroke: #A80036; stroke-width: 1.0; stroke-dasharray: 5.0,5.0;" x1="126" x2="126" y1="41.1201" y2="1020.0435"/><line style="stroke: #A80036; stroke-width: 1.0; stroke-dasharray: 5.0,5.0;" x1="254" x2="254" y1="41.1201" y2="1020.0435"/><line style="stroke: #A80036; stroke-width: 1.0; stroke-dasharray: 5.0,5.0;" x1="474.5" x2="474.5" y1="41.1201" y2="1020.0435"/><line style="stroke: #A80036; stroke-width: 1.0; stroke-dasharray: 5.0,5.0;" x1="624.5" x2="624.5" y1="41.1201" y2="1020.0435"/><line style="stroke: #A80036; stroke-width: 1.0; stroke-dasharray: 5.0,5.0;" x1="745.5" x2="745.5" y1="41.1201" y2="1020.0435"/><line style="stroke: #A80036; stroke-width: 1.0; stroke-dasharray: 5.0,5.0;" x1="923" x2="923" y1="41.1201" y2="1020.0435"/><line style="stroke: #A80036; stroke-width: 1.0; stroke-dasharray: 5.0,5.0;" x1="1010" x2="1010" y1="41.1201" y2="1020.0435"/><rect fill="#FEFECE" filter="url(#frk33y1)" height="33.1201" style="stroke: #A80036; stroke-width: 1.5;" width="58" x="95" y="3"/><text fill="#000000" font-family="sans-serif" font-size="14" lengthAdjust="spacingAndGlyphs" textLength="44" x="102" y="26.0439">Activity</text><rect fill="#FEFECE" filter="url(#frk33y1)" height="33.1201" style="stroke: #A80036; stroke-width: 1.5;" width="58" x="95" y="1019.0435"/><text fill="#000000" font-family="sans-serif" font-size="14" lengthAdjust="spacingAndGlyphs" textLength="44" x="102" y="1042.0874">Activity</text><rect fill="#FEFECE" filter="url(#frk33y1)" height="33.1201" style="stroke: #A80036; stroke-width: 1.5;" width="104" x="200" y="3"/><text fill="#000000" font-family="sans-serif" font-size="14" lengthAdjust="spacingAndGlyphs" textLength="90" x="207" y="26.0439">PhoneWindow</text><rect fill="#FEFECE" filter="url(#frk33y1)" height="33.1201" style="stroke: #A80036; stroke-width: 1.5;" width="104" x="200" y="1019.0435"/><text fill="#000000" font-family="sans-serif" font-size="14" lengthAdjust="spacingAndGlyphs" textLength="90" x="207" y="1042.0874">PhoneWindow</text><rect fill="#FEFECE" filter="url(#frk33y1)" height="33.1201" style="stroke: #A80036; stroke-width: 1.5;" width="141" x="402.5" y="3"/><text fill="#000000" font-family="sans-serif" font-size="14" lengthAdjust="spacingAndGlyphs" textLength="127" x="409.5" y="26.0439">PhoneLayoutInflater</text><rect fill="#FEFECE" filter="url(#frk33y1)" height="33.1201" style="stroke: #A80036; stroke-width: 1.5;" width="141" x="402.5" y="1019.0435"/><text fill="#000000" font-family="sans-serif" font-size="14" lengthAdjust="spacingAndGlyphs" textLength="127" x="409.5" y="1042.0874">PhoneLayoutInflater</text><rect fill="#FEFECE" filter="url(#frk33y1)" height="33.1201" style="stroke: #A80036; stroke-width: 1.5;" width="131" x="557.5" y="3"/><text fill="#000000" font-family="sans-serif" font-size="14" lengthAdjust="spacingAndGlyphs" textLength="117" x="564.5" y="26.0439">ApplicationContext</text><rect fill="#FEFECE" filter="url(#frk33y1)" height="33.1201" style="stroke: #A80036; stroke-width: 1.5;" width="131" x="557.5" y="1019.0435"/><text fill="#000000" font-family="sans-serif" font-size="14" lengthAdjust="spacingAndGlyphs" textLength="117" x="564.5" y="1042.0874">ApplicationContext</text><rect fill="#FEFECE" filter="url(#frk33y1)" height="33.1201" style="stroke: #A80036; stroke-width: 1.5;" width="82" x="702.5" y="3"/><text fill="#000000" font-family="sans-serif" font-size="14" lengthAdjust="spacingAndGlyphs" textLength="68" x="709.5" y="26.0439">Resources</text><rect fill="#FEFECE" filter="url(#frk33y1)" height="33.1201" style="stroke: #A80036; stroke-width: 1.5;" width="82" x="702.5" y="1019.0435"/><text fill="#000000" font-family="sans-serif" font-size="14" lengthAdjust="spacingAndGlyphs" textLength="68" x="709.5" y="1042.0874">Resources</text><rect fill="#FEFECE" filter="url(#frk33y1)" height="33.1201" style="stroke: #A80036; stroke-width: 1.5;" width="105" x="869" y="3"/><text fill="#000000" font-family="sans-serif" font-size="14" lengthAdjust="spacingAndGlyphs" textLength="91" x="876" y="26.0439">AssetManager</text><rect fill="#FEFECE" filter="url(#frk33y1)" height="33.1201" style="stroke: #A80036; stroke-width: 1.5;" width="105" x="869" y="1019.0435"/><text fill="#000000" font-family="sans-serif" font-size="14" lengthAdjust="spacingAndGlyphs" textLength="91" x="876" y="1042.0874">AssetManager</text><rect fill="#FEFECE" filter="url(#frk33y1)" height="33.1201" style="stroke: #A80036; stroke-width: 1.5;" width="41" x="988" y="3"/><text fill="#000000" font-family="sans-serif" font-size="14" lengthAdjust="spacingAndGlyphs" textLength="27" x="995" y="26.0439">APK</text><rect fill="#FEFECE" filter="url(#frk33y1)" height="33.1201" style="stroke: #A80036; stroke-width: 1.5;" width="41" x="988" y="1019.0435"/><text fill="#000000" font-family="sans-serif" font-size="14" lengthAdjust="spacingAndGlyphs" textLength="27" x="995" y="1042.0874">APK</text><rect fill="#FFFFFF" filter="url(#frk33y1)" height="623.3794" style="stroke: #A80036; stroke-width: 1.0;" width="10" x="121" y="387.6641"/><rect fill="#FFFFFF" filter="url(#frk33y1)" height="591.625" style="stroke: #A80036; stroke-width: 1.0;" width="10" x="249" y="419.4185"/><rect fill="#FFFFFF" filter="url(#frk33y1)" height="434.5845" style="stroke: #A80036; stroke-width: 1.0;" width="10" x="470" y="576.459"/><rect fill="#FFFFFF" filter="url(#frk33y1)" height="190.2808" style="stroke: #A80036; stroke-width: 1.0;" width="10" x="620" y="119.8745"/><rect fill="#FFFFFF" filter="url(#frk33y1)" height="63.386" style="stroke: #A80036; stroke-width: 1.0;" width="10" x="740.5" y="151.6289"/><rect fill="#FFFFFF" filter="url(#frk33y1)" height="376.0757" style="stroke: #A80036; stroke-width: 1.0;" width="10" x="740.5" y="634.9678"/><rect fill="#FFFFFF" filter="url(#frk33y1)" height="274.8125" style="stroke: #A80036; stroke-width: 1.0;" width="10" x="745.5" y="674.7222"/><rect fill="#FFFFFF" filter="url(#frk33y1)" height="95.1404" style="stroke: #A80036; stroke-width: 1.0;" width="10" x="918.5" y="215.0149"/><rect fill="#EEEEEE" filter="url(#frk33y1)" height="3" style="stroke: #EEEEEE; stroke-width: 1.0;" width="1149.5" x="3" y="72.9973"/><line style="stroke: #000000; stroke-width: 1.0;" x1="3" x2="1152.5" y1="72.9973" y2="72.9973"/><line style="stroke: #000000; stroke-width: 1.0;" x1="3" x2="1152.5" y1="75.9973" y2="75.9973"/><rect fill="#EEEEEE" filter="url(#frk33y1)" height="25.7544" style="stroke: #000000; stroke-width: 2.0;" width="116" x="519.75" y="61.1201"/><text fill="#000000" font-family="sans-serif" font-size="13" font-weight="bold" lengthAdjust="spacingAndGlyphs" textLength="98" x="525.75" y="80.0181">获取资源的流程</text><polygon fill="#A80036" points="608,115.8745,618,119.8745,608,123.8745,612,119.8745" style="stroke: #A80036; stroke-width: 1.0;"/><line style="stroke: #A80036; stroke-width: 1.0;" x1="3" x2="614" y1="119.8745" y2="119.8745"/><text fill="#000000" font-family="sans-serif" font-size="13" lengthAdjust="spacingAndGlyphs" textLength="90" x="10" y="115.7725">fetchResources</text><polygon fill="#A80036" points="728.5,147.6289,738.5,151.6289,728.5,155.6289,732.5,151.6289" style="stroke: #A80036; stroke-width: 1.0;"/><line style="stroke: #A80036; stroke-width: 1.0;" x1="630" x2="734.5" y1="151.6289" y2="151.6289"/><text fill="#000000" font-family="sans-serif" font-size="13" lengthAdjust="spacingAndGlyphs" textLength="74" x="637" y="147.5269">ResourcesID</text><polygon fill="#A80036" points="906.5,211.0149,916.5,215.0149,906.5,219.0149,910.5,215.0149" style="stroke: #A80036; stroke-width: 1.0;"/><line style="stroke: #A80036; stroke-width: 1.0;" x1="745.5" x2="912.5" y1="215.0149" y2="215.0149"/><text fill="#000000" font-family="sans-serif" font-size="13" lengthAdjust="spacingAndGlyphs" textLength="55" x="752.5" y="210.9128">FileName</text><polygon fill="#FBFB77" filter="url(#frk33y1)" points="933,165.3833,933,246.3833,1136,246.3833,1136,175.3833,1126,165.3833,933,165.3833" style="stroke: #A80036; stroke-width: 1.0;"/><line style="stroke: #A80036; stroke-width: 1.0;" x1="1126" x2="1126" y1="165.3833" y2="175.3833"/><line style="stroke: #A80036; stroke-width: 1.0;" x1="1136" x2="1126" y1="175.3833" y2="175.3833"/><text fill="#000000" font-family="sans-serif" font-size="13" lengthAdjust="spacingAndGlyphs" textLength="181" x="939" y="185.2813">资源ID和文件名称的对应关系被</text><text fill="#000000" font-family="sans-serif" font-size="13" lengthAdjust="spacingAndGlyphs" textLength="174" x="939" y="203.0356">打包在Apk中resources.arsc文</text><text fill="#000000" font-family="sans-serif" font-size="13" lengthAdjust="spacingAndGlyphs" textLength="182" x="939" y="220.79">件中，所以这个转换的过程同样</text><text fill="#000000" font-family="sans-serif" font-size="13" lengthAdjust="spacingAndGlyphs" textLength="175" x="939" y="238.5444">需要依赖AssetManager来完成</text><polygon fill="#A80036" points="906.5,274.4009,916.5,278.4009,906.5,282.4009,910.5,278.4009" style="stroke: #A80036; stroke-width: 1.0;"/><line style="stroke: #A80036; stroke-width: 1.0;" x1="630" x2="912.5" y1="278.4009" y2="278.4009"/><text fill="#000000" font-family="sans-serif" font-size="13" lengthAdjust="spacingAndGlyphs" textLength="55" x="637" y="274.2988">FileName</text><polygon fill="#A80036" points="998.5,306.1553,1008.5,310.1553,998.5,314.1553,1002.5,310.1553" style="stroke: #A80036; stroke-width: 1.0;"/><line style="stroke: #A80036; stroke-width: 1.0;" x1="923.5" x2="1004.5" y1="310.1553" y2="310.1553"/><text fill="#000000" font-family="sans-serif" font-size="13" lengthAdjust="spacingAndGlyphs" textLength="28" x="930.5" y="306.0532">open</text><rect fill="#EEEEEE" filter="url(#frk33y1)" height="3" style="stroke: #EEEEEE; stroke-width: 1.0;" width="1149.5" x="3" y="340.7869"/><line style="stroke: #000000; stroke-width: 1.0;" x1="3" x2="1152.5" y1="340.7869" y2="340.7869"/><line style="stroke: #000000; stroke-width: 1.0;" x1="3" x2="1152.5" y1="343.7869" y2="343.7869"/><rect fill="#EEEEEE" filter="url(#frk33y1)" height="25.7544" style="stroke: #000000; stroke-width: 2.0;" width="86" x="534.75" y="328.9097"/><text fill="#000000" font-family="sans-serif" font-size="13" font-weight="bold" lengthAdjust="spacingAndGlyphs" textLength="68" x="540.75" y="347.8076">Inflate过程</text><polygon fill="#A80036" points="109,383.6641,119,387.6641,109,391.6641,113,387.6641" style="stroke: #A80036; stroke-width: 1.0;"/><line style="stroke: #A80036; stroke-width: 1.0;" x1="3" x2="115" y1="387.6641" y2="387.6641"/><text fill="#000000" font-family="sans-serif" font-size="13" lengthAdjust="spacingAndGlyphs" textLength="99" x="10" y="383.562">setContentView()</text><polygon fill="#A80036" points="237,415.4185,247,419.4185,237,423.4185,241,419.4185" style="stroke: #A80036; stroke-width: 1.0;"/><line style="stroke: #A80036; stroke-width: 1.0;" x1="131" x2="243" y1="419.4185" y2="419.4185"/><text fill="#000000" font-family="sans-serif" font-size="13" lengthAdjust="spacingAndGlyphs" textLength="99" x="138" y="415.3164">setContentView()</text><rect fill="none" height="111.2861" style="stroke: #000000; stroke-width: 2.0;" width="285" x="190" y="435.1729"/><polygon fill="#EEEEEE" points="190,435.1729,251,435.1729,251,444.1729,241,454.1729,190,454.1729,190,435.1729" style="stroke: #000000; stroke-width: 2.0;"/><text fill="#000000" font-family="sans-serif" font-size="13" font-weight="bold" lengthAdjust="spacingAndGlyphs" textLength="16" x="205" y="451.0708">alt</text><text fill="#000000" font-family="sans-serif" font-size="11" font-weight="bold" lengthAdjust="spacingAndGlyphs" textLength="137" x="266" y="449.7788">[mContentParent == null]</text><line style="stroke: #A80036; stroke-width: 1.0;" x1="259" x2="301" y1="478.7046" y2="478.7046"/><line style="stroke: #A80036; stroke-width: 1.0;" x1="301" x2="301" y1="478.7046" y2="491.7046"/><line style="stroke: #A80036; stroke-width: 1.0;" x1="260" x2="301" y1="491.7046" y2="491.7046"/><polygon fill="#A80036" points="270,487.7046,260,491.7046,270,495.7046,266,491.7046" style="stroke: #A80036; stroke-width: 1.0;"/><text fill="#000000" font-family="sans-serif" font-size="13" lengthAdjust="spacingAndGlyphs" textLength="76" x="266" y="473.8481">installDecor()</text><line style="stroke: #000000; stroke-width: 1.0; stroke-dasharray: 2.0,2.0;" x1="190" x2="475" y1="500.7046" y2="500.7046"/><line style="stroke: #A80036; stroke-width: 1.0;" x1="259" x2="301" y1="525.459" y2="525.459"/><line style="stroke: #A80036; stroke-width: 1.0;" x1="301" x2="301" y1="525.459" y2="538.459"/><line style="stroke: #A80036; stroke-width: 1.0;" x1="260" x2="301" y1="538.459" y2="538.459"/><polygon fill="#A80036" points="270,534.459,260,538.459,270,542.459,266,538.459" style="stroke: #A80036; stroke-width: 1.0;"/><text fill="#000000" font-family="sans-serif" font-size="13" lengthAdjust="spacingAndGlyphs" textLength="197" x="266" y="520.6025">mContentParent.removeAllViews()</text><polygon fill="#A80036" points="458,572.459,468,576.459,458,580.459,462,576.459" style="stroke: #A80036; stroke-width: 1.0;"/><line style="stroke: #A80036; stroke-width: 1.0;" x1="259" x2="464" y1="576.459" y2="576.459"/><text fill="#000000" font-family="sans-serif" font-size="13" lengthAdjust="spacingAndGlyphs" textLength="42" x="266" y="572.3569">inflate()</text><rect fill="none" height="366.0757" style="stroke: #000000; stroke-width: 2.0;" width="750" x="392.5" y="592.2134"/><polygon fill="#EEEEEE" points="392.5,592.2134,521.5,592.2134,521.5,601.2134,511.5,611.2134,392.5,611.2134,392.5,592.2134" style="stroke: #000000; stroke-width: 2.0;"/><text fill="#000000" font-family="sans-serif" font-size="13" font-weight="bold" lengthAdjust="spacingAndGlyphs" textLength="84" x="407.5" y="608.1113">资源查找部分</text><polygon fill="#A80036" points="728.5,630.9678,738.5,634.9678,728.5,638.9678,732.5,634.9678" style="stroke: #A80036; stroke-width: 1.0;"/><line style="stroke: #A80036; stroke-width: 1.0;" x1="480" x2="734.5" y1="634.9678" y2="634.9678"/><text fill="#000000" font-family="sans-serif" font-size="13" lengthAdjust="spacingAndGlyphs" textLength="65" x="487" y="630.8657">getLayout()</text><line style="stroke: #A80036; stroke-width: 1.0;" x1="750.5" x2="797.5" y1="662.4766" y2="662.4766"/><line style="stroke: #A80036; stroke-width: 1.0;" x1="797.5" x2="797.5" y1="662.4766" y2="675.4766"/><line style="stroke: #A80036; stroke-width: 1.0;" x1="756.5" x2="797.5" y1="675.4766" y2="675.4766"/><polygon fill="#A80036" points="766.5,671.4766,756.5,675.4766,766.5,679.4766,762.5,675.4766" style="stroke: #A80036; stroke-width: 1.0;"/><text fill="#000000" font-family="sans-serif" font-size="13" lengthAdjust="spacingAndGlyphs" textLength="146" x="762.5" y="657.6201">loadXmlResourceParser()</text><line style="stroke: #A80036; stroke-width: 1.0;" x1="755.5" x2="797.5" y1="746.2397" y2="746.2397"/><line style="stroke: #A80036; stroke-width: 1.0;" x1="797.5" x2="797.5" y1="746.2397" y2="759.2397"/><line style="stroke: #A80036; stroke-width: 1.0;" x1="756.5" x2="797.5" y1="759.2397" y2="759.2397"/><polygon fill="#A80036" points="766.5,755.2397,756.5,759.2397,766.5,763.2397,762.5,759.2397" style="stroke: #A80036; stroke-width: 1.0;"/><text fill="#000000" font-family="sans-serif" font-size="13" lengthAdjust="spacingAndGlyphs" textLength="59" x="762.5" y="741.3833">getValue()</text><polygon fill="#FBFB77" filter="url(#frk33y1)" points="833,693.4766,833,791.4766,1113,791.4766,1113,703.4766,1103,693.4766,833,693.4766" style="stroke: #A80036; stroke-width: 1.0;"/><line style="stroke: #A80036; stroke-width: 1.0;" x1="1103" x2="1103" y1="693.4766" y2="703.4766"/><line style="stroke: #A80036; stroke-width: 1.0;" x1="1113" x2="1103" y1="703.4766" y2="703.4766"/><text fill="#000000" font-family="sans-serif" font-size="13" lengthAdjust="spacingAndGlyphs" textLength="250" x="839" y="713.3745">getValue 查找资源找出来的结果保存在一个</text><text fill="#000000" font-family="sans-serif" font-size="13" lengthAdjust="spacingAndGlyphs" textLength="254" x="839" y="731.1289">TypedValue 对象中，因为对于有文件类型的</text><text fill="#000000" font-family="sans-serif" font-size="13" lengthAdjust="spacingAndGlyphs" textLength="259" x="839" y="748.8833">资源来说，资源ID映射到的都是一个文件名称</text><text fill="#000000" font-family="sans-serif" font-size="13" lengthAdjust="spacingAndGlyphs" textLength="253" x="839" y="766.6377">，所以这里返回的数据类型应该是string，如</text><text fill="#000000" font-family="sans-serif" font-size="13" lengthAdjust="spacingAndGlyphs" textLength="219" x="839" y="784.3921">果不是则会抛出一个NoteFound的异常</text><rect fill="none" height="111.2861" style="stroke: #000000; stroke-width: 2.0;" width="303" x="692.5" y="808.2485"/><polygon fill="#EEEEEE" points="692.5,808.2485,753.5,808.2485,753.5,817.2485,743.5,827.2485,692.5,827.2485,692.5,808.2485" style="stroke: #000000; stroke-width: 2.0;"/><text fill="#000000" font-family="sans-serif" font-size="13" font-weight="bold" lengthAdjust="spacingAndGlyphs" textLength="16" x="707.5" y="824.1465">alt</text><text fill="#000000" font-family="sans-serif" font-size="11" font-weight="bold" lengthAdjust="spacingAndGlyphs" textLength="222" x="768.5" y="822.8545">[value.type == TypedValue.TYPE_STRING]</text><line style="stroke: #A80036; stroke-width: 1.0;" x1="755.5" x2="797.5" y1="851.7803" y2="851.7803"/><line style="stroke: #A80036; stroke-width: 1.0;" x1="797.5" x2="797.5" y1="851.7803" y2="864.7803"/><line style="stroke: #A80036; stroke-width: 1.0;" x1="756.5" x2="797.5" y1="864.7803" y2="864.7803"/><polygon fill="#A80036" points="766.5,860.7803,756.5,864.7803,766.5,868.7803,762.5,864.7803" style="stroke: #A80036; stroke-width: 1.0;"/><text fill="#000000" font-family="sans-serif" font-size="13" lengthAdjust="spacingAndGlyphs" textLength="146" x="762.5" y="846.9238">loadXmlResourceParser()</text><line style="stroke: #000000; stroke-width: 1.0; stroke-dasharray: 2.0,2.0;" x1="692.5" x2="995.5" y1="873.7803" y2="873.7803"/><line style="stroke: #A80036; stroke-width: 1.0;" x1="755.5" x2="797.5" y1="898.5347" y2="898.5347"/><line style="stroke: #A80036; stroke-width: 1.0;" x1="797.5" x2="797.5" y1="898.5347" y2="911.5347"/><line style="stroke: #A80036; stroke-width: 1.0;" x1="756.5" x2="797.5" y1="911.5347" y2="911.5347"/><polygon fill="#A80036" points="766.5,907.5347,756.5,911.5347,766.5,915.5347,762.5,911.5347" style="stroke: #A80036; stroke-width: 1.0;"/><text fill="#000000" font-family="sans-serif" font-size="13" lengthAdjust="spacingAndGlyphs" textLength="149" x="762.5" y="893.6782">throw NotFoundException</text><polygon fill="#A80036" points="491,945.5347,481,949.5347,491,953.5347,487,949.5347" style="stroke: #A80036; stroke-width: 1.0;"/><line style="stroke: #A80036; stroke-width: 1.0; stroke-dasharray: 2.0,2.0;" x1="485" x2="739.5" y1="949.5347" y2="949.5347"/><text fill="#000000" font-family="sans-serif" font-size="13" lengthAdjust="spacingAndGlyphs" textLength="114" x="497" y="945.4326">XmlResourceParser</text><line style="stroke: #A80036; stroke-width: 1.0;" x1="480" x2="522" y1="989.0435" y2="989.0435"/><line style="stroke: #A80036; stroke-width: 1.0;" x1="522" x2="522" y1="989.0435" y2="1002.0435"/><line style="stroke: #A80036; stroke-width: 1.0;" x1="481" x2="522" y1="1002.0435" y2="1002.0435"/><polygon fill="#A80036" points="491,998.0435,481,1002.0435,491,1006.0435,487,1002.0435" style="stroke: #A80036; stroke-width: 1.0;"/><text fill="#000000" font-family="sans-serif" font-size="13" lengthAdjust="spacingAndGlyphs" textLength="42" x="487" y="984.187">inflate()</text></g></svg>