<?xml version="1.0" encoding="UTF-8" standalone="yes"?><svg xmlns="http://www.w3.org/2000/svg" xmlns:xlink="http://www.w3.org/1999/xlink" height="540px" style="width:610px;height:540px;" version="1.1" viewBox="0 0 610 540" width="610px"><defs><filter height="300%" id="fr34aux" width="300%" x="-1" y="-1"><feGaussianBlur result="blurOut" stdDeviation="2.0"/><feColorMatrix in="blurOut" result="blurOut2" type="matrix" values="0 0 0 0 0 0 0 0 0 0 0 0 0 0 0 0 0 0 .4 0"/><feOffset dx="4.0" dy="4.0" in="blurOut2" result="blurOut3"/><feBlend in="SourceGraphic" in2="blurOut3" mode="normal"/></filter></defs><g><!--class AttributeSet--><rect fill="#FEFECE" filter="url(#fr34aux)" height="48" style="stroke: #A80036; stroke-width: 1.5;" width="94" x="507" y="157"/><ellipse cx="522" cy="173" fill="#ADD1B2" rx="11" ry="11" style="stroke: #A80036; stroke-width: 1.0;"/><path d="M520.5781,178.3594 Q518.7188,178.3594 517.625,176.9688 Q516.5313,175.5781 516.5313,172.5938 Q516.5313,170.0625 517.6953,168.4063 Q518.8594,166.75 520.8438,166.75 Q522.3125,166.75 522.7813,166.875 Q523.25,167.0781 523.25,167.0781 Q523.25,167.0781 523.25,167.0078 Q523.25,166.9375 523.8594,166.0156 L524.9063,169.6719 L523.5781,170.0781 Q523.1094,168.5313 522.4453,167.8672 Q521.7813,167.2031 520.7188,167.2031 Q520.3281,167.2031 519.5625,168.7344 Q518.7969,170.2656 518.7969,172.5156 Q518.7969,174.9844 519.4609,176.375 Q520.125,177.7656 520.6563,177.7656 Q521.7188,177.7656 522.4766,177 Q523.2344,176.2344 523.5781,174.5781 L524.9063,175.1719 Q524.5781,176.5781 523.6797,177.4688 Q522.7813,178.3594 520.5781,178.3594 Z "/><text fill="#000000" font-family="sans-serif" font-size="12" lengthAdjust="spacingAndGlyphs" textLength="62" x="536" y="178.5576">AttributeSet</text><line style="stroke: #A80036; stroke-width: 1.5;" x1="508" x2="600" y1="189" y2="189"/><line style="stroke: #A80036; stroke-width: 1.5;" x1="508" x2="600" y1="197" y2="197"/><!--class TypedArray--><rect fill="#FEFECE" filter="url(#fr34aux)" height="48" style="stroke: #A80036; stroke-width: 1.5;" width="92" x="508" y="28.5"/><ellipse cx="523" cy="44.5" fill="#ADD1B2" rx="11" ry="11" style="stroke: #A80036; stroke-width: 1.0;"/><path d="M521.5781,49.8594 Q519.7188,49.8594 518.625,48.4688 Q517.5313,47.0781 517.5313,44.0938 Q517.5313,41.5625 518.6953,39.9063 Q519.8594,38.25 521.8438,38.25 Q523.3125,38.25 523.7813,38.375 Q524.25,38.5781 524.25,38.5781 Q524.25,38.5781 524.25,38.5078 Q524.25,38.4375 524.8594,37.5156 L525.9063,41.1719 L524.5781,41.5781 Q524.1094,40.0313 523.4453,39.3672 Q522.7813,38.7031 521.7188,38.7031 Q521.3281,38.7031 520.5625,40.2344 Q519.7969,41.7656 519.7969,44.0156 Q519.7969,46.4844 520.4609,47.875 Q521.125,49.2656 521.6563,49.2656 Q522.7188,49.2656 523.4766,48.5 Q524.2344,47.7344 524.5781,46.0781 L525.9063,46.6719 Q525.5781,48.0781 524.6797,48.9688 Q523.7813,49.8594 521.5781,49.8594 Z "/><text fill="#000000" font-family="sans-serif" font-size="12" lengthAdjust="spacingAndGlyphs" textLength="60" x="537" y="50.0576">TypedArray</text><line style="stroke: #A80036; stroke-width: 1.5;" x1="509" x2="599" y1="60.5" y2="60.5"/><line style="stroke: #A80036; stroke-width: 1.5;" x1="509" x2="599" y1="68.5" y2="68.5"/><!--class AssetManager--><rect fill="#FEFECE" filter="url(#fr34aux)" height="48" style="stroke: #A80036; stroke-width: 1.5;" width="111" x="104.5" y="28.5"/><ellipse cx="119.5" cy="44.5" fill="#ADD1B2" rx="11" ry="11" style="stroke: #A80036; stroke-width: 1.0;"/><path d="M118.0781,49.8594 Q116.2188,49.8594 115.125,48.4688 Q114.0313,47.0781 114.0313,44.0938 Q114.0313,41.5625 115.1953,39.9063 Q116.3594,38.25 118.3438,38.25 Q119.8125,38.25 120.2813,38.375 Q120.75,38.5781 120.75,38.5781 Q120.75,38.5781 120.75,38.5078 Q120.75,38.4375 121.3594,37.5156 L122.4063,41.1719 L121.0781,41.5781 Q120.6094,40.0313 119.9453,39.3672 Q119.2813,38.7031 118.2188,38.7031 Q117.8281,38.7031 117.0625,40.2344 Q116.2969,41.7656 116.2969,44.0156 Q116.2969,46.4844 116.9609,47.875 Q117.625,49.2656 118.1563,49.2656 Q119.2188,49.2656 119.9766,48.5 Q120.7344,47.7344 121.0781,46.0781 L122.4063,46.6719 Q122.0781,48.0781 121.1797,48.9688 Q120.2813,49.8594 118.0781,49.8594 Z "/><text fill="#000000" font-family="sans-serif" font-size="12" lengthAdjust="spacingAndGlyphs" textLength="79" x="133.5" y="50.0576">AssetManager</text><line style="stroke: #A80036; stroke-width: 1.5;" x1="105.5" x2="214.5" y1="60.5" y2="60.5"/><line style="stroke: #A80036; stroke-width: 1.5;" x1="105.5" x2="214.5" y1="68.5" y2="68.5"/><!--class Resource--><rect fill="#FEFECE" filter="url(#fr34aux)" height="48" style="stroke: #A80036; stroke-width: 1.5;" width="86" x="117" y="157"/><ellipse cx="132" cy="173" fill="#ADD1B2" rx="11" ry="11" style="stroke: #A80036; stroke-width: 1.0;"/><path d="M130.5781,178.3594 Q128.7188,178.3594 127.625,176.9688 Q126.5313,175.5781 126.5313,172.5938 Q126.5313,170.0625 127.6953,168.4063 Q128.8594,166.75 130.8438,166.75 Q132.3125,166.75 132.7813,166.875 Q133.25,167.0781 133.25,167.0781 Q133.25,167.0781 133.25,167.0078 Q133.25,166.9375 133.8594,166.0156 L134.9063,169.6719 L133.5781,170.0781 Q133.1094,168.5313 132.4453,167.8672 Q131.7813,167.2031 130.7188,167.2031 Q130.3281,167.2031 129.5625,168.7344 Q128.7969,170.2656 128.7969,172.5156 Q128.7969,174.9844 129.4609,176.375 Q130.125,177.7656 130.6563,177.7656 Q131.7188,177.7656 132.4766,177 Q133.2344,176.2344 133.5781,174.5781 L134.9063,175.1719 Q134.5781,176.5781 133.6797,177.4688 Q132.7813,178.3594 130.5781,178.3594 Z "/><text fill="#000000" font-family="sans-serif" font-size="12" lengthAdjust="spacingAndGlyphs" textLength="54" x="146" y="178.5576">Resource</text><line style="stroke: #A80036; stroke-width: 1.5;" x1="118" x2="202" y1="189" y2="189"/><line style="stroke: #A80036; stroke-width: 1.5;" x1="118" x2="202" y1="197" y2="197"/><polygon fill="#FBFB77" filter="url(#fr34aux)" points="251,8,251,97.0176,473,97.0176,473,18,463,8,251,8" style="stroke: #A80036; stroke-width: 1.0;"/><polygon fill="#FBFB77" points="251,8,251,48.5,215.629,52.5,251,56.5,251,97.0176,473,97.0176,473,18,463,8,251,8" style="stroke: #A80036; stroke-width: 1.0;"/><line style="stroke: #A80036; stroke-width: 1.0;" x1="463" x2="463" y1="8" y2="18"/><line style="stroke: #A80036; stroke-width: 1.0;" x1="473" x2="463" y1="18" y2="18"/><text fill="#000000" font-family="sans-serif" font-size="13" lengthAdjust="spacingAndGlyphs" textLength="174" x="257" y="27.8979">可以访问res路径下的所有资源</text><line style="stroke: #A80036; stroke-width: 1.0; stroke-dasharray: 1.0,2.0;" x1="252" x2="472" y1="30.7544" y2="30.7544"/><text fill="#000000" font-family="sans-serif" font-size="13" lengthAdjust="spacingAndGlyphs" textLength="193" x="257" y="49.6523">通过resource访问获取资源的行为</text><text fill="#000000" font-family="sans-serif" font-size="13" lengthAdjust="spacingAndGlyphs" textLength="201" x="257" y="67.4067">实际上都是桥接到AssetManager中</text><text fill="#000000" font-family="sans-serif" font-size="13" lengthAdjust="spacingAndGlyphs" textLength="26" x="257" y="85.1611">完成</text><!--class asset--><rect fill="#FEFECE" filter="url(#fr34aux)" height="93.0688" style="stroke: #A80036; stroke-width: 1.5;" width="122" x="6" y="351.5"/><ellipse cx="47.55" cy="367.5" fill="#ADD1B2" rx="11" ry="11" style="stroke: #A80036; stroke-width: 1.0;"/><path d="M46.1281,372.8594 Q44.2688,372.8594 43.175,371.4688 Q42.0813,370.0781 42.0813,367.0938 Q42.0813,364.5625 43.2453,362.9063 Q44.4094,361.25 46.3938,361.25 Q47.8625,361.25 48.3313,361.375 Q48.8,361.5781 48.8,361.5781 Q48.8,361.5781 48.8,361.5078 Q48.8,361.4375 49.4094,360.5156 L50.4563,364.1719 L49.1281,364.5781 Q48.6594,363.0313 47.9953,362.3672 Q47.3313,361.7031 46.2688,361.7031 Q45.8781,361.7031 45.1125,363.2344 Q44.3469,364.7656 44.3469,367.0156 Q44.3469,369.4844 45.0109,370.875 Q45.675,372.2656 46.2063,372.2656 Q47.2688,372.2656 48.0266,371.5 Q48.7844,370.7344 49.1281,369.0781 L50.4563,369.6719 Q50.1281,371.0781 49.2297,371.9688 Q48.3313,372.8594 46.1281,372.8594 Z "/><text fill="#000000" font-family="sans-serif" font-size="12" lengthAdjust="spacingAndGlyphs" textLength="31" x="67.45" y="373.0576">asset</text><line style="stroke: #A80036; stroke-width: 1.5;" x1="7" x2="127" y1="383.5" y2="383.5"/><text fill="#000000" font-family="sans-serif" font-size="11" lengthAdjust="spacingAndGlyphs" textLength="110" x="12" y="400.106">原生资源文件，在打包</text><text fill="#000000" font-family="sans-serif" font-size="11" lengthAdjust="spacingAndGlyphs" textLength="110" x="12" y="415.1289">编译的时候不会做任何</text><text fill="#000000" font-family="sans-serif" font-size="11" lengthAdjust="spacingAndGlyphs" textLength="98" x="12" y="430.1519">的处理直接放入APK</text><line style="stroke: #A80036; stroke-width: 1.5;" x1="7" x2="127" y1="436.5688" y2="436.5688"/><!--class res--><rect fill="#FEFECE" filter="url(#fr34aux)" height="266.3213" style="stroke: #A80036; stroke-width: 1.5;" width="180" x="163" y="265"/><ellipse cx="239.75" cy="281" fill="#ADD1B2" rx="11" ry="11" style="stroke: #A80036; stroke-width: 1.0;"/><path d="M238.3281,286.3594 Q236.4688,286.3594 235.375,284.9688 Q234.2813,283.5781 234.2813,280.5938 Q234.2813,278.0625 235.4453,276.4063 Q236.6094,274.75 238.5938,274.75 Q240.0625,274.75 240.5313,274.875 Q241,275.0781 241,275.0781 Q241,275.0781 241,275.0078 Q241,274.9375 241.6094,274.0156 L242.6563,277.6719 L241.3281,278.0781 Q240.8594,276.5313 240.1953,275.8672 Q239.5313,275.2031 238.4688,275.2031 Q238.0781,275.2031 237.3125,276.7344 Q236.5469,278.2656 236.5469,280.5156 Q236.5469,282.9844 237.2109,284.375 Q237.875,285.7656 238.4063,285.7656 Q239.4688,285.7656 240.2266,285 Q240.9844,284.2344 241.3281,282.5781 L242.6563,283.1719 Q242.3281,284.5781 241.4297,285.4688 Q240.5313,286.3594 238.3281,286.3594 Z "/><text fill="#000000" font-family="sans-serif" font-size="12" lengthAdjust="spacingAndGlyphs" textLength="18" x="260.25" y="286.5576">res</text><line style="stroke: #A80036; stroke-width: 1.5;" x1="164" x2="342" y1="297" y2="297"/><text fill="#000000" font-family="sans-serif" font-size="11" lengthAdjust="spacingAndGlyphs" textLength="102" x="169" y="332.6289">animator, anim ,color,</text><text fill="#000000" font-family="sans-serif" font-size="11" lengthAdjust="spacingAndGlyphs" textLength="116" x="169" y="347.6519">drawable, layout, menu,</text><text fill="#000000" font-family="sans-serif" font-size="11" lengthAdjust="spacingAndGlyphs" textLength="80" x="169" y="362.6748">raw, values, xml</text><line style="stroke: #A80036; stroke-width: 1.0; stroke-dasharray: 1.0,2.0;" x1="164" x2="242" y1="312.5115" y2="312.5115"/><text fill="#000000" font-family="sans-serif" font-size="11" lengthAdjust="spacingAndGlyphs" textLength="22" x="242" y="317.106">内容</text><line style="stroke: #A80036; stroke-width: 1.0; stroke-dasharray: 1.0,2.0;" x1="264" x2="342" y1="312.5115" y2="312.5115"/><text fill="#000000" font-family="sans-serif" font-size="11" lengthAdjust="spacingAndGlyphs" textLength="168" x="169" y="396.7207">raw在处理形式上和asset差不多，</text><text fill="#000000" font-family="sans-serif" font-size="11" lengthAdjust="spacingAndGlyphs" textLength="160" x="169" y="411.7437">区别只是在于raw可以通过id访问</text><line style="stroke: #A80036; stroke-width: 1.0; stroke-dasharray: 1.0,2.0;" x1="164" x2="243" y1="376.6033" y2="376.6033"/><text fill="#000000" font-family="sans-serif" font-size="11" lengthAdjust="spacingAndGlyphs" textLength="20" x="243" y="381.1978">raw</text><line style="stroke: #A80036; stroke-width: 1.0; stroke-dasharray: 1.0,2.0;" x1="263" x2="342" y1="376.6033" y2="376.6033"/><text fill="#000000" font-family="sans-serif" font-size="11" lengthAdjust="spacingAndGlyphs" textLength="165" x="169" y="445.7896">上述的文本文件编译成二进制后，</text><text fill="#000000" font-family="sans-serif" font-size="11" lengthAdjust="spacingAndGlyphs" textLength="121" x="169" y="460.8125">会共享一个字符串资源池</text><line style="stroke: #A80036; stroke-width: 1.0; stroke-dasharray: 1.0,2.0;" x1="164" x2="220" y1="425.6721" y2="425.6721"/><text fill="#000000" font-family="sans-serif" font-size="11" lengthAdjust="spacingAndGlyphs" textLength="66" x="220" y="430.2666">字符串资源池</text><line style="stroke: #A80036; stroke-width: 1.0; stroke-dasharray: 1.0,2.0;" x1="286" x2="342" y1="425.6721" y2="425.6721"/><text fill="#000000" font-family="sans-serif" font-size="11" lengthAdjust="spacingAndGlyphs" textLength="152" x="169" y="494.8584">每一个资源名称、类型、值、ID</text><text fill="#000000" font-family="sans-serif" font-size="11" lengthAdjust="spacingAndGlyphs" textLength="154" x="169" y="509.8813">以及所配置的维度信息。服务于</text><text fill="#000000" font-family="sans-serif" font-size="11" lengthAdjust="spacingAndGlyphs" textLength="66" x="169" y="524.9043">资源匹配算法</text><line style="stroke: #A80036; stroke-width: 1.0; stroke-dasharray: 1.0,2.0;" x1="164" x2="218.5" y1="474.741" y2="474.741"/><text fill="#000000" font-family="sans-serif" font-size="11" lengthAdjust="spacingAndGlyphs" textLength="69" x="218.5" y="479.3354">resource.arsc</text><line style="stroke: #A80036; stroke-width: 1.0; stroke-dasharray: 1.0,2.0;" x1="287.5" x2="342" y1="474.741" y2="474.741"/><path d="M554,76.702 C554,97.833 554,129.094 554,151.688 " fill="none" style="stroke: #A80036; stroke-width: 1.0; stroke-dasharray: 7.0,7.0;"/><polygon fill="#A80036" points="554,156.945,558,147.945,554,151.945,550,147.945,554,156.945" style="stroke: #A80036; stroke-width: 1.0;"/><path d="M160,81.97 C160,104.604 160,135.862 160,156.945 " fill="none" style="stroke: #A80036; stroke-width: 1.0; stroke-dasharray: 7.0,7.0;"/><polygon fill="#A80036" points="160,76.702,156,85.702,160,81.702,164,85.702,160,76.702" style="stroke: #A80036; stroke-width: 1.0;"/><path d="M150.047,205.009 C135.535,238.56 108.191,301.773 88.8504,346.486 " fill="none" style="stroke: #A80036; stroke-width: 1.0;"/><polygon fill="#A80036" points="86.7691,351.297,94.0143,344.6256,88.7547,346.7082,86.6722,341.4486,86.7691,351.297" style="stroke: #A80036; stroke-width: 1.0;"/><path d="M169.953,205.009 C176.095,219.209 184.536,238.723 193.696,259.899 " fill="none" style="stroke: #A80036; stroke-width: 1.0;"/><polygon fill="#A80036" points="195.786,264.731,195.8852,254.8826,193.8014,260.1417,188.5423,258.058,195.786,264.731" style="stroke: #A80036; stroke-width: 1.0;"/></g></svg>