<?xml version="1.0" encoding="UTF-8" standalone="yes"?><svg xmlns="http://www.w3.org/2000/svg" xmlns:xlink="http://www.w3.org/1999/xlink" height="370px" style="width:567px;height:370px;" version="1.1" viewBox="0 0 567 370" width="567px"><defs><filter height="300%" id="f1tt0g5" width="300%" x="-1" y="-1"><feGaussianBlur result="blurOut" stdDeviation="2.0"/><feColorMatrix in="blurOut" result="blurOut2" type="matrix" values="0 0 0 0 0 0 0 0 0 0 0 0 0 0 0 0 0 0 .4 0"/><feOffset dx="4.0" dy="4.0" in="blurOut2" result="blurOut3"/><feBlend in="SourceGraphic" in2="blurOut3" mode="normal"/></filter></defs><g><rect fill="#FFFFFF" filter="url(#f1tt0g5)" height="190.2808" style="stroke: #A80036; stroke-width: 1.0;" width="10" x="112" y="119.8745"/><rect fill="#FFFFFF" filter="url(#f1tt0g5)" height="63.386" style="stroke: #A80036; stroke-width: 1.0;" width="10" x="232.5" y="151.6289"/><rect fill="#FFFFFF" filter="url(#f1tt0g5)" height="104.8948" style="stroke: #A80036; stroke-width: 1.0;" width="10" x="340" y="215.0149"/><line style="stroke: #A80036; stroke-width: 1.0; stroke-dasharray: 5.0,5.0;" x1="116.5" x2="116.5" y1="41.1201" y2="328.9097"/><line style="stroke: #A80036; stroke-width: 1.0; stroke-dasharray: 5.0,5.0;" x1="237.5" x2="237.5" y1="41.1201" y2="328.9097"/><line style="stroke: #A80036; stroke-width: 1.0; stroke-dasharray: 5.0,5.0;" x1="344.5" x2="344.5" y1="41.1201" y2="328.9097"/><line style="stroke: #A80036; stroke-width: 1.0; stroke-dasharray: 5.0,5.0;" x1="431.5" x2="431.5" y1="41.1201" y2="328.9097"/><rect fill="#FEFECE" filter="url(#f1tt0g5)" height="33.1201" style="stroke: #A80036; stroke-width: 1.5;" width="131" x="49.5" y="3"/><text fill="#000000" font-family="sans-serif" font-size="14" lengthAdjust="spacingAndGlyphs" textLength="117" x="56.5" y="26.0439">ApplicationContext</text><rect fill="#FEFECE" filter="url(#f1tt0g5)" height="33.1201" style="stroke: #A80036; stroke-width: 1.5;" width="131" x="49.5" y="327.9097"/><text fill="#000000" font-family="sans-serif" font-size="14" lengthAdjust="spacingAndGlyphs" textLength="117" x="56.5" y="350.9536">ApplicationContext</text><rect fill="#FEFECE" filter="url(#f1tt0g5)" height="33.1201" style="stroke: #A80036; stroke-width: 1.5;" width="82" x="194.5" y="3"/><text fill="#000000" font-family="sans-serif" font-size="14" lengthAdjust="spacingAndGlyphs" textLength="68" x="201.5" y="26.0439">Resources</text><rect fill="#FEFECE" filter="url(#f1tt0g5)" height="33.1201" style="stroke: #A80036; stroke-width: 1.5;" width="82" x="194.5" y="327.9097"/><text fill="#000000" font-family="sans-serif" font-size="14" lengthAdjust="spacingAndGlyphs" textLength="68" x="201.5" y="350.9536">Resources</text><rect fill="#FEFECE" filter="url(#f1tt0g5)" height="33.1201" style="stroke: #A80036; stroke-width: 1.5;" width="105" x="290.5" y="3"/><text fill="#000000" font-family="sans-serif" font-size="14" lengthAdjust="spacingAndGlyphs" textLength="91" x="297.5" y="26.0439">AssetManager</text><rect fill="#FEFECE" filter="url(#f1tt0g5)" height="33.1201" style="stroke: #A80036; stroke-width: 1.5;" width="105" x="290.5" y="327.9097"/><text fill="#000000" font-family="sans-serif" font-size="14" lengthAdjust="spacingAndGlyphs" textLength="91" x="297.5" y="350.9536">AssetManager</text><rect fill="#FEFECE" filter="url(#f1tt0g5)" height="33.1201" style="stroke: #A80036; stroke-width: 1.5;" width="41" x="409.5" y="3"/><text fill="#000000" font-family="sans-serif" font-size="14" lengthAdjust="spacingAndGlyphs" textLength="27" x="416.5" y="26.0439">APK</text><rect fill="#FEFECE" filter="url(#f1tt0g5)" height="33.1201" style="stroke: #A80036; stroke-width: 1.5;" width="41" x="409.5" y="327.9097"/><text fill="#000000" font-family="sans-serif" font-size="14" lengthAdjust="spacingAndGlyphs" textLength="27" x="416.5" y="350.9536">APK</text><rect fill="#FFFFFF" filter="url(#f1tt0g5)" height="190.2808" style="stroke: #A80036; stroke-width: 1.0;" width="10" x="112" y="119.8745"/><rect fill="#FFFFFF" filter="url(#f1tt0g5)" height="63.386" style="stroke: #A80036; stroke-width: 1.0;" width="10" x="232.5" y="151.6289"/><rect fill="#FFFFFF" filter="url(#f1tt0g5)" height="104.8948" style="stroke: #A80036; stroke-width: 1.0;" width="10" x="340" y="215.0149"/><rect fill="#EEEEEE" filter="url(#f1tt0g5)" height="3" style="stroke: #EEEEEE; stroke-width: 1.0;" width="559" x="3" y="72.9973"/><line style="stroke: #000000; stroke-width: 1.0;" x1="3" x2="562" y1="72.9973" y2="72.9973"/><line style="stroke: #000000; stroke-width: 1.0;" x1="3" x2="562" y1="75.9973" y2="75.9973"/><rect fill="#EEEEEE" filter="url(#f1tt0g5)" height="25.7544" style="stroke: #000000; stroke-width: 2.0;" width="116" x="224.5" y="61.1201"/><text fill="#000000" font-family="sans-serif" font-size="13" font-weight="bold" lengthAdjust="spacingAndGlyphs" textLength="98" x="230.5" y="80.0181">获取资源的流程</text><polygon fill="#A80036" points="100,115.8745,110,119.8745,100,123.8745,104,119.8745" style="stroke: #A80036; stroke-width: 1.0;"/><line style="stroke: #A80036; stroke-width: 1.0;" x1="3" x2="106" y1="119.8745" y2="119.8745"/><text fill="#000000" font-family="sans-serif" font-size="13" lengthAdjust="spacingAndGlyphs" textLength="90" x="10" y="115.7725">fetchResources</text><polygon fill="#A80036" points="220.5,147.6289,230.5,151.6289,220.5,155.6289,224.5,151.6289" style="stroke: #A80036; stroke-width: 1.0;"/><line style="stroke: #A80036; stroke-width: 1.0;" x1="122" x2="226.5" y1="151.6289" y2="151.6289"/><text fill="#000000" font-family="sans-serif" font-size="13" lengthAdjust="spacingAndGlyphs" textLength="74" x="129" y="147.5269">ResourcesID</text><polygon fill="#A80036" points="328,211.0149,338,215.0149,328,219.0149,332,215.0149" style="stroke: #A80036; stroke-width: 1.0;"/><line style="stroke: #A80036; stroke-width: 1.0;" x1="237.5" x2="334" y1="215.0149" y2="215.0149"/><text fill="#000000" font-family="sans-serif" font-size="13" lengthAdjust="spacingAndGlyphs" textLength="55" x="244.5" y="210.9128">FileName</text><polygon fill="#FBFB77" filter="url(#f1tt0g5)" points="355,165.3833,355,246.3833,558,246.3833,558,175.3833,548,165.3833,355,165.3833" style="stroke: #A80036; stroke-width: 1.0;"/><line style="stroke: #A80036; stroke-width: 1.0;" x1="548" x2="548" y1="165.3833" y2="175.3833"/><line style="stroke: #A80036; stroke-width: 1.0;" x1="558" x2="548" y1="175.3833" y2="175.3833"/><text fill="#000000" font-family="sans-serif" font-size="13" lengthAdjust="spacingAndGlyphs" textLength="181" x="361" y="185.2813">资源ID和文件名称的对应关系被</text><text fill="#000000" font-family="sans-serif" font-size="13" lengthAdjust="spacingAndGlyphs" textLength="174" x="361" y="203.0356">打包在Apk中resources.arsc文</text><text fill="#000000" font-family="sans-serif" font-size="13" lengthAdjust="spacingAndGlyphs" textLength="182" x="361" y="220.79">件中，所以这个转换的过程同样</text><text fill="#000000" font-family="sans-serif" font-size="13" lengthAdjust="spacingAndGlyphs" textLength="175" x="361" y="238.5444">需要依赖AssetManager来完成</text><polygon fill="#A80036" points="328,274.4009,338,278.4009,328,282.4009,332,278.4009" style="stroke: #A80036; stroke-width: 1.0;"/><line style="stroke: #A80036; stroke-width: 1.0;" x1="122" x2="334" y1="278.4009" y2="278.4009"/><text fill="#000000" font-family="sans-serif" font-size="13" lengthAdjust="spacingAndGlyphs" textLength="55" x="129" y="274.2988">FileName</text><polygon fill="#A80036" points="420,306.1553,430,310.1553,420,314.1553,424,310.1553" style="stroke: #A80036; stroke-width: 1.0;"/><line style="stroke: #A80036; stroke-width: 1.0;" x1="350" x2="426" y1="310.1553" y2="310.1553"/><text fill="#000000" font-family="sans-serif" font-size="13" lengthAdjust="spacingAndGlyphs" textLength="28" x="357" y="306.0532">open</text></g></svg>