<?xml version="1.0" encoding="UTF-8" standalone="yes"?><svg xmlns="http://www.w3.org/2000/svg" xmlns:xlink="http://www.w3.org/1999/xlink" height="322px" style="width:585px;height:322px;" version="1.1" viewBox="0 0 585 322" width="585px"><defs><filter height="300%" id="fm9buhq" width="300%" x="-1" y="-1"><feGaussianBlur result="blurOut" stdDeviation="2.0"/><feColorMatrix in="blurOut" result="blurOut2" type="matrix" values="0 0 0 0 0 0 0 0 0 0 0 0 0 0 0 0 0 0 .4 0"/><feOffset dx="4.0" dy="4.0" in="blurOut2" result="blurOut3"/><feBlend in="SourceGraphic" in2="blurOut3" mode="normal"/></filter></defs><g><rect fill="#FFFFFF" filter="url(#fm9buhq)" height="198.5493" style="stroke: #A80036; stroke-width: 1.0;" width="10" x="132" y="74.1201"/><rect fill="#FFFFFF" filter="url(#fm9buhq)" height="166.7949" style="stroke: #A80036; stroke-width: 1.0;" width="10" x="271" y="105.8745"/><rect fill="#FFFFFF" filter="url(#fm9buhq)" height="111.2861" style="stroke: #000000; stroke-width: 2.0;" width="296" x="212" y="121.6289"/><rect fill="#FFFFFF" height="46.7544" style="stroke: none; stroke-width: 1.0;" width="296" x="212" y="186.1606"/><line style="stroke: #A80036; stroke-width: 1.0; stroke-dasharray: 5.0,5.0;" x1="137" x2="137" y1="41.1201" y2="281.6694"/><line style="stroke: #A80036; stroke-width: 1.0; stroke-dasharray: 5.0,5.0;" x1="276" x2="276" y1="41.1201" y2="281.6694"/><line style="stroke: #A80036; stroke-width: 1.0; stroke-dasharray: 5.0,5.0;" x1="507.5" x2="507.5" y1="41.1201" y2="281.6694"/><rect fill="#FEFECE" filter="url(#fm9buhq)" height="33.1201" style="stroke: #A80036; stroke-width: 1.5;" width="58" x="106" y="3"/><text fill="#000000" font-family="sans-serif" font-size="14" lengthAdjust="spacingAndGlyphs" textLength="44" x="113" y="26.0439">Activity</text><rect fill="#FEFECE" filter="url(#fm9buhq)" height="33.1201" style="stroke: #A80036; stroke-width: 1.5;" width="58" x="106" y="280.6694"/><text fill="#000000" font-family="sans-serif" font-size="14" lengthAdjust="spacingAndGlyphs" textLength="44" x="113" y="303.7134">Activity</text><rect fill="#FEFECE" filter="url(#fm9buhq)" height="33.1201" style="stroke: #A80036; stroke-width: 1.5;" width="104" x="222" y="3"/><text fill="#000000" font-family="sans-serif" font-size="14" lengthAdjust="spacingAndGlyphs" textLength="90" x="229" y="26.0439">PhoneWindow</text><rect fill="#FEFECE" filter="url(#fm9buhq)" height="33.1201" style="stroke: #A80036; stroke-width: 1.5;" width="104" x="222" y="280.6694"/><text fill="#000000" font-family="sans-serif" font-size="14" lengthAdjust="spacingAndGlyphs" textLength="90" x="229" y="303.7134">PhoneWindow</text><rect fill="#FEFECE" filter="url(#fm9buhq)" height="33.1201" style="stroke: #A80036; stroke-width: 1.5;" width="141" x="435.5" y="3"/><text fill="#000000" font-family="sans-serif" font-size="14" lengthAdjust="spacingAndGlyphs" textLength="127" x="442.5" y="26.0439">PhoneLayoutInflater</text><rect fill="#FEFECE" filter="url(#fm9buhq)" height="33.1201" style="stroke: #A80036; stroke-width: 1.5;" width="141" x="435.5" y="280.6694"/><text fill="#000000" font-family="sans-serif" font-size="14" lengthAdjust="spacingAndGlyphs" textLength="127" x="442.5" y="303.7134">PhoneLayoutInflater</text><rect fill="#FFFFFF" filter="url(#fm9buhq)" height="198.5493" style="stroke: #A80036; stroke-width: 1.0;" width="10" x="132" y="74.1201"/><rect fill="#FFFFFF" filter="url(#fm9buhq)" height="166.7949" style="stroke: #A80036; stroke-width: 1.0;" width="10" x="271" y="105.8745"/><polygon fill="#A80036" points="120,70.1201,130,74.1201,120,78.1201,124,74.1201" style="stroke: #A80036; stroke-width: 1.0;"/><line style="stroke: #A80036; stroke-width: 1.0;" x1="3" x2="126" y1="74.1201" y2="74.1201"/><text fill="#000000" font-family="sans-serif" font-size="13" font-weight="bold" lengthAdjust="spacingAndGlyphs" textLength="7" x="10" y="70.0181">1</text><text fill="#000000" font-family="sans-serif" font-size="13" lengthAdjust="spacingAndGlyphs" textLength="99" x="21" y="70.0181">setContentView()</text><polygon fill="#A80036" points="259,101.8745,269,105.8745,259,109.8745,263,105.8745" style="stroke: #A80036; stroke-width: 1.0;"/><line style="stroke: #A80036; stroke-width: 1.0;" x1="142" x2="265" y1="105.8745" y2="105.8745"/><text fill="#000000" font-family="sans-serif" font-size="13" font-weight="bold" lengthAdjust="spacingAndGlyphs" textLength="7" x="149" y="101.7725">2</text><text fill="#000000" font-family="sans-serif" font-size="13" lengthAdjust="spacingAndGlyphs" textLength="99" x="160" y="101.7725">setContentView()</text><rect fill="none" height="111.2861" style="stroke: #000000; stroke-width: 2.0;" width="296" x="212" y="121.6289"/><polygon fill="#EEEEEE" points="212,121.6289,273,121.6289,273,130.6289,263,140.6289,212,140.6289,212,121.6289" style="stroke: #000000; stroke-width: 2.0;"/><text fill="#000000" font-family="sans-serif" font-size="13" font-weight="bold" lengthAdjust="spacingAndGlyphs" textLength="16" x="227" y="137.5269">alt</text><text fill="#000000" font-family="sans-serif" font-size="11" font-weight="bold" lengthAdjust="spacingAndGlyphs" textLength="137" x="288" y="136.2349">[mContentParent == null]</text><line style="stroke: #A80036; stroke-width: 1.0;" x1="281" x2="323" y1="165.1606" y2="165.1606"/><line style="stroke: #A80036; stroke-width: 1.0;" x1="323" x2="323" y1="165.1606" y2="178.1606"/><line style="stroke: #A80036; stroke-width: 1.0;" x1="282" x2="323" y1="178.1606" y2="178.1606"/><polygon fill="#A80036" points="292,174.1606,282,178.1606,292,182.1606,288,178.1606" style="stroke: #A80036; stroke-width: 1.0;"/><text fill="#000000" font-family="sans-serif" font-size="13" font-weight="bold" lengthAdjust="spacingAndGlyphs" textLength="7" x="288" y="160.3042">3</text><text fill="#000000" font-family="sans-serif" font-size="13" lengthAdjust="spacingAndGlyphs" textLength="76" x="299" y="160.3042">installDecor()</text><line style="stroke: #000000; stroke-width: 1.0; stroke-dasharray: 2.0,2.0;" x1="212" x2="508" y1="187.1606" y2="187.1606"/><line style="stroke: #A80036; stroke-width: 1.0;" x1="281" x2="323" y1="211.915" y2="211.915"/><line style="stroke: #A80036; stroke-width: 1.0;" x1="323" x2="323" y1="211.915" y2="224.915"/><line style="stroke: #A80036; stroke-width: 1.0;" x1="282" x2="323" y1="224.915" y2="224.915"/><polygon fill="#A80036" points="292,220.915,282,224.915,292,228.915,288,224.915" style="stroke: #A80036; stroke-width: 1.0;"/><text fill="#000000" font-family="sans-serif" font-size="13" font-weight="bold" lengthAdjust="spacingAndGlyphs" textLength="7" x="288" y="207.0586">4</text><text fill="#000000" font-family="sans-serif" font-size="13" lengthAdjust="spacingAndGlyphs" textLength="197" x="299" y="207.0586">mContentParent.removeAllViews()</text><polygon fill="#A80036" points="496,258.915,506,262.915,496,266.915,500,262.915" style="stroke: #A80036; stroke-width: 1.0;"/><line style="stroke: #A80036; stroke-width: 1.0;" x1="281" x2="502" y1="262.915" y2="262.915"/><text fill="#000000" font-family="sans-serif" font-size="13" font-weight="bold" lengthAdjust="spacingAndGlyphs" textLength="7" x="288" y="258.813">5</text><text fill="#000000" font-family="sans-serif" font-size="13" lengthAdjust="spacingAndGlyphs" textLength="42" x="299" y="258.813">inflate()</text></g></svg>