<?xml version="1.0" encoding="UTF-8" standalone="yes"?><svg xmlns="http://www.w3.org/2000/svg" xmlns:xlink="http://www.w3.org/1999/xlink" height="866px" style="width:819px;height:866px;" version="1.1" viewBox="0 0 819 866" width="819px"><defs><filter height="300%" id="f97uw7g" width="300%" x="-1" y="-1"><feGaussianBlur result="blurOut" stdDeviation="2.0"/><feColorMatrix in="blurOut" result="blurOut2" type="matrix" values="0 0 0 0 0 0 0 0 0 0 0 0 0 0 0 0 0 0 .4 0"/><feOffset dx="4.0" dy="4.0" in="blurOut2" result="blurOut3"/><feBlend in="SourceGraphic" in2="blurOut3" mode="normal"/></filter></defs><g><rect fill="#FFFFFF" filter="url(#f97uw7g)" height="640.3335" style="stroke: #A80036; stroke-width: 1.0;" width="10" x="58" y="159.3833"/><rect fill="#FFFFFF" filter="url(#f97uw7g)" height="557.8247" style="stroke: #A80036; stroke-width: 1.0;" width="10" x="63" y="204.1377"/><rect fill="#FFFFFF" filter="url(#f97uw7g)" height="31.7544" style="stroke: #A80036; stroke-width: 1.0;" width="10" x="287" y="240.8921"/><rect fill="#FFFFFF" filter="url(#f97uw7g)" height="235.2808" style="stroke: #A80036; stroke-width: 1.0;" width="10" x="287" y="463.1729"/><rect fill="#FFFFFF" filter="url(#f97uw7g)" height="31.7544" style="stroke: #A80036; stroke-width: 1.0;" width="10" x="415" y="494.9272"/><rect fill="#FFFFFF" filter="url(#f97uw7g)" height="108.2632" style="stroke: #A80036; stroke-width: 1.0;" width="10" x="415" y="558.436"/><rect fill="#FFFFFF" filter="url(#f97uw7g)" height="31.7544" style="stroke: #A80036; stroke-width: 1.0;" width="10" x="623" y="304.4009"/><rect fill="#FFFFFF" filter="url(#f97uw7g)" height="31.7544" style="stroke: #A80036; stroke-width: 1.0;" width="10" x="623" y="399.6641"/><rect fill="#FFFFFF" filter="url(#f97uw7g)" height="31.7544" style="stroke: #A80036; stroke-width: 1.0;" width="10" x="623" y="634.9448"/><rect fill="#FFFFFF" filter="url(#f97uw7g)" height="362.2983" style="stroke: #A80036; stroke-width: 1.0;" width="10" x="764" y="367.9097"/><line style="stroke: #A80036; stroke-width: 1.0; stroke-dasharray: 5.0,5.0;" x1="63" x2="63" y1="41.1201" y2="825.4712"/><line style="stroke: #A80036; stroke-width: 1.0; stroke-dasharray: 5.0,5.0;" x1="291.5" x2="291.5" y1="41.1201" y2="825.4712"/><line style="stroke: #A80036; stroke-width: 1.0; stroke-dasharray: 5.0,5.0;" x1="419.5" x2="419.5" y1="41.1201" y2="825.4712"/><line style="stroke: #A80036; stroke-width: 1.0; stroke-dasharray: 5.0,5.0;" x1="627.5" x2="627.5" y1="41.1201" y2="825.4712"/><line style="stroke: #A80036; stroke-width: 1.0; stroke-dasharray: 5.0,5.0;" x1="769" x2="769" y1="41.1201" y2="825.4712"/><rect fill="#FEFECE" filter="url(#f97uw7g)" height="33.1201" style="stroke: #A80036; stroke-width: 1.5;" width="104" x="9" y="3"/><text fill="#000000" font-family="sans-serif" font-size="14" lengthAdjust="spacingAndGlyphs" textLength="90" x="16" y="26.0439">ActivityThread</text><rect fill="#FEFECE" filter="url(#f97uw7g)" height="33.1201" style="stroke: #A80036; stroke-width: 1.5;" width="104" x="9" y="824.4712"/><text fill="#000000" font-family="sans-serif" font-size="14" lengthAdjust="spacingAndGlyphs" textLength="90" x="16" y="847.5151">ActivityThread</text><rect fill="#FEFECE" filter="url(#f97uw7g)" height="33.1201" style="stroke: #A80036; stroke-width: 1.5;" width="111" x="234.5" y="3"/><text fill="#000000" font-family="sans-serif" font-size="14" lengthAdjust="spacingAndGlyphs" textLength="97" x="241.5" y="26.0439">Instrumentation</text><rect fill="#FEFECE" filter="url(#f97uw7g)" height="33.1201" style="stroke: #A80036; stroke-width: 1.5;" width="111" x="234.5" y="824.4712"/><text fill="#000000" font-family="sans-serif" font-size="14" lengthAdjust="spacingAndGlyphs" textLength="97" x="241.5" y="847.5151">Instrumentation</text><rect fill="#FEFECE" filter="url(#f97uw7g)" height="33.1201" style="stroke: #A80036; stroke-width: 1.5;" width="83" x="376.5" y="3"/><text fill="#000000" font-family="sans-serif" font-size="14" lengthAdjust="spacingAndGlyphs" textLength="69" x="383.5" y="26.0439">Application</text><rect fill="#FEFECE" filter="url(#f97uw7g)" height="33.1201" style="stroke: #A80036; stroke-width: 1.5;" width="83" x="376.5" y="824.4712"/><text fill="#000000" font-family="sans-serif" font-size="14" lengthAdjust="spacingAndGlyphs" textLength="69" x="383.5" y="847.5151">Application</text><rect fill="#FEFECE" filter="url(#f97uw7g)" height="33.1201" style="stroke: #A80036; stroke-width: 1.5;" width="87" x="582.5" y="3"/><text fill="#000000" font-family="sans-serif" font-size="14" lengthAdjust="spacingAndGlyphs" textLength="73" x="589.5" y="26.0439">ContextImpl</text><rect fill="#FEFECE" filter="url(#f97uw7g)" height="33.1201" style="stroke: #A80036; stroke-width: 1.5;" width="87" x="582.5" y="824.4712"/><text fill="#000000" font-family="sans-serif" font-size="14" lengthAdjust="spacingAndGlyphs" textLength="73" x="589.5" y="847.5151">ContextImpl</text><rect fill="#FEFECE" filter="url(#f97uw7g)" height="33.1201" style="stroke: #A80036; stroke-width: 1.5;" width="86" x="724" y="3"/><text fill="#000000" font-family="sans-serif" font-size="14" lengthAdjust="spacingAndGlyphs" textLength="72" x="731" y="26.0439">LoadedApk</text><rect fill="#FEFECE" filter="url(#f97uw7g)" height="33.1201" style="stroke: #A80036; stroke-width: 1.5;" width="86" x="724" y="824.4712"/><text fill="#000000" font-family="sans-serif" font-size="14" lengthAdjust="spacingAndGlyphs" textLength="72" x="731" y="847.5151">LoadedApk</text><rect fill="#FFFFFF" filter="url(#f97uw7g)" height="640.3335" style="stroke: #A80036; stroke-width: 1.0;" width="10" x="58" y="159.3833"/><rect fill="#FFFFFF" filter="url(#f97uw7g)" height="557.8247" style="stroke: #A80036; stroke-width: 1.0;" width="10" x="63" y="204.1377"/><rect fill="#FFFFFF" filter="url(#f97uw7g)" height="31.7544" style="stroke: #A80036; stroke-width: 1.0;" width="10" x="287" y="240.8921"/><rect fill="#FFFFFF" filter="url(#f97uw7g)" height="235.2808" style="stroke: #A80036; stroke-width: 1.0;" width="10" x="287" y="463.1729"/><rect fill="#FFFFFF" filter="url(#f97uw7g)" height="31.7544" style="stroke: #A80036; stroke-width: 1.0;" width="10" x="415" y="494.9272"/><rect fill="#FFFFFF" filter="url(#f97uw7g)" height="108.2632" style="stroke: #A80036; stroke-width: 1.0;" width="10" x="415" y="558.436"/><rect fill="#FFFFFF" filter="url(#f97uw7g)" height="31.7544" style="stroke: #A80036; stroke-width: 1.0;" width="10" x="623" y="304.4009"/><rect fill="#FFFFFF" filter="url(#f97uw7g)" height="31.7544" style="stroke: #A80036; stroke-width: 1.0;" width="10" x="623" y="399.6641"/><rect fill="#FFFFFF" filter="url(#f97uw7g)" height="31.7544" style="stroke: #A80036; stroke-width: 1.0;" width="10" x="623" y="634.9448"/><rect fill="#FFFFFF" filter="url(#f97uw7g)" height="362.2983" style="stroke: #A80036; stroke-width: 1.0;" width="10" x="764" y="367.9097"/><polygon fill="#A80036" points="51,92.8745,61,96.8745,51,100.8745,55,96.8745" style="stroke: #A80036; stroke-width: 1.0;"/><line style="stroke: #A80036; stroke-width: 1.0;" x1="3" x2="57" y1="96.8745" y2="96.8745"/><text fill="#000000" font-family="sans-serif" font-size="13" lengthAdjust="spacingAndGlyphs" textLength="36" x="10" y="92.7725">main()</text><polygon fill="#FBFB77" filter="url(#f97uw7g)" points="68,56.1201,68,119.1201,407,119.1201,407,66.1201,397,56.1201,68,56.1201" style="stroke: #A80036; stroke-width: 1.0;"/><line style="stroke: #A80036; stroke-width: 1.0;" x1="397" x2="397" y1="56.1201" y2="66.1201"/><line style="stroke: #A80036; stroke-width: 1.0;" x1="407" x2="397" y1="66.1201" y2="66.1201"/><text fill="#000000" font-family="sans-serif" font-size="13" lengthAdjust="spacingAndGlyphs" textLength="142" x="74" y="76.0181">launch a new application</text><text fill="#000000" font-family="sans-serif" font-size="13" lengthAdjust="spacingAndGlyphs" textLength="169" x="74" y="93.7725">main method as the entrance</text><text fill="#000000" font-family="sans-serif" font-size="13" lengthAdjust="spacingAndGlyphs" textLength="318" x="74" y="111.5269">new a ActivityThread for this application as main thread</text><line style="stroke: #A80036; stroke-width: 1.0;" x1="63" x2="110" y1="147.1377" y2="147.1377"/><line style="stroke: #A80036; stroke-width: 1.0;" x1="110" x2="110" y1="147.1377" y2="160.1377"/><line style="stroke: #A80036; stroke-width: 1.0;" x1="69" x2="110" y1="160.1377" y2="160.1377"/><polygon fill="#A80036" points="79,156.1377,69,160.1377,79,164.1377,75,160.1377" style="stroke: #A80036; stroke-width: 1.0;"/><text fill="#000000" font-family="sans-serif" font-size="13" lengthAdjust="spacingAndGlyphs" textLength="116" x="75" y="142.2813">new ActivityThread()</text><line style="stroke: #A80036; stroke-width: 1.0;" x1="68" x2="115" y1="191.8921" y2="191.8921"/><line style="stroke: #A80036; stroke-width: 1.0;" x1="115" x2="115" y1="191.8921" y2="204.8921"/><line style="stroke: #A80036; stroke-width: 1.0;" x1="74" x2="115" y1="204.8921" y2="204.8921"/><polygon fill="#A80036" points="84,200.8921,74,204.8921,84,208.8921,80,204.8921" style="stroke: #A80036; stroke-width: 1.0;"/><text fill="#000000" font-family="sans-serif" font-size="13" lengthAdjust="spacingAndGlyphs" textLength="205" x="80" y="187.0356">invoke attach() to init ActivityThread</text><polygon fill="#A80036" points="275,236.8921,285,240.8921,275,244.8921,279,240.8921" style="stroke: #A80036; stroke-width: 1.0;"/><line style="stroke: #A80036; stroke-width: 1.0;" x1="73" x2="281" y1="240.8921" y2="240.8921"/><text fill="#000000" font-family="sans-serif" font-size="13" lengthAdjust="spacingAndGlyphs" textLength="124" x="80" y="236.79">new Instrumentation()</text><polygon fill="#A80036" points="84,268.6465,74,272.6465,84,276.6465,80,272.6465" style="stroke: #A80036; stroke-width: 1.0;"/><line style="stroke: #A80036; stroke-width: 1.0; stroke-dasharray: 2.0,2.0;" x1="78" x2="291" y1="272.6465" y2="272.6465"/><text fill="#000000" font-family="sans-serif" font-size="13" lengthAdjust="spacingAndGlyphs" textLength="100" x="90" y="268.5444">mInstrumentation</text><polygon fill="#A80036" points="611,300.4009,621,304.4009,611,308.4009,615,304.4009" style="stroke: #A80036; stroke-width: 1.0;"/><line style="stroke: #A80036; stroke-width: 1.0;" x1="73" x2="617" y1="304.4009" y2="304.4009"/><text fill="#000000" font-family="sans-serif" font-size="13" lengthAdjust="spacingAndGlyphs" textLength="112" x="80" y="300.2988">craeteAppContext()</text><polygon fill="#A80036" points="84,332.1553,74,336.1553,84,340.1553,80,336.1553" style="stroke: #A80036; stroke-width: 1.0;"/><line style="stroke: #A80036; stroke-width: 1.0; stroke-dasharray: 2.0,2.0;" x1="78" x2="627" y1="336.1553" y2="336.1553"/><text fill="#000000" font-family="sans-serif" font-size="13" lengthAdjust="spacingAndGlyphs" textLength="43" x="90" y="332.0532">context</text><polygon fill="#A80036" points="752,363.9097,762,367.9097,752,371.9097,756,367.9097" style="stroke: #A80036; stroke-width: 1.0;"/><line style="stroke: #A80036; stroke-width: 1.0;" x1="73" x2="758" y1="367.9097" y2="367.9097"/><text fill="#000000" font-family="sans-serif" font-size="13" lengthAdjust="spacingAndGlyphs" textLength="237" x="80" y="363.8076">context.mPackageInfo.makeApplication()</text><polygon fill="#A80036" points="644,395.6641,634,399.6641,644,403.6641,640,399.6641" style="stroke: #A80036; stroke-width: 1.0;"/><line style="stroke: #A80036; stroke-width: 1.0;" x1="638" x2="763" y1="399.6641" y2="399.6641"/><text fill="#000000" font-family="sans-serif" font-size="13" lengthAdjust="spacingAndGlyphs" textLength="112" x="650" y="395.562">craeteAppContext()</text><polygon fill="#A80036" points="752,427.4185,762,431.4185,752,435.4185,756,431.4185" style="stroke: #A80036; stroke-width: 1.0;"/><line style="stroke: #A80036; stroke-width: 1.0; stroke-dasharray: 2.0,2.0;" x1="628" x2="758" y1="431.4185" y2="431.4185"/><text fill="#000000" font-family="sans-serif" font-size="13" lengthAdjust="spacingAndGlyphs" textLength="66" x="635" y="427.3164">appContext</text><polygon fill="#A80036" points="308,459.1729,298,463.1729,308,467.1729,304,463.1729" style="stroke: #A80036; stroke-width: 1.0;"/><line style="stroke: #A80036; stroke-width: 1.0;" x1="302" x2="763" y1="463.1729" y2="463.1729"/><text fill="#000000" font-family="sans-serif" font-size="13" lengthAdjust="spacingAndGlyphs" textLength="295" x="314" y="459.0708">mActivityThread.mInstrumentation.newApplication()</text><polygon fill="#A80036" points="403,490.9272,413,494.9272,403,498.9272,407,494.9272" style="stroke: #A80036; stroke-width: 1.0;"/><line style="stroke: #A80036; stroke-width: 1.0;" x1="297" x2="409" y1="494.9272" y2="494.9272"/><text fill="#000000" font-family="sans-serif" font-size="13" lengthAdjust="spacingAndGlyphs" textLength="99" x="304" y="490.8252">new Application()</text><polygon fill="#A80036" points="308,522.6816,298,526.6816,308,530.6816,304,526.6816" style="stroke: #A80036; stroke-width: 1.0;"/><line style="stroke: #A80036; stroke-width: 1.0; stroke-dasharray: 2.0,2.0;" x1="302" x2="419" y1="526.6816" y2="526.6816"/><text fill="#000000" font-family="sans-serif" font-size="13" lengthAdjust="spacingAndGlyphs" textLength="21" x="314" y="522.5796">app</text><polygon fill="#A80036" points="403,554.436,413,558.436,403,562.436,407,558.436" style="stroke: #A80036; stroke-width: 1.0;"/><line style="stroke: #A80036; stroke-width: 1.0;" x1="297" x2="409" y1="558.436" y2="558.436"/><text fill="#000000" font-family="sans-serif" font-size="13" lengthAdjust="spacingAndGlyphs" textLength="73" x="304" y="554.334">app.attach();</text><line style="stroke: #A80036; stroke-width: 1.0;" x1="425" x2="467" y1="590.9448" y2="590.9448"/><line style="stroke: #A80036; stroke-width: 1.0;" x1="467" x2="467" y1="590.9448" y2="603.9448"/><line style="stroke: #A80036; stroke-width: 1.0;" x1="426" x2="467" y1="603.9448" y2="603.9448"/><polygon fill="#A80036" points="436,599.9448,426,603.9448,436,607.9448,432,603.9448" style="stroke: #A80036; stroke-width: 1.0;"/><text fill="#000000" font-family="sans-serif" font-size="13" lengthAdjust="spacingAndGlyphs" textLength="162" x="432" y="586.0884">attachBaseContext(context)</text><polygon fill="#A80036" points="611,630.9448,621,634.9448,611,638.9448,615,634.9448" style="stroke: #A80036; stroke-width: 1.0;"/><line style="stroke: #A80036; stroke-width: 1.0;" x1="425" x2="617" y1="634.9448" y2="634.9448"/><text fill="#000000" font-family="sans-serif" font-size="13" lengthAdjust="spacingAndGlyphs" textLength="179" x="432" y="630.8428">getImpl(context).mPackageInfo</text><polygon fill="#A80036" points="431,662.6992,421,666.6992,431,670.6992,427,666.6992" style="stroke: #A80036; stroke-width: 1.0;"/><line style="stroke: #A80036; stroke-width: 1.0; stroke-dasharray: 2.0,2.0;" x1="425" x2="627" y1="666.6992" y2="666.6992"/><text fill="#000000" font-family="sans-serif" font-size="13" lengthAdjust="spacingAndGlyphs" textLength="76" x="437" y="662.5972">mLoadedApk</text><polygon fill="#A80036" points="752,694.4536,762,698.4536,752,702.4536,756,698.4536" style="stroke: #A80036; stroke-width: 1.0;"/><line style="stroke: #A80036; stroke-width: 1.0; stroke-dasharray: 2.0,2.0;" x1="292" x2="758" y1="698.4536" y2="698.4536"/><text fill="#000000" font-family="sans-serif" font-size="13" lengthAdjust="spacingAndGlyphs" textLength="21" x="299" y="694.3516">app</text><polygon fill="#A80036" points="84,726.208,74,730.208,84,734.208,80,730.208" style="stroke: #A80036; stroke-width: 1.0;"/><line style="stroke: #A80036; stroke-width: 1.0; stroke-dasharray: 2.0,2.0;" x1="78" x2="768" y1="730.208" y2="730.208"/><text fill="#000000" font-family="sans-serif" font-size="13" lengthAdjust="spacingAndGlyphs" textLength="102" x="90" y="726.106">mInitalApplication</text><polygon fill="#A80036" points="408,757.9624,418,761.9624,408,765.9624,412,761.9624" style="stroke: #A80036; stroke-width: 1.0;"/><line style="stroke: #A80036; stroke-width: 1.0;" x1="68" x2="414" y1="761.9624" y2="761.9624"/><text fill="#000000" font-family="sans-serif" font-size="13" lengthAdjust="spacingAndGlyphs" textLength="166" x="75" y="757.8604">mInitalApplication.onCreate()</text><line style="stroke: #A80036; stroke-width: 1.0;" x1="68" x2="110" y1="799.4712" y2="799.4712"/><line style="stroke: #A80036; stroke-width: 1.0;" x1="110" x2="110" y1="799.4712" y2="812.4712"/><line style="stroke: #A80036; stroke-width: 1.0;" x1="63" x2="110" y1="812.4712" y2="812.4712"/><polygon fill="#A80036" points="73,808.4712,63,812.4712,73,816.4712,69,812.4712" style="stroke: #A80036; stroke-width: 1.0;"/><text fill="#000000" font-family="sans-serif" font-size="13" lengthAdjust="spacingAndGlyphs" textLength="95" x="75" y="794.6147">init main handler</text></g></svg>