<?xml version="1.0" encoding="UTF-8" standalone="yes"?><svg xmlns="http://www.w3.org/2000/svg" xmlns:xlink="http://www.w3.org/1999/xlink" height="327px" style="width:728px;height:327px;" version="1.1" viewBox="0 0 728 327" width="728px"><defs><filter height="300%" id="fanzfct" width="300%" x="-1" y="-1"><feGaussianBlur result="blurOut" stdDeviation="2.0"/><feColorMatrix in="blurOut" result="blurOut2" type="matrix" values="0 0 0 0 0 0 0 0 0 0 0 0 0 0 0 0 0 0 .4 0"/><feOffset dx="4.0" dy="4.0" in="blurOut2" result="blurOut3"/><feBlend in="SourceGraphic" in2="blurOut3" mode="normal"/></filter></defs><g><!--entity ctx--><ellipse cx="343" cy="128.5" fill="#FEFECE" filter="url(#fanzfct)" rx="8" ry="8" style="stroke: #A80036; stroke-width: 2.0;"/><path d="M343,136.5 L343,163.5 M330,144.5 L356,144.5 M343,163.5 L330,178.5 M343,163.5 L356,178.5 " fill="#FEFECE" filter="url(#fanzfct)" style="stroke: #A80036; stroke-width: 2.0;"/><text fill="#000000" font-family="sans-serif" font-size="14" lengthAdjust="spacingAndGlyphs" textLength="48" x="319" y="201.5439">Context</text><ellipse cx="642.598" cy="24.52" fill="#FEFECE" filter="url(#fanzfct)" rx="42.598" ry="16.52" style="stroke: #A80036; stroke-width: 1.5;"/><text fill="#000000" font-family="sans-serif" font-size="14" lengthAdjust="spacingAndGlyphs" textLength="56" x="614.598" y="30.58">resource</text><ellipse cx="642.5416" cy="92.52" fill="#FEFECE" filter="url(#fanzfct)" rx="27.0416" ry="16.52" style="stroke: #A80036; stroke-width: 1.5;"/><text fill="#000000" font-family="sans-serif" font-size="14" lengthAdjust="spacingAndGlyphs" textLength="34" x="625.5416" y="98.58">asset</text><ellipse cx="642.747" cy="161.6494" fill="#FEFECE" filter="url(#fanzfct)" rx="76.247" ry="17.6494" style="stroke: #A80036; stroke-width: 1.5;"/><text fill="#000000" font-family="sans-serif" font-size="14" lengthAdjust="spacingAndGlyphs" textLength="111" x="587.247" y="167.7095">PackageManager</text><ellipse cx="642.5455" cy="232.6091" fill="#FEFECE" filter="url(#fanzfct)" rx="78.5455" ry="18.1091" style="stroke: #A80036; stroke-width: 1.5;"/><text fill="#000000" font-family="sans-serif" font-size="14" lengthAdjust="spacingAndGlyphs" textLength="117" x="584.0455" y="238.6692">ApplicationContext</text><ellipse cx="642.3713" cy="303.2743" fill="#FEFECE" filter="url(#fanzfct)" rx="74.3713" ry="17.2743" style="stroke: #A80036; stroke-width: 1.5;"/><text fill="#000000" font-family="sans-serif" font-size="14" lengthAdjust="spacingAndGlyphs" textLength="106" x="589.3713" y="309.3343">ContentResolver</text><ellipse cx="74.7609" cy="93.52" fill="#FEFECE" filter="url(#fanzfct)" rx="68.7609" ry="16.52" style="stroke: #A80036; stroke-width: 1.5;"/><text fill="#000000" font-family="sans-serif" font-size="14" lengthAdjust="spacingAndGlyphs" textLength="93" x="28.2609" y="99.58">SystemService</text><ellipse cx="74.7548" cy="161.52" fill="#FEFECE" filter="url(#fanzfct)" rx="48.2548" ry="16.52" style="stroke: #A80036; stroke-width: 1.5;"/><text fill="#000000" font-family="sans-serif" font-size="14" lengthAdjust="spacingAndGlyphs" textLength="64" x="42.7548" y="167.58">Broadcast</text><ellipse cx="75.1127" cy="229.52" fill="#FEFECE" filter="url(#fanzfct)" rx="34.1127" ry="16.52" style="stroke: #A80036; stroke-width: 1.5;"/><text fill="#000000" font-family="sans-serif" font-size="14" lengthAdjust="spacingAndGlyphs" textLength="44" x="53.1127" y="235.58">Activity</text><path d="M362.573,118.266 C371.028,103.272 382.449,87.685 397,77.5 C456.171,36.083 541.634,26.11 594.267,24.206 " fill="none" style="stroke: #A80036; stroke-width: 1.0;"/><polygon fill="#A80036" points="599.571,24.037,590.4487,20.3245,594.5735,24.1956,590.7024,28.3204,599.571,24.037" style="stroke: #A80036; stroke-width: 1.0;"/><text fill="#000000" font-family="sans-serif" font-size="13" lengthAdjust="spacingAndGlyphs" textLength="81" x="425" y="26.3979">getResource()</text><path d="M367.086,147.828 C376.15,142.976 386.808,137.885 397,134.5 C471.189,109.862 563.084,99.048 610.284,94.841 " fill="none" style="stroke: #A80036; stroke-width: 1.0;"/><polygon fill="#A80036" points="615.539,94.383,606.2265,91.1771,610.5578,94.8158,606.9191,99.1471,615.539,94.383" style="stroke: #A80036; stroke-width: 1.0;"/><text fill="#000000" font-family="sans-serif" font-size="13" lengthAdjust="spacingAndGlyphs" textLength="60" x="435.5" y="101.3979">getAsset()</text><path d="M367.344,161.5 C408.596,161.5 496.169,161.5 561.301,161.5 " fill="none" style="stroke: #A80036; stroke-width: 1.0;"/><polygon fill="#A80036" points="566.344,161.5,557.344,157.5,561.344,161.5,557.344,165.5,566.344,161.5" style="stroke: #A80036; stroke-width: 1.0;"/><text fill="#000000" font-family="sans-serif" font-size="13" lengthAdjust="spacingAndGlyphs" textLength="127" x="402" y="158.3979">getPackageManager()</text><path d="M367.101,175.13 C376.166,179.976 386.821,185.075 397,188.5 C451.834,206.952 516.335,218.148 565.317,224.6254 " fill="none" style="stroke: #A80036; stroke-width: 1.0;"/><polygon fill="#A80036" points="570.307,225.2761,561.9004,220.1449,565.3491,224.629,560.865,228.0776,570.307,225.2761" style="stroke: #A80036; stroke-width: 1.0;"/><text fill="#000000" font-family="sans-serif" font-size="13" lengthAdjust="spacingAndGlyphs" textLength="135" x="398" y="185.3979">getApplicationContext()</text><path d="M362.68,204.583 C371.147,219.56 382.549,235.1743 397,245.5 C445.644,280.2585 512.275,294.424 563.694,300.0836 " fill="none" style="stroke: #A80036; stroke-width: 1.0;"/><polygon fill="#A80036" points="568.937,300.6371,560.406,295.7154,563.9646,300.1128,559.5672,303.6713,568.937,300.6371" style="stroke: #A80036; stroke-width: 1.0;"/><text fill="#000000" font-family="sans-serif" font-size="13" lengthAdjust="spacingAndGlyphs" textLength="120" x="405.5" y="242.3979">getContentResolver()</text><path d="M142.45,101.39 C185.107,107.643 241.254,118.11 289,134.5 C299.158,137.987 309.81,143.097 318.877,147.935 " fill="none" style="stroke: #A80036; stroke-width: 1.0;"/><polygon fill="#A80036" points="137.316,100.648,145.6508,105.8951,142.2645,101.3637,146.7959,97.9775,137.316,100.648" style="stroke: #A80036; stroke-width: 1.0;"/><text fill="#000000" font-family="sans-serif" font-size="13" lengthAdjust="spacingAndGlyphs" textLength="113" x="175" y="103.3979">getSystemService()</text><path d="M128.705,161.5 C186.583,161.5 276.883,161.5 318.966,161.5 " fill="none" style="stroke: #A80036; stroke-width: 1.0;"/><polygon fill="#A80036" points="123.555,161.5,132.555,165.5,128.555,161.5,132.555,157.5,123.555,161.5" style="stroke: #A80036; stroke-width: 1.0;"/><text fill="#000000" font-family="sans-serif" font-size="13" lengthAdjust="spacingAndGlyphs" textLength="95" x="184" y="158.3979">sendBraodcast()</text><path d="M113.607,225.5022 C156.822,220.172 229.446,208.943 289,188.5 C299.158,185.013 309.81,179.903 318.877,175.065 " fill="none" style="stroke: #A80036; stroke-width: 1.0;"/><polygon fill="#A80036" points="108.485,226.1232,117.9016,229.0089,113.4485,225.5203,116.9371,221.0672,108.485,226.1232" style="stroke: #A80036; stroke-width: 1.0;"/><text fill="#000000" font-family="sans-serif" font-size="13" lengthAdjust="spacingAndGlyphs" textLength="76" x="193.5" y="185.3979">startActivity()</text></g></svg>