<?xml version="1.0" encoding="UTF-8" standalone="yes"?><svg xmlns="http://www.w3.org/2000/svg" xmlns:xlink="http://www.w3.org/1999/xlink" height="623px" style="width:781px;height:623px;" version="1.1" viewBox="0 0 781 623" width="781px"><defs><filter height="300%" id="f78k8ja" width="300%" x="-1" y="-1"><feGaussianBlur result="blurOut" stdDeviation="2.0"/><feColorMatrix in="blurOut" result="blurOut2" type="matrix" values="0 0 0 0 0 0 0 0 0 0 0 0 0 0 0 0 0 0 .4 0"/><feOffset dx="4.0" dy="4.0" in="blurOut2" result="blurOut3"/><feBlend in="SourceGraphic" in2="blurOut3" mode="normal"/></filter></defs><g><text fill="#000000" font-family="sans-serif" font-size="18" lengthAdjust="spacingAndGlyphs" textLength="138" x="326.5" y="20.6279">Context 类结构图</text><polygon fill="#FBFB77" filter="url(#f78k8ja)" points="6,317.583,6,398.6006,316,398.6006,316,327.583,306,317.583,6,317.583" style="stroke: #A80036; stroke-width: 1.0;"/><line style="stroke: #A80036; stroke-width: 1.0;" x1="306" x2="306" y1="317.583" y2="327.583"/><line style="stroke: #A80036; stroke-width: 1.0;" x1="316" x2="306" y1="327.583" y2="327.583"/><text fill="#000000" font-family="sans-serif" font-size="13" lengthAdjust="spacingAndGlyphs" textLength="280" x="12" y="337.481">在ContextWrapper中包含了一个ContextImpl对象</text><text fill="#000000" font-family="sans-serif" font-size="13" lengthAdjust="spacingAndGlyphs" textLength="264" x="12" y="355.2354">用来桥接实现所有context需要的功能。所以在</text><text fill="#000000" font-family="sans-serif" font-size="13" lengthAdjust="spacingAndGlyphs" textLength="289" x="12" y="372.9897">ContextThemeWrapper中其他的一些特有的属性并</text><text fill="#000000" font-family="sans-serif" font-size="13" lengthAdjust="spacingAndGlyphs" textLength="199" x="12" y="390.7441">不是由这个ContextImpl成员实现的</text><!--class Context--><rect fill="#FEFECE" filter="url(#f78k8ja)" height="48" style="stroke: #A80036; stroke-width: 1.5;" width="74" x="453" y="32.583"/><ellipse cx="468" cy="48.583" fill="#A9DCDF" rx="11" ry="11" style="stroke: #A80036; stroke-width: 1.0;"/><path d="M468.375,48.5674 L466.3906,48.5674 L465.7969,51.083 Q465.7344,51.4268 465.7344,51.6143 Q465.7344,51.8799 465.8281,52.1455 Q465.9219,52.4111 465.9219,52.4111 L466.5938,52.4111 L466.5938,52.8174 L463.1406,52.8174 L463.1406,52.4111 L463.3281,52.4111 Q463.5938,52.4111 463.7969,52.2471 Q464,52.083 464.0625,51.6924 L466.6563,41.5205 L468.5313,40.9111 L471.1719,51.6924 Q471.3125,52.083 471.5078,52.2471 Q471.7031,52.4111 471.7031,52.4111 L472.1719,52.4111 L472.1719,52.8174 L468.3125,52.8174 L468.3125,52.4111 L468.5781,52.4111 Q468.9844,52.4111 469.0469,52.2471 Q469.1094,52.083 469.1094,51.958 Q469.1094,51.6924 469.0469,51.4893 L468.375,48.5674 Z M466.9844,42.6611 L466.9844,42.6611 L466.5313,48.1611 L468.3125,48.1611 L466.9844,42.6611 Z "/><text fill="#000000" font-family="sans-serif" font-size="12" font-style="italic" lengthAdjust="spacingAndGlyphs" textLength="42" x="482" y="54.1406">Context</text><line style="stroke: #A80036; stroke-width: 1.5;" x1="454" x2="526" y1="64.583" y2="64.583"/><line style="stroke: #A80036; stroke-width: 1.5;" x1="454" x2="526" y1="72.583" y2="72.583"/><!--class ContextImpl--><rect fill="#FEFECE" filter="url(#f78k8ja)" height="48" style="stroke: #A80036; stroke-width: 1.5;" width="97" x="513.5" y="175.083"/><ellipse cx="528.5" cy="191.083" fill="#ADD1B2" rx="11" ry="11" style="stroke: #A80036; stroke-width: 1.0;"/><path d="M527.0781,196.4424 Q525.2188,196.4424 524.125,195.0518 Q523.0313,193.6611 523.0313,190.6768 Q523.0313,188.1455 524.1953,186.4893 Q525.3594,184.833 527.3438,184.833 Q528.8125,184.833 529.2813,184.958 Q529.75,185.1611 529.75,185.1611 Q529.75,185.1611 529.75,185.0908 Q529.75,185.0205 530.3594,184.0986 L531.4063,187.7549 L530.0781,188.1611 Q529.6094,186.6143 528.9453,185.9502 Q528.2813,185.2861 527.2188,185.2861 Q526.8281,185.2861 526.0625,186.8174 Q525.2969,188.3486 525.2969,190.5986 Q525.2969,193.0674 525.9609,194.458 Q526.625,195.8486 527.1563,195.8486 Q528.2188,195.8486 528.9766,195.083 Q529.7344,194.3174 530.0781,192.6611 L531.4063,193.2549 Q531.0781,194.6611 530.1797,195.5518 Q529.2813,196.4424 527.0781,196.4424 Z "/><text fill="#000000" font-family="sans-serif" font-size="12" lengthAdjust="spacingAndGlyphs" textLength="65" x="542.5" y="196.6406">ContextImpl</text><line style="stroke: #A80036; stroke-width: 1.5;" x1="514.5" x2="609.5" y1="207.083" y2="207.083"/><line style="stroke: #A80036; stroke-width: 1.5;" x1="514.5" x2="609.5" y1="215.083" y2="215.083"/><!--class ContextWrapper--><rect fill="#FEFECE" filter="url(#f78k8ja)" height="48" style="stroke: #A80036; stroke-width: 1.5;" width="120" x="358" y="175.083"/><ellipse cx="373" cy="191.083" fill="#ADD1B2" rx="11" ry="11" style="stroke: #A80036; stroke-width: 1.0;"/><path d="M371.5781,196.4424 Q369.7188,196.4424 368.625,195.0518 Q367.5313,193.6611 367.5313,190.6768 Q367.5313,188.1455 368.6953,186.4893 Q369.8594,184.833 371.8438,184.833 Q373.3125,184.833 373.7813,184.958 Q374.25,185.1611 374.25,185.1611 Q374.25,185.1611 374.25,185.0908 Q374.25,185.0205 374.8594,184.0986 L375.9063,187.7549 L374.5781,188.1611 Q374.1094,186.6143 373.4453,185.9502 Q372.7813,185.2861 371.7188,185.2861 Q371.3281,185.2861 370.5625,186.8174 Q369.7969,188.3486 369.7969,190.5986 Q369.7969,193.0674 370.4609,194.458 Q371.125,195.8486 371.6563,195.8486 Q372.7188,195.8486 373.4766,195.083 Q374.2344,194.3174 374.5781,192.6611 L375.9063,193.2549 Q375.5781,194.6611 374.6797,195.5518 Q373.7813,196.4424 371.5781,196.4424 Z "/><text fill="#000000" font-family="sans-serif" font-size="12" lengthAdjust="spacingAndGlyphs" textLength="88" x="387" y="196.6406">ContextWrapper</text><line style="stroke: #A80036; stroke-width: 1.5;" x1="359" x2="477" y1="207.083" y2="207.083"/><line style="stroke: #A80036; stroke-width: 1.5;" x1="359" x2="477" y1="215.083" y2="215.083"/><!--class ContextThemeWrapper--><rect fill="#FEFECE" filter="url(#f78k8ja)" height="48" style="stroke: #A80036; stroke-width: 1.5;" width="159" x="185.5" y="458.583"/><ellipse cx="200.5" cy="474.583" fill="#ADD1B2" rx="11" ry="11" style="stroke: #A80036; stroke-width: 1.0;"/><path d="M199.0781,479.9424 Q197.2188,479.9424 196.125,478.5518 Q195.0313,477.1611 195.0313,474.1768 Q195.0313,471.6455 196.1953,469.9893 Q197.3594,468.333 199.3438,468.333 Q200.8125,468.333 201.2813,468.458 Q201.75,468.6611 201.75,468.6611 Q201.75,468.6611 201.75,468.5908 Q201.75,468.5205 202.3594,467.5986 L203.4063,471.2549 L202.0781,471.6611 Q201.6094,470.1143 200.9453,469.4502 Q200.2813,468.7861 199.2188,468.7861 Q198.8281,468.7861 198.0625,470.3174 Q197.2969,471.8486 197.2969,474.0986 Q197.2969,476.5674 197.9609,477.958 Q198.625,479.3486 199.1563,479.3486 Q200.2188,479.3486 200.9766,478.583 Q201.7344,477.8174 202.0781,476.1611 L203.4063,476.7549 Q203.0781,478.1611 202.1797,479.0518 Q201.2813,479.9424 199.0781,479.9424 Z "/><text fill="#000000" font-family="sans-serif" font-size="12" lengthAdjust="spacingAndGlyphs" textLength="127" x="214.5" y="480.1406">ContextThemeWrapper</text><line style="stroke: #A80036; stroke-width: 1.5;" x1="186.5" x2="343.5" y1="490.583" y2="490.583"/><line style="stroke: #A80036; stroke-width: 1.5;" x1="186.5" x2="343.5" y1="498.583" y2="498.583"/><!--class Application--><rect fill="#FEFECE" filter="url(#f78k8ja)" height="48" style="stroke: #A80036; stroke-width: 1.5;" width="92" x="422" y="334.083"/><ellipse cx="437" cy="350.083" fill="#ADD1B2" rx="11" ry="11" style="stroke: #A80036; stroke-width: 1.0;"/><path d="M435.5781,355.4424 Q433.7188,355.4424 432.625,354.0518 Q431.5313,352.6611 431.5313,349.6768 Q431.5313,347.1455 432.6953,345.4893 Q433.8594,343.833 435.8438,343.833 Q437.3125,343.833 437.7813,343.958 Q438.25,344.1611 438.25,344.1611 Q438.25,344.1611 438.25,344.0908 Q438.25,344.0205 438.8594,343.0986 L439.9063,346.7549 L438.5781,347.1611 Q438.1094,345.6143 437.4453,344.9502 Q436.7813,344.2861 435.7188,344.2861 Q435.3281,344.2861 434.5625,345.8174 Q433.7969,347.3486 433.7969,349.5986 Q433.7969,352.0674 434.4609,353.458 Q435.125,354.8486 435.6563,354.8486 Q436.7188,354.8486 437.4766,354.083 Q438.2344,353.3174 438.5781,351.6611 L439.9063,352.2549 Q439.5781,353.6611 438.6797,354.5518 Q437.7813,355.4424 435.5781,355.4424 Z "/><text fill="#000000" font-family="sans-serif" font-size="12" lengthAdjust="spacingAndGlyphs" textLength="60" x="451" y="355.6406">Application</text><line style="stroke: #A80036; stroke-width: 1.5;" x1="423" x2="513" y1="366.083" y2="366.083"/><line style="stroke: #A80036; stroke-width: 1.5;" x1="423" x2="513" y1="374.083" y2="374.083"/><!--class Service--><rect fill="#FEFECE" filter="url(#f78k8ja)" height="48" style="stroke: #A80036; stroke-width: 1.5;" width="72" x="549" y="334.083"/><ellipse cx="564" cy="350.083" fill="#ADD1B2" rx="11" ry="11" style="stroke: #A80036; stroke-width: 1.0;"/><path d="M562.5781,355.4424 Q560.7188,355.4424 559.625,354.0518 Q558.5313,352.6611 558.5313,349.6768 Q558.5313,347.1455 559.6953,345.4893 Q560.8594,343.833 562.8438,343.833 Q564.3125,343.833 564.7813,343.958 Q565.25,344.1611 565.25,344.1611 Q565.25,344.1611 565.25,344.0908 Q565.25,344.0205 565.8594,343.0986 L566.9063,346.7549 L565.5781,347.1611 Q565.1094,345.6143 564.4453,344.9502 Q563.7813,344.2861 562.7188,344.2861 Q562.3281,344.2861 561.5625,345.8174 Q560.7969,347.3486 560.7969,349.5986 Q560.7969,352.0674 561.4609,353.458 Q562.125,354.8486 562.6563,354.8486 Q563.7188,354.8486 564.4766,354.083 Q565.2344,353.3174 565.5781,351.6611 L566.9063,352.2549 Q566.5781,353.6611 565.6797,354.5518 Q564.7813,355.4424 562.5781,355.4424 Z "/><text fill="#000000" font-family="sans-serif" font-size="12" lengthAdjust="spacingAndGlyphs" textLength="40" x="578" y="355.6406">Service</text><line style="stroke: #A80036; stroke-width: 1.5;" x1="550" x2="620" y1="366.083" y2="366.083"/><line style="stroke: #A80036; stroke-width: 1.5;" x1="550" x2="620" y1="374.083" y2="374.083"/><!--class Activity--><rect fill="#FEFECE" filter="url(#f78k8ja)" height="48" style="stroke: #A80036; stroke-width: 1.5;" width="67" x="231.5" y="566.583"/><ellipse cx="246.5" cy="582.583" fill="#ADD1B2" rx="11" ry="11" style="stroke: #A80036; stroke-width: 1.0;"/><path d="M245.0781,587.9424 Q243.2188,587.9424 242.125,586.5518 Q241.0313,585.1611 241.0313,582.1768 Q241.0313,579.6455 242.1953,577.9893 Q243.3594,576.333 245.3438,576.333 Q246.8125,576.333 247.2813,576.458 Q247.75,576.6611 247.75,576.6611 Q247.75,576.6611 247.75,576.5908 Q247.75,576.5205 248.3594,575.5986 L249.4063,579.2549 L248.0781,579.6611 Q247.6094,578.1143 246.9453,577.4502 Q246.2813,576.7861 245.2188,576.7861 Q244.8281,576.7861 244.0625,578.3174 Q243.2969,579.8486 243.2969,582.0986 Q243.2969,584.5674 243.9609,585.958 Q244.625,587.3486 245.1563,587.3486 Q246.2188,587.3486 246.9766,586.583 Q247.7344,585.8174 248.0781,584.1611 L249.4063,584.7549 Q249.0781,586.1611 248.1797,587.0518 Q247.2813,587.9424 245.0781,587.9424 Z "/><text fill="#000000" font-family="sans-serif" font-size="12" lengthAdjust="spacingAndGlyphs" textLength="35" x="260.5" y="588.1406">Activity</text><line style="stroke: #A80036; stroke-width: 1.5;" x1="232.5" x2="297.5" y1="598.583" y2="598.583"/><line style="stroke: #A80036; stroke-width: 1.5;" x1="232.5" x2="297.5" y1="606.583" y2="606.583"/><polygon fill="#FBFB77" filter="url(#f78k8ja)" points="645.5,140.583,645.5,257.1094,772.5,257.1094,772.5,150.583,762.5,140.583,645.5,140.583" style="stroke: #A80036; stroke-width: 1.0;"/><polygon fill="#FBFB77" points="645.5,140.583,645.5,195.083,610.521,199.083,645.5,203.083,645.5,257.1094,772.5,257.1094,772.5,150.583,762.5,140.583,645.5,140.583" style="stroke: #A80036; stroke-width: 1.0;"/><line style="stroke: #A80036; stroke-width: 1.0;" x1="762.5" x2="762.5" y1="140.583" y2="150.583"/><line style="stroke: #A80036; stroke-width: 1.0;" x1="772.5" x2="762.5" y1="150.583" y2="150.583"/><text fill="#000000" font-family="sans-serif" font-size="13" lengthAdjust="spacingAndGlyphs" textLength="76" x="651.5" y="160.481">"PackageInfo</text><text fill="#000000" font-family="sans-serif" font-size="13" lengthAdjust="spacingAndGlyphs" textLength="105" x="651.5" y="178.2354">ResourceManager</text><text fill="#000000" font-family="sans-serif" font-size="13" lengthAdjust="spacingAndGlyphs" textLength="55" x="651.5" y="195.9897">Resource</text><text fill="#000000" font-family="sans-serif" font-size="13" lengthAdjust="spacingAndGlyphs" textLength="94" x="651.5" y="213.7441">ThemeResource</text><text fill="#000000" font-family="sans-serif" font-size="13" lengthAdjust="spacingAndGlyphs" textLength="39" x="651.5" y="231.4985">Theme</text><text fill="#000000" font-family="sans-serif" font-size="13" lengthAdjust="spacingAndGlyphs" textLength="106" x="651.5" y="249.2529">PackageManager"</text><path d="M380.079,223.249 C339.517,248.028 274.457,287.773 225.756,317.524 " fill="none" style="stroke: #A80036; stroke-width: 1.0; stroke-dasharray: 7.0,7.0;"/><path d="M194.766,398.855 C211.492,418.556 231.099,441.652 245.34,458.426 " fill="none" style="stroke: #A80036; stroke-width: 1.0; stroke-dasharray: 7.0,7.0;"/><path d="M511.081,98.721 C523.788,123.517 539.509,154.194 550.093,174.848 " fill="none" style="stroke: #A80036; stroke-width: 1.0;"/><polygon fill="none" points="504.781,101.775,501.889,80.784,517.24,95.39,504.781,101.775" style="stroke: #A80036; stroke-width: 1.0;"/><path d="M468.919,98.721 C456.212,123.517 440.491,154.194 429.907,174.848 " fill="none" style="stroke: #A80036; stroke-width: 1.0;"/><polygon fill="none" points="462.76,95.39,478.111,80.784,475.219,101.775,462.76,95.39" style="stroke: #A80036; stroke-width: 1.0;"/><path d="M478.188,199.083 C488.131,199.083 498.075,199.083 508.019,199.083 " fill="none" style="stroke: #A80036; stroke-width: 1.0; stroke-dasharray: 7.0,7.0;"/><polygon fill="#A80036" points="513.219,199.083,504.219,195.083,508.219,199.083,504.219,203.083,513.219,199.083" style="stroke: #A80036; stroke-width: 1.0;"/><path d="M404.22,242.286 C389.776,283.698 364.896,347.843 334,398.583 C320.746,420.35 302.101,442.414 287.533,458.317 " fill="none" style="stroke: #A80036; stroke-width: 1.0;"/><polygon fill="none" points="397.656,239.846,410.713,223.156,410.914,244.345,397.656,239.846" style="stroke: #A80036; stroke-width: 1.0;"/><path d="M431.481,242.413 C440.868,271.888 453.028,310.07 460.674,334.078 " fill="none" style="stroke: #A80036; stroke-width: 1.0;"/><polygon fill="none" points="424.777,244.43,425.378,223.249,438.117,240.182,424.777,244.43" style="stroke: #A80036; stroke-width: 1.0;"/><path d="M457.235,236.969 C489.218,267.037 533.389,308.562 560.53,334.078 " fill="none" style="stroke: #A80036; stroke-width: 1.0;"/><polygon fill="none" points="452.418,242.048,442.641,223.249,462.008,231.848,452.418,242.048" style="stroke: #A80036; stroke-width: 1.0;"/><path d="M265,526.6066 C265,540.1622 265,554.6211 265,566.2614 " fill="none" style="stroke: #A80036; stroke-width: 1.0;"/><polygon fill="none" points="258,526.5835,265,506.583,272,526.5834,258,526.5835" style="stroke: #A80036; stroke-width: 1.0;"/></g></svg>