<?xml version="1.0" encoding="UTF-8" standalone="yes"?><svg xmlns="http://www.w3.org/2000/svg" xmlns:xlink="http://www.w3.org/1999/xlink" height="599px" style="width:781px;height:599px;" version="1.1" viewBox="0 0 781 599" width="781px"><defs><filter height="300%" id="f41jmyl" width="300%" x="-1" y="-1"><feGaussianBlur result="blurOut" stdDeviation="2.0"/><feColorMatrix in="blurOut" result="blurOut2" type="matrix" values="0 0 0 0 0 0 0 0 0 0 0 0 0 0 0 0 0 0 .4 0"/><feOffset dx="4.0" dy="4.0" in="blurOut2" result="blurOut3"/><feBlend in="SourceGraphic" in2="blurOut3" mode="normal"/></filter></defs><g><polygon fill="#FBFB77" filter="url(#f41jmyl)" points="6,293,6,374.0176,316,374.0176,316,303,306,293,6,293" style="stroke: #A80036; stroke-width: 1.0;"/><line style="stroke: #A80036; stroke-width: 1.0;" x1="306" x2="306" y1="293" y2="303"/><line style="stroke: #A80036; stroke-width: 1.0;" x1="316" x2="306" y1="303" y2="303"/><text fill="#000000" font-family="sans-serif" font-size="13" lengthAdjust="spacingAndGlyphs" textLength="280" x="12" y="312.8979">在ContextWrapper中包含了一个ContextImpl对象</text><text fill="#000000" font-family="sans-serif" font-size="13" lengthAdjust="spacingAndGlyphs" textLength="264" x="12" y="330.6523">用来桥接实现所有context需要的功能。所以在</text><text fill="#000000" font-family="sans-serif" font-size="13" lengthAdjust="spacingAndGlyphs" textLength="289" x="12" y="348.4067">ContextThemeWrapper中其他的一些特有的属性并</text><text fill="#000000" font-family="sans-serif" font-size="13" lengthAdjust="spacingAndGlyphs" textLength="199" x="12" y="366.1611">不是由这个ContextImpl成员实现的</text><!--class Context--><rect fill="#FEFECE" filter="url(#f41jmyl)" height="48" style="stroke: #A80036; stroke-width: 1.5;" width="74" x="453" y="8"/><ellipse cx="468" cy="24" fill="#A9DCDF" rx="11" ry="11" style="stroke: #A80036; stroke-width: 1.0;"/><path d="M468.375,23.9844 L466.3906,23.9844 L465.7969,26.5 Q465.7344,26.8438 465.7344,27.0313 Q465.7344,27.2969 465.8281,27.5625 Q465.9219,27.8281 465.9219,27.8281 L466.5938,27.8281 L466.5938,28.2344 L463.1406,28.2344 L463.1406,27.8281 L463.3281,27.8281 Q463.5938,27.8281 463.7969,27.6641 Q464,27.5 464.0625,27.1094 L466.6563,16.9375 L468.5313,16.3281 L471.1719,27.1094 Q471.3125,27.5 471.5078,27.6641 Q471.7031,27.8281 471.7031,27.8281 L472.1719,27.8281 L472.1719,28.2344 L468.3125,28.2344 L468.3125,27.8281 L468.5781,27.8281 Q468.9844,27.8281 469.0469,27.6641 Q469.1094,27.5 469.1094,27.375 Q469.1094,27.1094 469.0469,26.9063 L468.375,23.9844 Z M466.9844,18.0781 L466.9844,18.0781 L466.5313,23.5781 L468.3125,23.5781 L466.9844,18.0781 Z "/><text fill="#000000" font-family="sans-serif" font-size="12" font-style="italic" lengthAdjust="spacingAndGlyphs" textLength="42" x="482" y="29.5576">Context</text><line style="stroke: #A80036; stroke-width: 1.5;" x1="454" x2="526" y1="40" y2="40"/><line style="stroke: #A80036; stroke-width: 1.5;" x1="454" x2="526" y1="48" y2="48"/><!--class ContextImpl--><rect fill="#FEFECE" filter="url(#f41jmyl)" height="48" style="stroke: #A80036; stroke-width: 1.5;" width="97" x="513.5" y="150.5"/><ellipse cx="528.5" cy="166.5" fill="#ADD1B2" rx="11" ry="11" style="stroke: #A80036; stroke-width: 1.0;"/><path d="M527.0781,171.8594 Q525.2188,171.8594 524.125,170.4688 Q523.0313,169.0781 523.0313,166.0938 Q523.0313,163.5625 524.1953,161.9063 Q525.3594,160.25 527.3438,160.25 Q528.8125,160.25 529.2813,160.375 Q529.75,160.5781 529.75,160.5781 Q529.75,160.5781 529.75,160.5078 Q529.75,160.4375 530.3594,159.5156 L531.4063,163.1719 L530.0781,163.5781 Q529.6094,162.0313 528.9453,161.3672 Q528.2813,160.7031 527.2188,160.7031 Q526.8281,160.7031 526.0625,162.2344 Q525.2969,163.7656 525.2969,166.0156 Q525.2969,168.4844 525.9609,169.875 Q526.625,171.2656 527.1563,171.2656 Q528.2188,171.2656 528.9766,170.5 Q529.7344,169.7344 530.0781,168.0781 L531.4063,168.6719 Q531.0781,170.0781 530.1797,170.9688 Q529.2813,171.8594 527.0781,171.8594 Z "/><text fill="#000000" font-family="sans-serif" font-size="12" lengthAdjust="spacingAndGlyphs" textLength="65" x="542.5" y="172.0576">ContextImpl</text><line style="stroke: #A80036; stroke-width: 1.5;" x1="514.5" x2="609.5" y1="182.5" y2="182.5"/><line style="stroke: #A80036; stroke-width: 1.5;" x1="514.5" x2="609.5" y1="190.5" y2="190.5"/><!--class ContextWrapper--><rect fill="#FEFECE" filter="url(#f41jmyl)" height="48" style="stroke: #A80036; stroke-width: 1.5;" width="120" x="358" y="150.5"/><ellipse cx="373" cy="166.5" fill="#ADD1B2" rx="11" ry="11" style="stroke: #A80036; stroke-width: 1.0;"/><path d="M371.5781,171.8594 Q369.7188,171.8594 368.625,170.4688 Q367.5313,169.0781 367.5313,166.0938 Q367.5313,163.5625 368.6953,161.9063 Q369.8594,160.25 371.8438,160.25 Q373.3125,160.25 373.7813,160.375 Q374.25,160.5781 374.25,160.5781 Q374.25,160.5781 374.25,160.5078 Q374.25,160.4375 374.8594,159.5156 L375.9063,163.1719 L374.5781,163.5781 Q374.1094,162.0313 373.4453,161.3672 Q372.7813,160.7031 371.7188,160.7031 Q371.3281,160.7031 370.5625,162.2344 Q369.7969,163.7656 369.7969,166.0156 Q369.7969,168.4844 370.4609,169.875 Q371.125,171.2656 371.6563,171.2656 Q372.7188,171.2656 373.4766,170.5 Q374.2344,169.7344 374.5781,168.0781 L375.9063,168.6719 Q375.5781,170.0781 374.6797,170.9688 Q373.7813,171.8594 371.5781,171.8594 Z "/><text fill="#000000" font-family="sans-serif" font-size="12" lengthAdjust="spacingAndGlyphs" textLength="88" x="387" y="172.0576">ContextWrapper</text><line style="stroke: #A80036; stroke-width: 1.5;" x1="359" x2="477" y1="182.5" y2="182.5"/><line style="stroke: #A80036; stroke-width: 1.5;" x1="359" x2="477" y1="190.5" y2="190.5"/><!--class ContextThemeWrapper--><rect fill="#FEFECE" filter="url(#f41jmyl)" height="48" style="stroke: #A80036; stroke-width: 1.5;" width="159" x="185.5" y="434"/><ellipse cx="200.5" cy="450" fill="#ADD1B2" rx="11" ry="11" style="stroke: #A80036; stroke-width: 1.0;"/><path d="M199.0781,455.3594 Q197.2188,455.3594 196.125,453.9688 Q195.0313,452.5781 195.0313,449.5938 Q195.0313,447.0625 196.1953,445.4063 Q197.3594,443.75 199.3438,443.75 Q200.8125,443.75 201.2813,443.875 Q201.75,444.0781 201.75,444.0781 Q201.75,444.0781 201.75,444.0078 Q201.75,443.9375 202.3594,443.0156 L203.4063,446.6719 L202.0781,447.0781 Q201.6094,445.5313 200.9453,444.8672 Q200.2813,444.2031 199.2188,444.2031 Q198.8281,444.2031 198.0625,445.7344 Q197.2969,447.2656 197.2969,449.5156 Q197.2969,451.9844 197.9609,453.375 Q198.625,454.7656 199.1563,454.7656 Q200.2188,454.7656 200.9766,454 Q201.7344,453.2344 202.0781,451.5781 L203.4063,452.1719 Q203.0781,453.5781 202.1797,454.4688 Q201.2813,455.3594 199.0781,455.3594 Z "/><text fill="#000000" font-family="sans-serif" font-size="12" lengthAdjust="spacingAndGlyphs" textLength="127" x="214.5" y="455.5576">ContextThemeWrapper</text><line style="stroke: #A80036; stroke-width: 1.5;" x1="186.5" x2="343.5" y1="466" y2="466"/><line style="stroke: #A80036; stroke-width: 1.5;" x1="186.5" x2="343.5" y1="474" y2="474"/><!--class Application--><rect fill="#FEFECE" filter="url(#f41jmyl)" height="48" style="stroke: #A80036; stroke-width: 1.5;" width="92" x="422" y="309.5"/><ellipse cx="437" cy="325.5" fill="#ADD1B2" rx="11" ry="11" style="stroke: #A80036; stroke-width: 1.0;"/><path d="M435.5781,330.8594 Q433.7188,330.8594 432.625,329.4688 Q431.5313,328.0781 431.5313,325.0938 Q431.5313,322.5625 432.6953,320.9063 Q433.8594,319.25 435.8438,319.25 Q437.3125,319.25 437.7813,319.375 Q438.25,319.5781 438.25,319.5781 Q438.25,319.5781 438.25,319.5078 Q438.25,319.4375 438.8594,318.5156 L439.9063,322.1719 L438.5781,322.5781 Q438.1094,321.0313 437.4453,320.3672 Q436.7813,319.7031 435.7188,319.7031 Q435.3281,319.7031 434.5625,321.2344 Q433.7969,322.7656 433.7969,325.0156 Q433.7969,327.4844 434.4609,328.875 Q435.125,330.2656 435.6563,330.2656 Q436.7188,330.2656 437.4766,329.5 Q438.2344,328.7344 438.5781,327.0781 L439.9063,327.6719 Q439.5781,329.0781 438.6797,329.9688 Q437.7813,330.8594 435.5781,330.8594 Z "/><text fill="#000000" font-family="sans-serif" font-size="12" lengthAdjust="spacingAndGlyphs" textLength="60" x="451" y="331.0576">Application</text><line style="stroke: #A80036; stroke-width: 1.5;" x1="423" x2="513" y1="341.5" y2="341.5"/><line style="stroke: #A80036; stroke-width: 1.5;" x1="423" x2="513" y1="349.5" y2="349.5"/><!--class Service--><rect fill="#FEFECE" filter="url(#f41jmyl)" height="48" style="stroke: #A80036; stroke-width: 1.5;" width="72" x="549" y="309.5"/><ellipse cx="564" cy="325.5" fill="#ADD1B2" rx="11" ry="11" style="stroke: #A80036; stroke-width: 1.0;"/><path d="M562.5781,330.8594 Q560.7188,330.8594 559.625,329.4688 Q558.5313,328.0781 558.5313,325.0938 Q558.5313,322.5625 559.6953,320.9063 Q560.8594,319.25 562.8438,319.25 Q564.3125,319.25 564.7813,319.375 Q565.25,319.5781 565.25,319.5781 Q565.25,319.5781 565.25,319.5078 Q565.25,319.4375 565.8594,318.5156 L566.9063,322.1719 L565.5781,322.5781 Q565.1094,321.0313 564.4453,320.3672 Q563.7813,319.7031 562.7188,319.7031 Q562.3281,319.7031 561.5625,321.2344 Q560.7969,322.7656 560.7969,325.0156 Q560.7969,327.4844 561.4609,328.875 Q562.125,330.2656 562.6563,330.2656 Q563.7188,330.2656 564.4766,329.5 Q565.2344,328.7344 565.5781,327.0781 L566.9063,327.6719 Q566.5781,329.0781 565.6797,329.9688 Q564.7813,330.8594 562.5781,330.8594 Z "/><text fill="#000000" font-family="sans-serif" font-size="12" lengthAdjust="spacingAndGlyphs" textLength="40" x="578" y="331.0576">Service</text><line style="stroke: #A80036; stroke-width: 1.5;" x1="550" x2="620" y1="341.5" y2="341.5"/><line style="stroke: #A80036; stroke-width: 1.5;" x1="550" x2="620" y1="349.5" y2="349.5"/><!--class Activity--><rect fill="#FEFECE" filter="url(#f41jmyl)" height="48" style="stroke: #A80036; stroke-width: 1.5;" width="67" x="231.5" y="542"/><ellipse cx="246.5" cy="558" fill="#ADD1B2" rx="11" ry="11" style="stroke: #A80036; stroke-width: 1.0;"/><path d="M245.0781,563.3594 Q243.2188,563.3594 242.125,561.9688 Q241.0313,560.5781 241.0313,557.5938 Q241.0313,555.0625 242.1953,553.4063 Q243.3594,551.75 245.3438,551.75 Q246.8125,551.75 247.2813,551.875 Q247.75,552.0781 247.75,552.0781 Q247.75,552.0781 247.75,552.0078 Q247.75,551.9375 248.3594,551.0156 L249.4063,554.6719 L248.0781,555.0781 Q247.6094,553.5313 246.9453,552.8672 Q246.2813,552.2031 245.2188,552.2031 Q244.8281,552.2031 244.0625,553.7344 Q243.2969,555.2656 243.2969,557.5156 Q243.2969,559.9844 243.9609,561.375 Q244.625,562.7656 245.1563,562.7656 Q246.2188,562.7656 246.9766,562 Q247.7344,561.2344 248.0781,559.5781 L249.4063,560.1719 Q249.0781,561.5781 248.1797,562.4688 Q247.2813,563.3594 245.0781,563.3594 Z "/><text fill="#000000" font-family="sans-serif" font-size="12" lengthAdjust="spacingAndGlyphs" textLength="35" x="260.5" y="563.5576">Activity</text><line style="stroke: #A80036; stroke-width: 1.5;" x1="232.5" x2="297.5" y1="574" y2="574"/><line style="stroke: #A80036; stroke-width: 1.5;" x1="232.5" x2="297.5" y1="582" y2="582"/><polygon fill="#FBFB77" filter="url(#f41jmyl)" points="645.5,116,645.5,232.5264,772.5,232.5264,772.5,126,762.5,116,645.5,116" style="stroke: #A80036; stroke-width: 1.0;"/><polygon fill="#FBFB77" points="645.5,116,645.5,170.5,610.521,174.5,645.5,178.5,645.5,232.5264,772.5,232.5264,772.5,126,762.5,116,645.5,116" style="stroke: #A80036; stroke-width: 1.0;"/><line style="stroke: #A80036; stroke-width: 1.0;" x1="762.5" x2="762.5" y1="116" y2="126"/><line style="stroke: #A80036; stroke-width: 1.0;" x1="772.5" x2="762.5" y1="126" y2="126"/><text fill="#000000" font-family="sans-serif" font-size="13" lengthAdjust="spacingAndGlyphs" textLength="76" x="651.5" y="135.8979">"PackageInfo</text><text fill="#000000" font-family="sans-serif" font-size="13" lengthAdjust="spacingAndGlyphs" textLength="105" x="651.5" y="153.6523">ResourceManager</text><text fill="#000000" font-family="sans-serif" font-size="13" lengthAdjust="spacingAndGlyphs" textLength="55" x="651.5" y="171.4067">Resource</text><text fill="#000000" font-family="sans-serif" font-size="13" lengthAdjust="spacingAndGlyphs" textLength="94" x="651.5" y="189.1611">ThemeResource</text><text fill="#000000" font-family="sans-serif" font-size="13" lengthAdjust="spacingAndGlyphs" textLength="39" x="651.5" y="206.9155">Theme</text><text fill="#000000" font-family="sans-serif" font-size="13" lengthAdjust="spacingAndGlyphs" textLength="106" x="651.5" y="224.6699">PackageManager"</text><path d="M380.079,198.666 C339.517,223.445 274.457,263.19 225.756,292.941 " fill="none" style="stroke: #A80036; stroke-width: 1.0; stroke-dasharray: 7.0,7.0;"/><path d="M194.766,374.272 C211.492,393.973 231.099,417.069 245.34,433.843 " fill="none" style="stroke: #A80036; stroke-width: 1.0; stroke-dasharray: 7.0,7.0;"/><path d="M511.081,74.138 C523.788,98.934 539.509,129.611 550.093,150.265 " fill="none" style="stroke: #A80036; stroke-width: 1.0;"/><polygon fill="none" points="504.781,77.192,501.889,56.201,517.24,70.807,504.781,77.192" style="stroke: #A80036; stroke-width: 1.0;"/><path d="M468.919,74.138 C456.212,98.934 440.491,129.611 429.907,150.265 " fill="none" style="stroke: #A80036; stroke-width: 1.0;"/><polygon fill="none" points="462.76,70.807,478.111,56.201,475.219,77.192,462.76,70.807" style="stroke: #A80036; stroke-width: 1.0;"/><path d="M478.188,174.5 C488.131,174.5 498.075,174.5 508.019,174.5 " fill="none" style="stroke: #A80036; stroke-width: 1.0; stroke-dasharray: 7.0,7.0;"/><polygon fill="#A80036" points="513.219,174.5,504.219,170.5,508.219,174.5,504.219,178.5,513.219,174.5" style="stroke: #A80036; stroke-width: 1.0;"/><path d="M404.22,217.703 C389.776,259.115 364.896,323.26 334,374 C320.746,395.767 302.101,417.831 287.533,433.734 " fill="none" style="stroke: #A80036; stroke-width: 1.0;"/><polygon fill="none" points="397.656,215.263,410.713,198.573,410.914,219.762,397.656,215.263" style="stroke: #A80036; stroke-width: 1.0;"/><path d="M431.481,217.83 C440.868,247.305 453.028,285.487 460.674,309.495 " fill="none" style="stroke: #A80036; stroke-width: 1.0;"/><polygon fill="none" points="424.777,219.847,425.378,198.666,438.117,215.599,424.777,219.847" style="stroke: #A80036; stroke-width: 1.0;"/><path d="M457.235,212.386 C489.218,242.454 533.389,283.979 560.53,309.495 " fill="none" style="stroke: #A80036; stroke-width: 1.0;"/><polygon fill="none" points="452.418,217.465,442.641,198.666,462.008,207.265,452.418,217.465" style="stroke: #A80036; stroke-width: 1.0;"/><path d="M265,502.0236 C265,515.5792 265,530.0381 265,541.6784 " fill="none" style="stroke: #A80036; stroke-width: 1.0;"/><polygon fill="none" points="258,502.0005,265,482,272,502.0004,258,502.0005" style="stroke: #A80036; stroke-width: 1.0;"/></g></svg>