<?xml version="1.0" encoding="UTF-8" standalone="yes"?><svg xmlns="http://www.w3.org/2000/svg" xmlns:xlink="http://www.w3.org/1999/xlink" height="758px" style="width:1215px;height:758px;" version="1.1" viewBox="0 0 1215 758" width="1215px"><defs><filter height="300%" id="fgnuaqh" width="300%" x="-1" y="-1"><feGaussianBlur result="blurOut" stdDeviation="2.0"/><feColorMatrix in="blurOut" result="blurOut2" type="matrix" values="0 0 0 0 0 0 0 0 0 0 0 0 0 0 0 0 0 0 .4 0"/><feOffset dx="4.0" dy="4.0" in="blurOut2" result="blurOut3"/><feBlend in="SourceGraphic" in2="blurOut3" mode="normal"/></filter></defs><g><text fill="#000000" font-family="sans-serif" font-size="18" lengthAdjust="spacingAndGlyphs" textLength="138" x="543" y="20.6279">Context 类结构图</text><!--class Context--><rect fill="#FEFECE" filter="url(#fgnuaqh)" height="138.1377" style="stroke: #A80036; stroke-width: 1.5;" width="224" x="327.5" y="32.583"/><ellipse cx="414.25" cy="48.583" fill="#A9DCDF" rx="11" ry="11" style="stroke: #A80036; stroke-width: 1.0;"/><path d="M414.625,48.5674 L412.6406,48.5674 L412.0469,51.083 Q411.9844,51.4268 411.9844,51.6143 Q411.9844,51.8799 412.0781,52.1455 Q412.1719,52.4111 412.1719,52.4111 L412.8438,52.4111 L412.8438,52.8174 L409.3906,52.8174 L409.3906,52.4111 L409.5781,52.4111 Q409.8438,52.4111 410.0469,52.2471 Q410.25,52.083 410.3125,51.6924 L412.9063,41.5205 L414.7813,40.9111 L417.4219,51.6924 Q417.5625,52.083 417.7578,52.2471 Q417.9531,52.4111 417.9531,52.4111 L418.4219,52.4111 L418.4219,52.8174 L414.5625,52.8174 L414.5625,52.4111 L414.8281,52.4111 Q415.2344,52.4111 415.2969,52.2471 Q415.3594,52.083 415.3594,51.958 Q415.3594,51.6924 415.2969,51.4893 L414.625,48.5674 Z M413.2344,42.6611 L413.2344,42.6611 L412.7813,48.1611 L414.5625,48.1611 L413.2344,42.6611 Z "/><text fill="#000000" font-family="sans-serif" font-size="12" font-style="italic" lengthAdjust="spacingAndGlyphs" textLength="42" x="434.75" y="54.1406">Context</text><line style="stroke: #A80036; stroke-width: 1.5;" x1="328.5" x2="550.5" y1="64.583" y2="64.583"/><line style="stroke: #A80036; stroke-width: 1.5;" x1="328.5" x2="550.5" y1="72.583" y2="72.583"/><ellipse cx="338.5" cy="85.5945" fill="#84BE84" rx="3" ry="3" style="stroke: #038048; stroke-width: 1.0;"/><text fill="#000000" font-family="sans-serif" font-size="11" font-style="italic" lengthAdjust="spacingAndGlyphs" textLength="131" x="347.5" y="89.189">AssetManager getAssets()</text><ellipse cx="338.5" cy="100.6174" fill="#84BE84" rx="3" ry="3" style="stroke: #038048; stroke-width: 1.0;"/><text fill="#000000" font-family="sans-serif" font-size="11" font-style="italic" lengthAdjust="spacingAndGlyphs" textLength="134" x="347.5" y="104.2119">Resources getResources()</text><ellipse cx="338.5" cy="115.6404" fill="#84BE84" rx="3" ry="3" style="stroke: #038048; stroke-width: 1.0;"/><text fill="#000000" font-family="sans-serif" font-size="11" font-style="italic" lengthAdjust="spacingAndGlyphs" textLength="198" x="347.5" y="119.2349">PackageManager getPackageManager()</text><ellipse cx="338.5" cy="130.6633" fill="#84BE84" rx="3" ry="3" style="stroke: #038048; stroke-width: 1.0;"/><text fill="#000000" font-family="sans-serif" font-size="11" font-style="italic" lengthAdjust="spacingAndGlyphs" textLength="190" x="347.5" y="134.2578">ContentResolver getContentResolver()</text><ellipse cx="338.5" cy="145.6863" fill="#84BE84" rx="3" ry="3" style="stroke: #038048; stroke-width: 1.0;"/><text fill="#000000" font-family="sans-serif" font-size="11" font-style="italic" lengthAdjust="spacingAndGlyphs" textLength="118" x="347.5" y="149.2808">Looper getMainLooper()</text><ellipse cx="338.5" cy="160.7092" fill="#84BE84" rx="3" ry="3" style="stroke: #038048; stroke-width: 1.0;"/><text fill="#000000" font-family="sans-serif" font-size="11" font-style="italic" lengthAdjust="spacingAndGlyphs" textLength="157" x="347.5" y="164.3037">Context getApplicationContext()</text><!--class ContextImpl--><rect fill="#FEFECE" filter="url(#fgnuaqh)" height="213.2524" style="stroke: #A80036; stroke-width: 1.5;" width="218" x="440.5" y="230.583"/><ellipse cx="512.75" cy="246.583" fill="#ADD1B2" rx="11" ry="11" style="stroke: #A80036; stroke-width: 1.0;"/><path d="M511.3281,251.9424 Q509.4688,251.9424 508.375,250.5518 Q507.2813,249.1611 507.2813,246.1768 Q507.2813,243.6455 508.4453,241.9893 Q509.6094,240.333 511.5938,240.333 Q513.0625,240.333 513.5313,240.458 Q514,240.6611 514,240.6611 Q514,240.6611 514,240.5908 Q514,240.5205 514.6094,239.5986 L515.6563,243.2549 L514.3281,243.6611 Q513.8594,242.1143 513.1953,241.4502 Q512.5313,240.7861 511.4688,240.7861 Q511.0781,240.7861 510.3125,242.3174 Q509.5469,243.8486 509.5469,246.0986 Q509.5469,248.5674 510.2109,249.958 Q510.875,251.3486 511.4063,251.3486 Q512.4688,251.3486 513.2266,250.583 Q513.9844,249.8174 514.3281,248.1611 L515.6563,248.7549 Q515.3281,250.1611 514.4297,251.0518 Q513.5313,251.9424 511.3281,251.9424 Z "/><text fill="#000000" font-family="sans-serif" font-size="12" lengthAdjust="spacingAndGlyphs" textLength="65" x="533.25" y="252.1406">ContextImpl</text><line style="stroke: #A80036; stroke-width: 1.5;" x1="441.5" x2="657.5" y1="262.583" y2="262.583"/><polygon fill="none" points="451.5,271.5945,447.5,277.5945,455.5,277.5945" style="stroke: #1963A0; stroke-width: 1.0;"/><text fill="#000000" font-family="sans-serif" font-size="11" lengthAdjust="spacingAndGlyphs" textLength="160" x="460.5" y="279.189">final ActivityThread mMainThread</text><polygon fill="none" points="451.5,286.6174,447.5,292.6174,455.5,292.6174" style="stroke: #1963A0; stroke-width: 1.0;"/><text fill="#000000" font-family="sans-serif" font-size="11" lengthAdjust="spacingAndGlyphs" textLength="148" x="460.5" y="294.2119">final LoadedApk mPackageInfo</text><rect fill="none" height="6" style="stroke: #C82930; stroke-width: 1.0;" width="6" x="448.5" y="302.6404"/><text fill="#000000" font-family="sans-serif" font-size="11" lengthAdjust="spacingAndGlyphs" textLength="140" x="460.5" y="309.2349">final Resources mResources</text><rect fill="none" height="6" style="stroke: #C82930; stroke-width: 1.0;" width="6" x="448.5" y="317.6633"/><text fill="#000000" font-family="sans-serif" font-size="11" lengthAdjust="spacingAndGlyphs" textLength="112" x="460.5" y="324.2578">Context mOuterContext</text><rect fill="none" height="6" style="stroke: #C82930; stroke-width: 1.0;" width="6" x="448.5" y="332.6863"/><text fill="#000000" font-family="sans-serif" font-size="11" lengthAdjust="spacingAndGlyphs" textLength="177" x="460.5" y="339.2808">PackageManager mPackageManager</text><line style="stroke: #A80036; stroke-width: 1.5;" x1="441.5" x2="657.5" y1="345.6978" y2="345.6978"/><ellipse cx="451.5" cy="358.7092" fill="#84BE84" rx="3" ry="3" style="stroke: #038048; stroke-width: 1.0;"/><text fill="#000000" font-family="sans-serif" font-size="11" lengthAdjust="spacingAndGlyphs" textLength="132" x="460.5" y="362.3037">AssetManager getAssets()</text><ellipse cx="451.5" cy="373.7322" fill="#84BE84" rx="3" ry="3" style="stroke: #038048; stroke-width: 1.0;"/><text fill="#000000" font-family="sans-serif" font-size="11" lengthAdjust="spacingAndGlyphs" textLength="132" x="460.5" y="377.3267">Resources getResources()</text><ellipse cx="451.5" cy="388.7551" fill="#84BE84" rx="3" ry="3" style="stroke: #038048; stroke-width: 1.0;"/><text fill="#000000" font-family="sans-serif" font-size="11" lengthAdjust="spacingAndGlyphs" textLength="192" x="460.5" y="392.3496">PackageManager getPackageManager()</text><ellipse cx="451.5" cy="403.7781" fill="#84BE84" rx="3" ry="3" style="stroke: #038048; stroke-width: 1.0;"/><text fill="#000000" font-family="sans-serif" font-size="11" lengthAdjust="spacingAndGlyphs" textLength="186" x="460.5" y="407.3726">ContentResolver getContentResolver()</text><ellipse cx="451.5" cy="418.801" fill="#84BE84" rx="3" ry="3" style="stroke: #038048; stroke-width: 1.0;"/><text fill="#000000" font-family="sans-serif" font-size="11" lengthAdjust="spacingAndGlyphs" textLength="116" x="460.5" y="422.3955">Looper getMainLooper()</text><ellipse cx="451.5" cy="433.824" fill="#84BE84" rx="3" ry="3" style="stroke: #038048; stroke-width: 1.0;"/><text fill="#000000" font-family="sans-serif" font-size="11" lengthAdjust="spacingAndGlyphs" textLength="153" x="460.5" y="437.4185">Context getApplicationContext()</text><!--class ContextWrapper--><rect fill="#FEFECE" filter="url(#fgnuaqh)" height="78.0459" style="stroke: #A80036; stroke-width: 1.5;" width="149" x="256" y="298.083"/><ellipse cx="284.05" cy="314.083" fill="#ADD1B2" rx="11" ry="11" style="stroke: #A80036; stroke-width: 1.0;"/><path d="M282.6281,319.4424 Q280.7688,319.4424 279.675,318.0518 Q278.5813,316.6611 278.5813,313.6768 Q278.5813,311.1455 279.7453,309.4893 Q280.9094,307.833 282.8938,307.833 Q284.3625,307.833 284.8313,307.958 Q285.3,308.1611 285.3,308.1611 Q285.3,308.1611 285.3,308.0908 Q285.3,308.0205 285.9094,307.0986 L286.9563,310.7549 L285.6281,311.1611 Q285.1594,309.6143 284.4953,308.9502 Q283.8313,308.2861 282.7688,308.2861 Q282.3781,308.2861 281.6125,309.8174 Q280.8469,311.3486 280.8469,313.5986 Q280.8469,316.0674 281.5109,317.458 Q282.175,318.8486 282.7063,318.8486 Q283.7688,318.8486 284.5266,318.083 Q285.2844,317.3174 285.6281,315.6611 L286.9563,316.2549 Q286.6281,317.6611 285.7297,318.5518 Q284.8313,319.4424 282.6281,319.4424 Z "/><text fill="#000000" font-family="sans-serif" font-size="12" lengthAdjust="spacingAndGlyphs" textLength="88" x="300.95" y="319.6406">ContextWrapper</text><line style="stroke: #A80036; stroke-width: 1.5;" x1="257" x2="404" y1="330.083" y2="330.083"/><polygon fill="none" points="267,339.0945,263,345.0945,271,345.0945" style="stroke: #1963A0; stroke-width: 1.0;"/><text fill="#000000" font-family="sans-serif" font-size="11" lengthAdjust="spacingAndGlyphs" textLength="73" x="276" y="346.689">Context mBase</text><line style="stroke: #A80036; stroke-width: 1.5;" x1="257" x2="404" y1="353.106" y2="353.106"/><polygon fill="#FFFF44" points="267,361.1174,271,365.1174,267,369.1174,263,365.1174" style="stroke: #B38D22; stroke-width: 1.0;"/><text fill="#000000" font-family="sans-serif" font-size="11" lengthAdjust="spacingAndGlyphs" textLength="123" x="276" y="369.7119">void attachBaseContext()</text><!--class ContextThemeWrapper--><rect fill="#FEFECE" filter="url(#fgnuaqh)" height="108.0918" style="stroke: #A80036; stroke-width: 1.5;" width="159" x="6" y="518.583"/><ellipse cx="21" cy="534.583" fill="#ADD1B2" rx="11" ry="11" style="stroke: #A80036; stroke-width: 1.0;"/><path d="M19.5781,539.9424 Q17.7188,539.9424 16.625,538.5518 Q15.5313,537.1611 15.5313,534.1768 Q15.5313,531.6455 16.6953,529.9893 Q17.8594,528.333 19.8438,528.333 Q21.3125,528.333 21.7813,528.458 Q22.25,528.6611 22.25,528.6611 Q22.25,528.6611 22.25,528.5908 Q22.25,528.5205 22.8594,527.5986 L23.9063,531.2549 L22.5781,531.6611 Q22.1094,530.1143 21.4453,529.4502 Q20.7813,528.7861 19.7188,528.7861 Q19.3281,528.7861 18.5625,530.3174 Q17.7969,531.8486 17.7969,534.0986 Q17.7969,536.5674 18.4609,537.958 Q19.125,539.3486 19.6563,539.3486 Q20.7188,539.3486 21.4766,538.583 Q22.2344,537.8174 22.5781,536.1611 L23.9063,536.7549 Q23.5781,538.1611 22.6797,539.0518 Q21.7813,539.9424 19.5781,539.9424 Z "/><text fill="#000000" font-family="sans-serif" font-size="12" lengthAdjust="spacingAndGlyphs" textLength="127" x="35" y="540.1406">ContextThemeWrapper</text><line style="stroke: #A80036; stroke-width: 1.5;" x1="7" x2="164" y1="550.583" y2="550.583"/><rect fill="none" height="6" style="stroke: #C82930; stroke-width: 1.0;" width="6" x="14" y="560.5945"/><text fill="#000000" font-family="sans-serif" font-size="11" lengthAdjust="spacingAndGlyphs" textLength="101" x="26" y="567.189">int mThemeResource</text><rect fill="none" height="6" style="stroke: #C82930; stroke-width: 1.0;" width="6" x="14" y="575.6174"/><text fill="#000000" font-family="sans-serif" font-size="11" lengthAdjust="spacingAndGlyphs" textLength="131" x="26" y="582.2119">Resources.Theme mTheme</text><rect fill="none" height="6" style="stroke: #C82930; stroke-width: 1.0;" width="6" x="14" y="590.6404"/><text fill="#000000" font-family="sans-serif" font-size="11" lengthAdjust="spacingAndGlyphs" textLength="102" x="26" y="597.2349">LayoutInflate mInflate</text><line style="stroke: #A80036; stroke-width: 1.5;" x1="7" x2="164" y1="603.6519" y2="603.6519"/><ellipse cx="17" cy="616.6633" fill="#84BE84" rx="3" ry="3" style="stroke: #038048; stroke-width: 1.0;"/><text fill="#000000" font-family="sans-serif" font-size="11" lengthAdjust="spacingAndGlyphs" textLength="116" x="26" y="620.2578">void setTheme(int resid)</text><!--class Application--><rect fill="#FEFECE" filter="url(#fgnuaqh)" height="78.0459" style="stroke: #A80036; stroke-width: 1.5;" width="163" x="200" y="533.583"/><ellipse cx="247.25" cy="549.583" fill="#ADD1B2" rx="11" ry="11" style="stroke: #A80036; stroke-width: 1.0;"/><path d="M245.8281,554.9424 Q243.9688,554.9424 242.875,553.5518 Q241.7813,552.1611 241.7813,549.1768 Q241.7813,546.6455 242.9453,544.9893 Q244.1094,543.333 246.0938,543.333 Q247.5625,543.333 248.0313,543.458 Q248.5,543.6611 248.5,543.6611 Q248.5,543.6611 248.5,543.5908 Q248.5,543.5205 249.1094,542.5986 L250.1563,546.2549 L248.8281,546.6611 Q248.3594,545.1143 247.6953,544.4502 Q247.0313,543.7861 245.9688,543.7861 Q245.5781,543.7861 244.8125,545.3174 Q244.0469,546.8486 244.0469,549.0986 Q244.0469,551.5674 244.7109,552.958 Q245.375,554.3486 245.9063,554.3486 Q246.9688,554.3486 247.7266,553.583 Q248.4844,552.8174 248.8281,551.1611 L250.1563,551.7549 Q249.8281,553.1611 248.9297,554.0518 Q248.0313,554.9424 245.8281,554.9424 Z "/><text fill="#000000" font-family="sans-serif" font-size="12" lengthAdjust="spacingAndGlyphs" textLength="60" x="267.75" y="555.1406">Application</text><line style="stroke: #A80036; stroke-width: 1.5;" x1="201" x2="362" y1="565.583" y2="565.583"/><ellipse cx="211" cy="578.5945" fill="none" rx="3" ry="3" style="stroke: #038048; stroke-width: 1.0;"/><text fill="#000000" font-family="sans-serif" font-size="11" lengthAdjust="spacingAndGlyphs" textLength="121" x="220" y="582.189">LoadedApk mLoadedApk</text><line style="stroke: #A80036; stroke-width: 1.5;" x1="201" x2="362" y1="588.606" y2="588.606"/><ellipse cx="211" cy="601.6174" fill="#84BE84" rx="3" ry="3" style="stroke: #038048; stroke-width: 1.0;"/><text fill="#000000" font-family="sans-serif" font-size="11" lengthAdjust="spacingAndGlyphs" textLength="137" x="220" y="605.2119">void attach(Context context)</text><!--class Service--><rect fill="#FEFECE" filter="url(#fgnuaqh)" height="48" style="stroke: #A80036; stroke-width: 1.5;" width="72" x="398.5" y="548.583"/><ellipse cx="413.5" cy="564.583" fill="#ADD1B2" rx="11" ry="11" style="stroke: #A80036; stroke-width: 1.0;"/><path d="M412.0781,569.9424 Q410.2188,569.9424 409.125,568.5518 Q408.0313,567.1611 408.0313,564.1768 Q408.0313,561.6455 409.1953,559.9893 Q410.3594,558.333 412.3438,558.333 Q413.8125,558.333 414.2813,558.458 Q414.75,558.6611 414.75,558.6611 Q414.75,558.6611 414.75,558.5908 Q414.75,558.5205 415.3594,557.5986 L416.4063,561.2549 L415.0781,561.6611 Q414.6094,560.1143 413.9453,559.4502 Q413.2813,558.7861 412.2188,558.7861 Q411.8281,558.7861 411.0625,560.3174 Q410.2969,561.8486 410.2969,564.0986 Q410.2969,566.5674 410.9609,567.958 Q411.625,569.3486 412.1563,569.3486 Q413.2188,569.3486 413.9766,568.583 Q414.7344,567.8174 415.0781,566.1611 L416.4063,566.7549 Q416.0781,568.1611 415.1797,569.0518 Q414.2813,569.9424 412.0781,569.9424 Z "/><text fill="#000000" font-family="sans-serif" font-size="12" lengthAdjust="spacingAndGlyphs" textLength="40" x="427.5" y="570.1406">Service</text><line style="stroke: #A80036; stroke-width: 1.5;" x1="399.5" x2="469.5" y1="580.583" y2="580.583"/><line style="stroke: #A80036; stroke-width: 1.5;" x1="399.5" x2="469.5" y1="588.583" y2="588.583"/><!--class Activity--><rect fill="#FEFECE" filter="url(#fgnuaqh)" height="48" style="stroke: #A80036; stroke-width: 1.5;" width="67" x="52" y="701.583"/><ellipse cx="67" cy="717.583" fill="#ADD1B2" rx="11" ry="11" style="stroke: #A80036; stroke-width: 1.0;"/><path d="M65.5781,722.9424 Q63.7188,722.9424 62.625,721.5518 Q61.5313,720.1611 61.5313,717.1768 Q61.5313,714.6455 62.6953,712.9893 Q63.8594,711.333 65.8438,711.333 Q67.3125,711.333 67.7813,711.458 Q68.25,711.6611 68.25,711.6611 Q68.25,711.6611 68.25,711.5908 Q68.25,711.5205 68.8594,710.5986 L69.9063,714.2549 L68.5781,714.6611 Q68.1094,713.1143 67.4453,712.4502 Q66.7813,711.7861 65.7188,711.7861 Q65.3281,711.7861 64.5625,713.3174 Q63.7969,714.8486 63.7969,717.0986 Q63.7969,719.5674 64.4609,720.958 Q65.125,722.3486 65.6563,722.3486 Q66.7188,722.3486 67.4766,721.583 Q68.2344,720.8174 68.5781,719.1611 L69.9063,719.7549 Q69.5781,721.1611 68.6797,722.0518 Q67.7813,722.9424 65.5781,722.9424 Z "/><text fill="#000000" font-family="sans-serif" font-size="12" lengthAdjust="spacingAndGlyphs" textLength="35" x="81" y="723.1406">Activity</text><line style="stroke: #A80036; stroke-width: 1.5;" x1="53" x2="118" y1="733.583" y2="733.583"/><line style="stroke: #A80036; stroke-width: 1.5;" x1="53" x2="118" y1="741.583" y2="741.583"/><!--class AssetManager--><rect fill="#FEFECE" filter="url(#fgnuaqh)" height="48" style="stroke: #A80036; stroke-width: 1.5;" width="111" x="544" y="701.583"/><ellipse cx="559" cy="717.583" fill="#ADD1B2" rx="11" ry="11" style="stroke: #A80036; stroke-width: 1.0;"/><path d="M557.5781,722.9424 Q555.7188,722.9424 554.625,721.5518 Q553.5313,720.1611 553.5313,717.1768 Q553.5313,714.6455 554.6953,712.9893 Q555.8594,711.333 557.8438,711.333 Q559.3125,711.333 559.7813,711.458 Q560.25,711.6611 560.25,711.6611 Q560.25,711.6611 560.25,711.5908 Q560.25,711.5205 560.8594,710.5986 L561.9063,714.2549 L560.5781,714.6611 Q560.1094,713.1143 559.4453,712.4502 Q558.7813,711.7861 557.7188,711.7861 Q557.3281,711.7861 556.5625,713.3174 Q555.7969,714.8486 555.7969,717.0986 Q555.7969,719.5674 556.4609,720.958 Q557.125,722.3486 557.6563,722.3486 Q558.7188,722.3486 559.4766,721.583 Q560.2344,720.8174 560.5781,719.1611 L561.9063,719.7549 Q561.5781,721.1611 560.6797,722.0518 Q559.7813,722.9424 557.5781,722.9424 Z "/><text fill="#000000" font-family="sans-serif" font-size="12" lengthAdjust="spacingAndGlyphs" textLength="79" x="573" y="723.1406">AssetManager</text><line style="stroke: #A80036; stroke-width: 1.5;" x1="545" x2="654" y1="733.583" y2="733.583"/><line style="stroke: #A80036; stroke-width: 1.5;" x1="545" x2="654" y1="741.583" y2="741.583"/><!--class Resources--><rect fill="#FEFECE" filter="url(#fgnuaqh)" height="138.1377" style="stroke: #A80036; stroke-width: 1.5;" width="188" x="505.5" y="503.583"/><ellipse cx="564.75" cy="519.583" fill="#ADD1B2" rx="11" ry="11" style="stroke: #A80036; stroke-width: 1.0;"/><path d="M563.3281,524.9424 Q561.4688,524.9424 560.375,523.5518 Q559.2813,522.1611 559.2813,519.1768 Q559.2813,516.6455 560.4453,514.9893 Q561.6094,513.333 563.5938,513.333 Q565.0625,513.333 565.5313,513.458 Q566,513.6611 566,513.6611 Q566,513.6611 566,513.5908 Q566,513.5205 566.6094,512.5986 L567.6563,516.2549 L566.3281,516.6611 Q565.8594,515.1143 565.1953,514.4502 Q564.5313,513.7861 563.4688,513.7861 Q563.0781,513.7861 562.3125,515.3174 Q561.5469,516.8486 561.5469,519.0986 Q561.5469,521.5674 562.2109,522.958 Q562.875,524.3486 563.4063,524.3486 Q564.4688,524.3486 565.2266,523.583 Q565.9844,522.8174 566.3281,521.1611 L567.6563,521.7549 Q567.3281,523.1611 566.4297,524.0518 Q565.5313,524.9424 563.3281,524.9424 Z "/><text fill="#000000" font-family="sans-serif" font-size="12" lengthAdjust="spacingAndGlyphs" textLength="61" x="585.25" y="525.1406">Resources</text><line style="stroke: #A80036; stroke-width: 1.5;" x1="506.5" x2="692.5" y1="535.583" y2="535.583"/><polygon fill="none" points="516.5,544.5945,512.5,550.5945,520.5,550.5945" style="stroke: #1963A0; stroke-width: 1.0;"/><text fill="#000000" font-family="sans-serif" font-size="11" lengthAdjust="spacingAndGlyphs" textLength="140" x="525.5" y="552.189">final AssetManager mAssets</text><polygon fill="none" points="516.5,559.6174,512.5,565.6174,520.5,565.6174" style="stroke: #1963A0; stroke-width: 1.0;"/><text fill="#000000" font-family="sans-serif" font-size="11" lengthAdjust="spacingAndGlyphs" textLength="139" x="525.5" y="567.2119">final DisplayMetrics mMetrics</text><rect fill="none" height="6" style="stroke: #C82930; stroke-width: 1.0;" width="6" x="513.5" y="575.6404"/><text fill="#000000" font-family="sans-serif" font-size="11" lengthAdjust="spacingAndGlyphs" textLength="162" x="525.5" y="582.2349">final Configuration mConfiguration</text><line style="stroke: #A80036; stroke-width: 1.5;" x1="506.5" x2="692.5" y1="588.6519" y2="588.6519"/><ellipse cx="516.5" cy="601.6633" fill="#84BE84" rx="3" ry="3" style="stroke: #038048; stroke-width: 1.0;"/><text fill="#000000" font-family="sans-serif" font-size="11" lengthAdjust="spacingAndGlyphs" textLength="123" x="525.5" y="605.2578">bool getBoolean(int resid)</text><ellipse cx="516.5" cy="616.6863" fill="#84BE84" rx="3" ry="3" style="stroke: #038048; stroke-width: 1.0;"/><text fill="#000000" font-family="sans-serif" font-size="11" lengthAdjust="spacingAndGlyphs" textLength="108" x="525.5" y="620.2808">int getInteger(int resid)</text><ellipse cx="516.5" cy="631.7092" fill="#84BE84" rx="3" ry="3" style="stroke: #038048; stroke-width: 1.0;"/><text fill="#000000" font-family="sans-serif" font-size="11" lengthAdjust="spacingAndGlyphs" textLength="108" x="525.5" y="635.3037">float getFloat(int resid)</text><!--class ApplicationPackageManager--><rect fill="#FEFECE" filter="url(#fgnuaqh)" height="153.1606" style="stroke: #A80036; stroke-width: 1.5;" width="348" x="693.5" y="260.583"/><ellipse cx="785.25" cy="276.583" fill="#ADD1B2" rx="11" ry="11" style="stroke: #A80036; stroke-width: 1.0;"/><path d="M783.8281,281.9424 Q781.9688,281.9424 780.875,280.5518 Q779.7813,279.1611 779.7813,276.1768 Q779.7813,273.6455 780.9453,271.9893 Q782.1094,270.333 784.0938,270.333 Q785.5625,270.333 786.0313,270.458 Q786.5,270.6611 786.5,270.6611 Q786.5,270.6611 786.5,270.5908 Q786.5,270.5205 787.1094,269.5986 L788.1563,273.2549 L786.8281,273.6611 Q786.3594,272.1143 785.6953,271.4502 Q785.0313,270.7861 783.9688,270.7861 Q783.5781,270.7861 782.8125,272.3174 Q782.0469,273.8486 782.0469,276.0986 Q782.0469,278.5674 782.7109,279.958 Q783.375,281.3486 783.9063,281.3486 Q784.9688,281.3486 785.7266,280.583 Q786.4844,279.8174 786.8281,278.1611 L788.1563,278.7549 Q787.8281,280.1611 786.9297,281.0518 Q786.0313,281.9424 783.8281,281.9424 Z "/><text fill="#000000" font-family="sans-serif" font-size="12" lengthAdjust="spacingAndGlyphs" textLength="156" x="805.75" y="282.1406">ApplicationPackageManager</text><line style="stroke: #A80036; stroke-width: 1.5;" x1="694.5" x2="1040.5" y1="292.583" y2="292.583"/><rect fill="none" height="6" style="stroke: #C82930; stroke-width: 1.0;" width="6" x="701.5" y="302.5945"/><text fill="#000000" font-family="sans-serif" font-size="11" lengthAdjust="spacingAndGlyphs" textLength="126" x="713.5" y="309.189">final ContextImpl mContext</text><rect fill="none" height="6" style="stroke: #C82930; stroke-width: 1.0;" width="6" x="701.5" y="317.6174"/><text fill="#000000" font-family="sans-serif" font-size="11" lengthAdjust="spacingAndGlyphs" textLength="133" x="713.5" y="324.2119">final IPackageManager mPM</text><line style="stroke: #A80036; stroke-width: 1.5;" x1="694.5" x2="1040.5" y1="330.6289" y2="330.6289"/><ellipse cx="704.5" cy="343.6404" fill="#84BE84" rx="3" ry="3" style="stroke: #038048; stroke-width: 1.0;"/><text fill="#000000" font-family="sans-serif" font-size="11" lengthAdjust="spacingAndGlyphs" textLength="287" x="713.5" y="347.2349">PackageInfo getPackageInfo(String packageName, int flags)</text><ellipse cx="704.5" cy="358.6633" fill="#84BE84" rx="3" ry="3" style="stroke: #038048; stroke-width: 1.0;"/><text fill="#000000" font-family="sans-serif" font-size="11" lengthAdjust="spacingAndGlyphs" textLength="311" x="713.5" y="362.2578">ApplicationInfo getApplicationInfo(String packageName, int flags)</text><ellipse cx="704.5" cy="373.6863" fill="#84BE84" rx="3" ry="3" style="stroke: #038048; stroke-width: 1.0;"/><text fill="#000000" font-family="sans-serif" font-size="11" lengthAdjust="spacingAndGlyphs" textLength="315" x="713.5" y="377.2808">ActivityInfo getActivityInfo(ComponentName className, int flags)</text><ellipse cx="704.5" cy="388.7092" fill="#84BE84" rx="3" ry="3" style="stroke: #038048; stroke-width: 1.0;"/><text fill="#000000" font-family="sans-serif" font-size="11" lengthAdjust="spacingAndGlyphs" textLength="322" x="713.5" y="392.3037">ActivityInfo getReceiverInfo(ComponentName className, int flags)</text><ellipse cx="704.5" cy="403.7322" fill="#84BE84" rx="3" ry="3" style="stroke: #038048; stroke-width: 1.0;"/><text fill="#000000" font-family="sans-serif" font-size="11" lengthAdjust="spacingAndGlyphs" textLength="317" x="713.5" y="407.3267">ServiceInfo getServiceInfo(ComponentName className, int flags)</text><!--class PackageManager--><rect fill="#FEFECE" filter="url(#fgnuaqh)" height="48" style="stroke: #A80036; stroke-width: 1.5;" width="129" x="1077" y="313.083"/><ellipse cx="1092" cy="329.083" fill="#A9DCDF" rx="11" ry="11" style="stroke: #A80036; stroke-width: 1.0;"/><path d="M1092.375,329.0674 L1090.3906,329.0674 L1089.7969,331.583 Q1089.7344,331.9268 1089.7344,332.1143 Q1089.7344,332.3799 1089.8281,332.6455 Q1089.9219,332.9111 1089.9219,332.9111 L1090.5938,332.9111 L1090.5938,333.3174 L1087.1406,333.3174 L1087.1406,332.9111 L1087.3281,332.9111 Q1087.5938,332.9111 1087.7969,332.7471 Q1088,332.583 1088.0625,332.1924 L1090.6563,322.0205 L1092.5313,321.4111 L1095.1719,332.1924 Q1095.3125,332.583 1095.5078,332.7471 Q1095.7031,332.9111 1095.7031,332.9111 L1096.1719,332.9111 L1096.1719,333.3174 L1092.3125,333.3174 L1092.3125,332.9111 L1092.5781,332.9111 Q1092.9844,332.9111 1093.0469,332.7471 Q1093.1094,332.583 1093.1094,332.458 Q1093.1094,332.1924 1093.0469,331.9893 L1092.375,329.0674 Z M1090.9844,323.1611 L1090.9844,323.1611 L1090.5313,328.6611 L1092.3125,328.6611 L1090.9844,323.1611 Z "/><text fill="#000000" font-family="sans-serif" font-size="12" font-style="italic" lengthAdjust="spacingAndGlyphs" textLength="97" x="1106" y="334.6406">PackageManager</text><line style="stroke: #A80036; stroke-width: 1.5;" x1="1078" x2="1205" y1="345.083" y2="345.083"/><line style="stroke: #A80036; stroke-width: 1.5;" x1="1078" x2="1205" y1="353.083" y2="353.083"/><path d="M480.338,189.271 C486.663,202.698 493.257,216.694 499.752,230.481 " fill="none" style="stroke: #A80036; stroke-width: 1.0;"/><polygon fill="none" points="473.803,191.825,471.612,170.749,486.468,185.858,473.803,191.825" style="stroke: #A80036; stroke-width: 1.0;"/><path d="M399.155,189.011 C381.644,226.522 362.039,268.52 348.276,298.003 " fill="none" style="stroke: #A80036; stroke-width: 1.0;"/><polygon fill="none" points="392.877,185.91,407.68,170.749,405.563,191.832,392.877,185.91" style="stroke: #A80036; stroke-width: 1.0;"/><path d="M405.354,337.083 C415.263,337.083 425.172,337.083 435.082,337.083 " fill="none" style="stroke: #A80036; stroke-width: 1.0; stroke-dasharray: 7.0,7.0;"/><polygon fill="#A80036" points="440.264,337.083,431.264,333.083,435.264,337.083,431.264,341.083,440.264,337.083" style="stroke: #A80036; stroke-width: 1.0;"/><path d="M276.002,390.023 C235.971,428.175 181.759,479.842 141.402,518.305 " fill="none" style="stroke: #A80036; stroke-width: 1.0;"/><polygon fill="none" points="271.284,384.85,290.591,376.118,280.943,394.984,271.284,384.85" style="stroke: #A80036; stroke-width: 1.0;"/><path d="M318.367,395.898 C309.352,438.861 297.308,496.255 289.478,533.564 " fill="none" style="stroke: #A80036; stroke-width: 1.0;"/><polygon fill="none" points="311.56,394.254,322.518,376.118,325.261,397.13,311.56,394.254" style="stroke: #A80036; stroke-width: 1.0;"/><path d="M355.666,394.585 C377.626,443.89 408.382,512.942 424.202,548.463 " fill="none" style="stroke: #A80036; stroke-width: 1.0;"/><polygon fill="none" points="349.184,397.236,347.441,376.118,361.973,391.54,349.184,397.236" style="stroke: #A80036; stroke-width: 1.0;"/><path d="M85.5,647.038 C85.5,666.7183 85.5,686.5843 85.5,701.2815 " fill="none" style="stroke: #A80036; stroke-width: 1.0;"/><polygon fill="none" points="78.5001,646.82,85.5,626.82,92.5001,646.82,78.5001,646.82" style="stroke: #A80036; stroke-width: 1.0;"/><path d="M572.159,443.902 C576.093,462.273 580.105,481.009 583.801,498.268 " fill="none" style="stroke: #A80036; stroke-width: 1.0; stroke-dasharray: 7.0,7.0;"/><polygon fill="#A80036" points="584.937,503.575,586.9632,493.9368,583.8897,498.6859,579.1407,495.6124,584.937,503.575" style="stroke: #A80036; stroke-width: 1.0;"/><path d="M599.5,642.014 C599.5,661.2235 599.5,681.0487 599.5,696.4568 " fill="none" style="stroke: #A80036; stroke-width: 1.0; stroke-dasharray: 7.0,7.0;"/><polygon fill="#A80036" points="599.5,701.5055,603.5,692.5055,599.5,696.5055,595.5,692.5055,599.5,701.5055" style="stroke: #A80036; stroke-width: 1.0;"/><path d="M658.502,337.083 C668.351,337.083 678.2,337.083 688.049,337.083 " fill="none" style="stroke: #A80036; stroke-width: 1.0; stroke-dasharray: 7.0,7.0;"/><polygon fill="#A80036" points="693.199,337.083,684.199,333.083,688.199,337.083,684.199,341.083,693.199,337.083" style="stroke: #A80036; stroke-width: 1.0;"/><path d="M1041.69,337.083 C1046.72,337.083 1051.74,337.083 1056.77,337.083 " fill="none" style="stroke: #A80036; stroke-width: 1.0;"/><polygon fill="none" points="1056.78,330.083,1076.78,337.083,1056.78,344.083,1056.78,330.083" style="stroke: #A80036; stroke-width: 1.0;"/></g></svg>