<?xml version="1.0" encoding="UTF-8" standalone="yes"?><svg xmlns="http://www.w3.org/2000/svg" xmlns:xlink="http://www.w3.org/1999/xlink" height="422px" style="width:729px;height:422px;" version="1.1" viewBox="0 0 729 422" width="729px"><defs><filter height="300%" id="f5ab4o9" width="300%" x="-1" y="-1"><feGaussianBlur result="blurOut" stdDeviation="2.0"/><feColorMatrix in="blurOut" result="blurOut2" type="matrix" values="0 0 0 0 0 0 0 0 0 0 0 0 0 0 0 0 0 0 .4 0"/><feOffset dx="4.0" dy="4.0" in="blurOut2" result="blurOut3"/><feBlend in="SourceGraphic" in2="blurOut3" mode="normal"/></filter></defs><g><text fill="#000000" font-family="sans-serif" font-size="18" lengthAdjust="spacingAndGlyphs" textLength="115" x="312.5" y="20.6279">Context用例图</text><!--entity ctx--><ellipse cx="343" cy="191.083" fill="#FEFECE" filter="url(#f5ab4o9)" rx="8" ry="8" style="stroke: #A80036; stroke-width: 2.0;"/><path d="M343,199.083 L343,226.083 M330,207.083 L356,207.083 M343,226.083 L330,241.083 M343,226.083 L356,241.083 " fill="#FEFECE" filter="url(#f5ab4o9)" style="stroke: #A80036; stroke-width: 2.0;"/><text fill="#000000" font-family="sans-serif" font-size="14" lengthAdjust="spacingAndGlyphs" textLength="48" x="319" y="264.127">Context</text><ellipse cx="643.598" cy="51.103" fill="#FEFECE" filter="url(#f5ab4o9)" rx="42.598" ry="16.52" style="stroke: #A80036; stroke-width: 1.5;"/><text fill="#000000" font-family="sans-serif" font-size="14" lengthAdjust="spacingAndGlyphs" textLength="56" x="615.598" y="57.163">resource</text><ellipse cx="643.5416" cy="119.103" fill="#FEFECE" filter="url(#f5ab4o9)" rx="27.0416" ry="16.52" style="stroke: #A80036; stroke-width: 1.5;"/><text fill="#000000" font-family="sans-serif" font-size="14" lengthAdjust="spacingAndGlyphs" textLength="34" x="626.5416" y="125.163">asset</text><ellipse cx="643.747" cy="188.2324" fill="#FEFECE" filter="url(#f5ab4o9)" rx="76.247" ry="17.6494" style="stroke: #A80036; stroke-width: 1.5;"/><text fill="#000000" font-family="sans-serif" font-size="14" lengthAdjust="spacingAndGlyphs" textLength="111" x="588.247" y="194.2925">PackageManager</text><ellipse cx="643.5455" cy="259.1921" fill="#FEFECE" filter="url(#f5ab4o9)" rx="78.5455" ry="18.1091" style="stroke: #A80036; stroke-width: 1.5;"/><text fill="#000000" font-family="sans-serif" font-size="14" lengthAdjust="spacingAndGlyphs" textLength="117" x="585.0455" y="265.2522">ApplicationContext</text><ellipse cx="643.3713" cy="329.8573" fill="#FEFECE" filter="url(#f5ab4o9)" rx="74.3713" ry="17.2743" style="stroke: #A80036; stroke-width: 1.5;"/><text fill="#000000" font-family="sans-serif" font-size="14" lengthAdjust="spacingAndGlyphs" textLength="106" x="590.3713" y="335.9173">ContentResolver</text><ellipse cx="643.3259" cy="399.103" fill="#FEFECE" filter="url(#f5ab4o9)" rx="55.3259" ry="16.52" style="stroke: #A80036; stroke-width: 1.5;"/><text fill="#000000" font-family="sans-serif" font-size="14" lengthAdjust="spacingAndGlyphs" textLength="74" x="606.3259" y="405.163">AttributeSet</text><ellipse cx="74.7609" cy="156.103" fill="#FEFECE" filter="url(#f5ab4o9)" rx="68.7609" ry="16.52" style="stroke: #A80036; stroke-width: 1.5;"/><text fill="#000000" font-family="sans-serif" font-size="14" lengthAdjust="spacingAndGlyphs" textLength="93" x="28.2609" y="162.163">SystemService</text><ellipse cx="74.7548" cy="224.103" fill="#FEFECE" filter="url(#f5ab4o9)" rx="48.2548" ry="16.52" style="stroke: #A80036; stroke-width: 1.5;"/><text fill="#000000" font-family="sans-serif" font-size="14" lengthAdjust="spacingAndGlyphs" textLength="64" x="42.7548" y="230.163">Broadcast</text><ellipse cx="75.1127" cy="292.103" fill="#FEFECE" filter="url(#f5ab4o9)" rx="34.1127" ry="16.52" style="stroke: #A80036; stroke-width: 1.5;"/><text fill="#000000" font-family="sans-serif" font-size="14" lengthAdjust="spacingAndGlyphs" textLength="44" x="53.1127" y="298.163">Activity</text><path d="M352.401,181.054 C359.765,154.729 373.169,122.486 397,103.083 C453.949,56.715 542.339,48.864 596.076,48.91 " fill="none" style="stroke: #A80036; stroke-width: 1.0;"/><polygon fill="#A80036" points="601.166,48.938,592.1878,44.8892,596.1661,48.9109,592.1444,52.8891,601.166,48.938" style="stroke: #A80036; stroke-width: 1.0;"/><text fill="#000000" font-family="sans-serif" font-size="13" lengthAdjust="spacingAndGlyphs" textLength="81" x="425.5" y="48.981">getResource()</text><path d="M367.135,197.101 C375.719,188.589 386.052,179.899 397,174.083 C467.712,136.517 563.041,124.549 611.471,120.782 " fill="none" style="stroke: #A80036; stroke-width: 1.0;"/><polygon fill="#A80036" points="616.574,120.402,607.3017,117.0817,611.5878,120.7735,607.896,125.0596,616.574,120.402" style="stroke: #A80036; stroke-width: 1.0;"/><text fill="#000000" font-family="sans-serif" font-size="13" lengthAdjust="spacingAndGlyphs" textLength="60" x="436" y="126.981">getAsset()</text><path d="M367.423,221.258 C410.688,216.04 504.738,204.697 570.768,196.734 " fill="none" style="stroke: #A80036; stroke-width: 1.0;"/><polygon fill="#A80036" points="575.871,196.119,566.4569,193.2251,570.907,196.7176,567.4146,201.1676,575.871,196.119" style="stroke: #A80036; stroke-width: 1.0;"/><text fill="#000000" font-family="sans-serif" font-size="13" lengthAdjust="spacingAndGlyphs" textLength="127" x="402.5" y="197.981">getPackageManager()</text><path d="M367.194,238.084 C376.183,242.797 386.762,247.509 397,250.083 C451.275,263.731 514.411,265.753 563.064,264.481 " fill="none" style="stroke: #A80036; stroke-width: 1.0;"/><polygon fill="#A80036" points="568.324,264.329,559.2123,260.5904,563.3261,264.4733,559.4432,268.5871,568.324,264.329" style="stroke: #A80036; stroke-width: 1.0;"/><text fill="#000000" font-family="sans-serif" font-size="13" lengthAdjust="spacingAndGlyphs" textLength="135" x="398.5" y="246.981">getApplicationContext()</text><path d="M367.154,263.207 C375.288,273.829 385.352,284.265 397,291.083 C447.502,320.6419 513.379,329.8295 564.176,331.9331 " fill="none" style="stroke: #A80036; stroke-width: 1.0;"/><polygon fill="#A80036" points="569.355,332.1253,560.5098,327.7938,564.3585,331.9396,560.2126,335.7883,569.355,332.1253" style="stroke: #A80036; stroke-width: 1.0;"/><text fill="#000000" font-family="sans-serif" font-size="13" lengthAdjust="spacingAndGlyphs" textLength="120" x="406" y="287.981">getContentResolver()</text><path d="M350.171,267.103 C356.715,296.608 370.047,334.2341 397,356.083 C449.915,398.9775 530.585,405.3777 584.866,403.9465 " fill="none" style="stroke: #A80036; stroke-width: 1.0;"/><polygon fill="#A80036" points="590.035,403.7845,580.9137,400.0693,585.0375,403.9417,581.1652,408.0654,590.035,403.7845" style="stroke: #A80036; stroke-width: 1.0;"/><text fill="#000000" font-family="sans-serif" font-size="13" lengthAdjust="spacingAndGlyphs" textLength="136" x="398" y="352.981">obtainStyledAttributes()</text><path d="M142.45,163.973 C185.107,170.226 241.254,180.693 289,197.083 C299.158,200.57 309.81,205.68 318.877,210.518 " fill="none" style="stroke: #A80036; stroke-width: 1.0;"/><polygon fill="#A80036" points="137.316,163.231,145.6508,168.4781,142.2645,163.9467,146.7959,160.5605,137.316,163.231" style="stroke: #A80036; stroke-width: 1.0;"/><text fill="#000000" font-family="sans-serif" font-size="13" lengthAdjust="spacingAndGlyphs" textLength="113" x="175" y="165.981">getSystemService()</text><path d="M128.705,224.083 C186.583,224.083 276.883,224.083 318.966,224.083 " fill="none" style="stroke: #A80036; stroke-width: 1.0;"/><polygon fill="#A80036" points="123.555,224.083,132.555,228.083,128.555,224.083,132.555,220.083,123.555,224.083" style="stroke: #A80036; stroke-width: 1.0;"/><text fill="#000000" font-family="sans-serif" font-size="13" lengthAdjust="spacingAndGlyphs" textLength="95" x="184" y="220.981">sendBraodcast()</text><path d="M113.607,288.085 C156.822,282.755 229.446,271.526 289,251.083 C299.158,247.596 309.81,242.486 318.877,237.648 " fill="none" style="stroke: #A80036; stroke-width: 1.0;"/><polygon fill="#A80036" points="108.485,288.706,117.9016,291.5919,113.4485,288.1032,116.9371,283.6502,108.485,288.706" style="stroke: #A80036; stroke-width: 1.0;"/><text fill="#000000" font-family="sans-serif" font-size="13" lengthAdjust="spacingAndGlyphs" textLength="76" x="193.5" y="247.981">startActivity()</text></g></svg>