<?xml version="1.0" encoding="UTF-8" standalone="yes"?><svg xmlns="http://www.w3.org/2000/svg" xmlns:xlink="http://www.w3.org/1999/xlink" height="431px" style="width:1033px;height:431px;" version="1.1" viewBox="0 0 1033 431" width="1033px"><defs><filter height="300%" id="f8wqg9o" width="300%" x="-1" y="-1"><feGaussianBlur result="blurOut" stdDeviation="2.0"/><feColorMatrix in="blurOut" result="blurOut2" type="matrix" values="0 0 0 0 0 0 0 0 0 0 0 0 0 0 0 0 0 0 .4 0"/><feOffset dx="4.0" dy="4.0" in="blurOut2" result="blurOut3"/><feBlend in="SourceGraphic" in2="blurOut3" mode="normal"/></filter></defs><g><!--entity ctx--><ellipse cx="495" cy="199.5" fill="#FEFECE" filter="url(#f8wqg9o)" rx="8" ry="8" style="stroke: #A80036; stroke-width: 2.0;"/><path d="M495,207.5 L495,234.5 M482,215.5 L508,215.5 M495,234.5 L482,249.5 M495,234.5 L508,249.5 " fill="#FEFECE" filter="url(#f8wqg9o)" style="stroke: #A80036; stroke-width: 2.0;"/><text fill="#000000" font-family="sans-serif" font-size="14" lengthAdjust="spacingAndGlyphs" textLength="48" x="471" y="272.5439">Context</text><ellipse cx="947.598" cy="45.52" fill="#FEFECE" filter="url(#f8wqg9o)" rx="42.598" ry="16.52" style="stroke: #A80036; stroke-width: 1.5;"/><text fill="#000000" font-family="sans-serif" font-size="14" lengthAdjust="spacingAndGlyphs" textLength="56" x="919.598" y="51.58">resource</text><polygon fill="#FBFB77" filter="url(#f8wqg9o)" points="319,8.5,319,54.0088,671,54.0088,671,18.5,661,8.5,319,8.5" style="stroke: #A80036; stroke-width: 1.0;"/><polygon fill="#FBFB77" points="319,8.5,319,54.0088,671,54.0088,671,40.943,904.945,44.209,671,32.943,671,18.5,661,8.5,319,8.5" style="stroke: #A80036; stroke-width: 1.0;"/><line style="stroke: #A80036; stroke-width: 1.0;" x1="661" x2="661" y1="8.5" y2="18.5"/><line style="stroke: #A80036; stroke-width: 1.0;" x1="671" x2="661" y1="18.5" y2="18.5"/><text fill="#000000" font-family="sans-serif" font-size="13" lengthAdjust="spacingAndGlyphs" textLength="331" x="325" y="28.3979">mResource = mPackageInfo.getResource(mMainThread);</text><text fill="#000000" font-family="sans-serif" font-size="13" lengthAdjust="spacingAndGlyphs" textLength="173" x="325" y="46.1523">每个应用只有一个pakcageinfo</text><ellipse cx="947.5416" cy="127.52" fill="#FEFECE" filter="url(#f8wqg9o)" rx="27.0416" ry="16.52" style="stroke: #A80036; stroke-width: 1.5;"/><text fill="#000000" font-family="sans-serif" font-size="14" lengthAdjust="spacingAndGlyphs" textLength="34" x="930.5416" y="133.58">asset</text><ellipse cx="947.747" cy="196.6494" fill="#FEFECE" filter="url(#f8wqg9o)" rx="76.247" ry="17.6494" style="stroke: #A80036; stroke-width: 1.5;"/><text fill="#000000" font-family="sans-serif" font-size="14" lengthAdjust="spacingAndGlyphs" textLength="111" x="892.247" y="202.7095">PackageManager</text><ellipse cx="947.5455" cy="267.6091" fill="#FEFECE" filter="url(#f8wqg9o)" rx="78.5455" ry="18.1091" style="stroke: #A80036; stroke-width: 1.5;"/><text fill="#000000" font-family="sans-serif" font-size="14" lengthAdjust="spacingAndGlyphs" textLength="117" x="889.0455" y="273.6692">ApplicationContext</text><ellipse cx="947.3713" cy="338.2743" fill="#FEFECE" filter="url(#f8wqg9o)" rx="74.3713" ry="17.2743" style="stroke: #A80036; stroke-width: 1.5;"/><text fill="#000000" font-family="sans-serif" font-size="14" lengthAdjust="spacingAndGlyphs" textLength="106" x="894.3713" y="344.3343">ContentResolver</text><ellipse cx="947.3259" cy="407.52" fill="#FEFECE" filter="url(#f8wqg9o)" rx="55.3259" ry="16.52" style="stroke: #A80036; stroke-width: 1.5;"/><text fill="#000000" font-family="sans-serif" font-size="14" lengthAdjust="spacingAndGlyphs" textLength="74" x="910.3259" y="413.58">AttributeSet</text><ellipse cx="74.7609" cy="164.52" fill="#FEFECE" filter="url(#f8wqg9o)" rx="68.7609" ry="16.52" style="stroke: #A80036; stroke-width: 1.5;"/><text fill="#000000" font-family="sans-serif" font-size="14" lengthAdjust="spacingAndGlyphs" textLength="93" x="28.2609" y="170.58">SystemService</text><ellipse cx="74.7548" cy="232.52" fill="#FEFECE" filter="url(#f8wqg9o)" rx="48.2548" ry="16.52" style="stroke: #A80036; stroke-width: 1.5;"/><text fill="#000000" font-family="sans-serif" font-size="14" lengthAdjust="spacingAndGlyphs" textLength="64" x="42.7548" y="238.58">Broadcast</text><ellipse cx="75.1127" cy="300.52" fill="#FEFECE" filter="url(#f8wqg9o)" rx="34.1127" ry="16.52" style="stroke: #A80036; stroke-width: 1.5;"/><text fill="#000000" font-family="sans-serif" font-size="14" lengthAdjust="spacingAndGlyphs" textLength="44" x="53.1127" y="306.58">Activity</text><path d="M519.237,217.951 C556.486,195.087 632.358,150.379 701,121.5 C771.177,91.975 856.876,68.044 906.224,55.367 " fill="none" style="stroke: #A80036; stroke-width: 1.0;"/><polygon fill="#A80036" points="911.178,54.101,901.4677,52.455,906.3338,55.3395,903.4493,60.2057,911.178,54.101" style="stroke: #A80036; stroke-width: 1.0;"/><text fill="#000000" font-family="sans-serif" font-size="13" lengthAdjust="spacingAndGlyphs" textLength="81" x="729.5" y="72.3979">getResource()</text><path d="M519.248,225.764 C557.138,214.899 634.648,193.142 701,177.5 C778.046,159.337 869.615,141.73 916.124,133.067 " fill="none" style="stroke: #A80036; stroke-width: 1.0;"/><polygon fill="#A80036" points="921.297,132.106,911.718,129.8165,916.381,133.0189,913.1786,137.682,921.297,132.106" style="stroke: #A80036; stroke-width: 1.0;"/><text fill="#000000" font-family="sans-serif" font-size="13" lengthAdjust="spacingAndGlyphs" textLength="60" x="740" y="145.3979">getAsset()</text><path d="M519.272,230.64 C583.501,225.508 765.398,210.972 869.973,202.615 " fill="none" style="stroke: #A80036; stroke-width: 1.0;"/><polygon fill="#A80036" points="875.202,202.198,865.9118,198.9281,870.2179,202.5966,866.5495,206.9027,875.202,202.198" style="stroke: #A80036; stroke-width: 1.0;"/><text fill="#000000" font-family="sans-serif" font-size="13" lengthAdjust="spacingAndGlyphs" textLength="127" x="706.5" y="201.3979">getPackageManager()</text><path d="M519.294,236.145 C557.25,241.929 634.85,253.104 701,258.5 C755.139,262.917 816.172,265.166 863.84,266.312 " fill="none" style="stroke: #A80036; stroke-width: 1.0;"/><polygon fill="#A80036" points="868.997,266.433,860.0932,262.2232,863.9984,266.3159,859.9058,270.221,868.997,266.433" style="stroke: #A80036; stroke-width: 1.0;"/><text fill="#000000" font-family="sans-serif" font-size="13" lengthAdjust="spacingAndGlyphs" textLength="135" x="702.5" y="255.3979">getApplicationContext()</text><path d="M519.163,240.1 C556.934,252.306 634.281,276.527 701,292.5 C761.24,306.921 830.69,319.571 880.316,327.9359 " fill="none" style="stroke: #A80036; stroke-width: 1.0;"/><polygon fill="#A80036" points="885.357,328.7825,877.1427,323.3487,880.4259,327.9553,875.8193,331.2385,885.357,328.7825" style="stroke: #A80036; stroke-width: 1.0;"/><text fill="#000000" font-family="sans-serif" font-size="13" lengthAdjust="spacingAndGlyphs" textLength="120" x="710" y="289.3979">getContentResolver()</text><path d="M519.285,248.157 C556.295,272.404 631.48,319.093 701,346.5 C765.188,371.8053 843.052,389.0249 893.632,398.5527 " fill="none" style="stroke: #A80036; stroke-width: 1.0;"/><polygon fill="#A80036" points="898.745,399.5071,890.6315,393.9241,893.8298,398.5899,889.164,401.7883,898.745,399.5071" style="stroke: #A80036; stroke-width: 1.0;"/><text fill="#000000" font-family="sans-serif" font-size="13" lengthAdjust="spacingAndGlyphs" textLength="136" x="702" y="343.3979">obtainStyledAttributes()</text><path d="M137.355,174.481 C231.642,189.82 407.864,218.487 470.868,228.737 " fill="none" style="stroke: #A80036; stroke-width: 1.0;"/><polygon fill="#A80036" points="132.373,173.671,140.614,179.0641,137.3081,174.4738,141.8985,171.1679,132.373,173.671" style="stroke: #A80036; stroke-width: 1.0;"/><text fill="#000000" font-family="sans-serif" font-size="13" lengthAdjust="spacingAndGlyphs" textLength="113" x="175" y="177.3979">getSystemService()</text><path d="M128.637,232.5 C220.246,232.5 405.446,232.5 470.647,232.5 " fill="none" style="stroke: #A80036; stroke-width: 1.0;"/><polygon fill="#A80036" points="123.543,232.5,132.543,236.5,128.543,232.5,132.543,228.5,123.543,232.5" style="stroke: #A80036; stroke-width: 1.0;"/><text fill="#000000" font-family="sans-serif" font-size="13" lengthAdjust="spacingAndGlyphs" textLength="95" x="184" y="229.3979">sendBraodcast()</text><path d="M112.535,294.557 C196.568,280.886 401.653,247.523 470.8,236.274 " fill="none" style="stroke: #A80036; stroke-width: 1.0;"/><polygon fill="#A80036" points="107.418,295.389,116.9436,297.8917,112.3531,294.586,115.6588,289.9955,107.418,295.389" style="stroke: #A80036; stroke-width: 1.0;"/><text fill="#000000" font-family="sans-serif" font-size="13" lengthAdjust="spacingAndGlyphs" textLength="76" x="193.5" y="263.3979">startActivity()</text></g></svg>