<?xml version="1.0" encoding="UTF-8" standalone="yes"?><svg xmlns="http://www.w3.org/2000/svg" xmlns:xlink="http://www.w3.org/1999/xlink" height="537px" style="width:440px;height:537px;" version="1.1" viewBox="0 0 440 537" width="440px"><defs><filter height="300%" id="frior1j" width="300%" x="-1" y="-1"><feGaussianBlur result="blurOut" stdDeviation="2.0"/><feColorMatrix in="blurOut" result="blurOut2" type="matrix" values="0 0 0 0 0 0 0 0 0 0 0 0 0 0 0 0 0 0 .4 0"/><feOffset dx="4.0" dy="4.0" in="blurOut2" result="blurOut3"/><feBlend in="SourceGraphic" in2="blurOut3" mode="normal"/></filter></defs><g><!--class ContextImpl--><rect fill="#FEFECE" filter="url(#frior1j)" height="93.0688" style="stroke: #A80036; stroke-width: 1.5;" width="158" x="6" y="15.5"/><ellipse cx="48.45" cy="31.5" fill="#ADD1B2" rx="11" ry="11" style="stroke: #A80036; stroke-width: 1.0;"/><path d="M47.0281,36.8594 Q45.1688,36.8594 44.075,35.4688 Q42.9813,34.0781 42.9813,31.0938 Q42.9813,28.5625 44.1453,26.9063 Q45.3094,25.25 47.2938,25.25 Q48.7625,25.25 49.2313,25.375 Q49.7,25.5781 49.7,25.5781 Q49.7,25.5781 49.7,25.5078 Q49.7,25.4375 50.3094,24.5156 L51.3563,28.1719 L50.0281,28.5781 Q49.5594,27.0313 48.8953,26.3672 Q48.2313,25.7031 47.1688,25.7031 Q46.7781,25.7031 46.0125,27.2344 Q45.2469,28.7656 45.2469,31.0156 Q45.2469,33.4844 45.9109,34.875 Q46.575,36.2656 47.1063,36.2656 Q48.1688,36.2656 48.9266,35.5 Q49.6844,34.7344 50.0281,33.0781 L51.3563,33.6719 Q51.0281,35.0781 50.1297,35.9688 Q49.2313,36.8594 47.0281,36.8594 Z "/><text fill="#000000" font-family="sans-serif" font-size="12" lengthAdjust="spacingAndGlyphs" textLength="65" x="68.55" y="37.0576">ContextImpl</text><line style="stroke: #A80036; stroke-width: 1.5;" x1="7" x2="163" y1="47.5" y2="47.5"/><rect fill="none" height="6" style="stroke: #C82930; stroke-width: 1.0;" width="6" x="14" y="57.5115"/><text fill="#000000" font-family="sans-serif" font-size="11" lengthAdjust="spacingAndGlyphs" textLength="105" x="26" y="64.106">Resource mResource</text><line style="stroke: #A80036; stroke-width: 1.5;" x1="7" x2="163" y1="70.5229" y2="70.5229"/><ellipse cx="17" cy="83.5344" fill="#84BE84" rx="3" ry="3" style="stroke: #038048; stroke-width: 1.0;"/><text fill="#000000" font-family="sans-serif" font-size="11" lengthAdjust="spacingAndGlyphs" textLength="126" x="26" y="87.1289">Resource getResources()</text><ellipse cx="17" cy="98.5574" fill="#84BE84" rx="3" ry="3" style="stroke: #038048; stroke-width: 1.0;"/><text fill="#000000" font-family="sans-serif" font-size="11" lengthAdjust="spacingAndGlyphs" textLength="132" x="26" y="102.1519">AssetManager getAssets()</text><!--class Resource--><rect fill="#FEFECE" filter="url(#frior1j)" height="108.0918" style="stroke: #A80036; stroke-width: 1.5;" width="166" x="199" y="8"/><ellipse cx="250.75" cy="24" fill="#ADD1B2" rx="11" ry="11" style="stroke: #A80036; stroke-width: 1.0;"/><path d="M249.3281,29.3594 Q247.4688,29.3594 246.375,27.9688 Q245.2813,26.5781 245.2813,23.5938 Q245.2813,21.0625 246.4453,19.4063 Q247.6094,17.75 249.5938,17.75 Q251.0625,17.75 251.5313,17.875 Q252,18.0781 252,18.0781 Q252,18.0781 252,18.0078 Q252,17.9375 252.6094,17.0156 L253.6563,20.6719 L252.3281,21.0781 Q251.8594,19.5313 251.1953,18.8672 Q250.5313,18.2031 249.4688,18.2031 Q249.0781,18.2031 248.3125,19.7344 Q247.5469,21.2656 247.5469,23.5156 Q247.5469,25.9844 248.2109,27.375 Q248.875,28.7656 249.4063,28.7656 Q250.4688,28.7656 251.2266,28 Q251.9844,27.2344 252.3281,25.5781 L253.6563,26.1719 Q253.3281,27.5781 252.4297,28.4688 Q251.5313,29.3594 249.3281,29.3594 Z "/><text fill="#000000" font-family="sans-serif" font-size="12" lengthAdjust="spacingAndGlyphs" textLength="54" x="271.25" y="29.5576">Resource</text><line style="stroke: #A80036; stroke-width: 1.5;" x1="200" x2="364" y1="40" y2="40"/><rect fill="none" height="6" style="stroke: #C82930; stroke-width: 1.0;" width="6" x="207" y="50.0115"/><text fill="#000000" font-family="sans-serif" font-size="11" lengthAdjust="spacingAndGlyphs" textLength="140" x="219" y="56.606">AssetManager_Java mAsset</text><rect fill="none" height="6" style="stroke: #C82930; stroke-width: 1.0;" width="6" x="207" y="65.0344"/><text fill="#000000" font-family="sans-serif" font-size="11" lengthAdjust="spacingAndGlyphs" textLength="94" x="219" y="71.6289">Resource mSystem</text><line style="stroke: #A80036; stroke-width: 1.5;" x1="200" x2="364" y1="78.0459" y2="78.0459"/><ellipse cx="210" cy="91.0574" fill="#84BE84" rx="3" ry="3" style="stroke: #038048; stroke-width: 1.0;"/><text fill="#000000" font-family="sans-serif" font-size="11" lengthAdjust="spacingAndGlyphs" textLength="132" x="219" y="94.6519">AssetManager getAssets()</text><ellipse cx="210" cy="106.0803" fill="#84BE84" rx="3" ry="3" style="stroke: #038048; stroke-width: 1.0;"/><text fill="#000000" font-family="sans-serif" font-size="11" lengthAdjust="spacingAndGlyphs" textLength="109" x="219" y="109.6748">Resource getSystem()</text><!--class AssetManager_Java--><rect fill="#FEFECE" filter="url(#frior1j)" height="93.0688" style="stroke: #A80036; stroke-width: 1.5;" width="188" x="187" y="282"/><ellipse cx="222.25" cy="298" fill="#ADD1B2" rx="11" ry="11" style="stroke: #A80036; stroke-width: 1.0;"/><path d="M220.8281,303.3594 Q218.9688,303.3594 217.875,301.9688 Q216.7813,300.5781 216.7813,297.5938 Q216.7813,295.0625 217.9453,293.4063 Q219.1094,291.75 221.0938,291.75 Q222.5625,291.75 223.0313,291.875 Q223.5,292.0781 223.5,292.0781 Q223.5,292.0781 223.5,292.0078 Q223.5,291.9375 224.1094,291.0156 L225.1563,294.6719 L223.8281,295.0781 Q223.3594,293.5313 222.6953,292.8672 Q222.0313,292.2031 220.9688,292.2031 Q220.5781,292.2031 219.8125,293.7344 Q219.0469,295.2656 219.0469,297.5156 Q219.0469,299.9844 219.7109,301.375 Q220.375,302.7656 220.9063,302.7656 Q221.9688,302.7656 222.7266,302 Q223.4844,301.2344 223.8281,299.5781 L225.1563,300.1719 Q224.8281,301.5781 223.9297,302.4688 Q223.0313,303.3594 220.8281,303.3594 Z "/><text fill="#000000" font-family="sans-serif" font-size="12" lengthAdjust="spacingAndGlyphs" textLength="111" x="240.75" y="303.5576">AssetManager_Java</text><line style="stroke: #A80036; stroke-width: 1.5;" x1="188" x2="374" y1="314" y2="314"/><rect fill="none" height="6" style="stroke: #C82930; stroke-width: 1.0;" width="6" x="195" y="324.0115"/><text fill="#000000" font-family="sans-serif" font-size="11" lengthAdjust="spacingAndGlyphs" textLength="145" x="207" y="330.606">AssetManager_Java sSystem</text><rect fill="none" height="6" style="stroke: #C82930; stroke-width: 1.0;" width="6" x="195" y="339.0344"/><text fill="#000000" font-family="sans-serif" font-size="11" lengthAdjust="spacingAndGlyphs" textLength="53" x="207" y="345.6289">int mObject</text><line style="stroke: #A80036; stroke-width: 1.5;" x1="188" x2="374" y1="352.0459" y2="352.0459"/><ellipse cx="198" cy="365.0574" fill="#84BE84" rx="3" ry="3" style="stroke: #038048; stroke-width: 1.0;"/><text fill="#000000" font-family="sans-serif" font-size="11" lengthAdjust="spacingAndGlyphs" textLength="162" x="207" y="368.6519">AssetManager_Java getSystem()</text><!--class AssetManager_C--><rect fill="#FEFECE" filter="url(#frior1j)" height="93.0688" style="stroke: #A80036; stroke-width: 1.5;" width="180" x="191" y="435"/><ellipse cx="229.85" cy="451" fill="#ADD1B2" rx="11" ry="11" style="stroke: #A80036; stroke-width: 1.0;"/><path d="M228.4281,456.3594 Q226.5688,456.3594 225.475,454.9688 Q224.3813,453.5781 224.3813,450.5938 Q224.3813,448.0625 225.5453,446.4063 Q226.7094,444.75 228.6938,444.75 Q230.1625,444.75 230.6313,444.875 Q231.1,445.0781 231.1,445.0781 Q231.1,445.0781 231.1,445.0078 Q231.1,444.9375 231.7094,444.0156 L232.7563,447.6719 L231.4281,448.0781 Q230.9594,446.5313 230.2953,445.8672 Q229.6313,445.2031 228.5688,445.2031 Q228.1781,445.2031 227.4125,446.7344 Q226.6469,448.2656 226.6469,450.5156 Q226.6469,452.9844 227.3109,454.375 Q227.975,455.7656 228.5063,455.7656 Q229.5688,455.7656 230.3266,455 Q231.0844,454.2344 231.4281,452.5781 L232.7563,453.1719 Q232.4281,454.5781 231.5297,455.4688 Q230.6313,456.3594 228.4281,456.3594 Z "/><text fill="#000000" font-family="sans-serif" font-size="12" lengthAdjust="spacingAndGlyphs" textLength="95" x="249.15" y="456.5576">AssetManager_C</text><line style="stroke: #A80036; stroke-width: 1.5;" x1="192" x2="370" y1="467" y2="467"/><rect fill="none" height="6" style="stroke: #C82930; stroke-width: 1.0;" width="6" x="199" y="477.0115"/><text fill="#000000" font-family="sans-serif" font-size="11" lengthAdjust="spacingAndGlyphs" textLength="154" x="211" y="483.606">Vetor&lt;asset_path&gt; mAssetPath</text><rect fill="none" height="6" style="stroke: #C82930; stroke-width: 1.0;" width="6" x="199" y="492.0344"/><text fill="#000000" font-family="sans-serif" font-size="11" lengthAdjust="spacingAndGlyphs" textLength="113" x="211" y="498.6289">ResTable* mResources</text><rect fill="none" height="6" style="stroke: #C82930; stroke-width: 1.0;" width="6" x="199" y="507.0574"/><text fill="#000000" font-family="sans-serif" font-size="11" lengthAdjust="spacingAndGlyphs" textLength="127" x="211" y="513.6519">ResTable_config* mConfig</text><line style="stroke: #A80036; stroke-width: 1.5;" x1="192" x2="370" y1="520.0688" y2="520.0688"/><polygon fill="#FBFB77" filter="url(#frior1j)" points="267,176,267,221.5088,431,221.5088,431,186,421,176,267,176" style="stroke: #A80036; stroke-width: 1.0;"/><line style="stroke: #A80036; stroke-width: 1.0;" x1="421" x2="421" y1="176" y2="186"/><line style="stroke: #A80036; stroke-width: 1.0;" x1="431" x2="421" y1="186" y2="186"/><text fill="#000000" font-family="sans-serif" font-size="13" lengthAdjust="spacingAndGlyphs" textLength="143" x="273" y="195.8979">对于一份资源，由这两个</text><text fill="#000000" font-family="sans-serif" font-size="13" lengthAdjust="spacingAndGlyphs" textLength="130" x="273" y="213.6523">类通过完成资源的管理</text><path d="M177.466,62 C180.127,62 182.789,62 185.45,62 " fill="none" style="stroke: #A80036; stroke-width: 1.0;"/><polygon fill="#A80036" points="198.755,62,189.755,58,193.755,62,189.755,66,198.755,62" style="stroke: #A80036; stroke-width: 1.0;"/><line style="stroke: #A80036; stroke-width: 1.0;" x1="193.755" x2="185.755" y1="62" y2="62"/><polygon fill="#A80036" points="164.262,62,170.262,66,176.262,62,170.262,58,164.262,62" style="stroke: #A80036; stroke-width: 1.0;"/><path d="M258.459,128.805 C250.932,157.328 245.566,191.184 250,222 C252.251,237.648 256.29,254.212 260.724,269.462 " fill="none" style="stroke: #A80036; stroke-width: 1.0;"/><polygon fill="#A80036" points="264.511,281.914,265.7189,272.1395,263.056,277.1304,258.0651,274.4675,264.511,281.914" style="stroke: #A80036; stroke-width: 1.0;"/><line style="stroke: #A80036; stroke-width: 1.0;" x1="263.056" x2="260.729" y1="277.1304" y2="269.477"/><polygon fill="#FFFFFF" points="262.042,116.106,256.563,120.7944,258.7835,127.6551,264.2625,122.9667,262.042,116.106" style="stroke: #A80036; stroke-width: 1.0;"/><path d="M281,388.465 C281,399.443 281,410.911 281,421.878 " fill="none" style="stroke: #A80036; stroke-width: 1.0;"/><polygon fill="#A80036" points="281,434.9406,285,425.9406,281,429.9406,277,425.9406,281,434.9406" style="stroke: #A80036; stroke-width: 1.0;"/><line style="stroke: #A80036; stroke-width: 1.0;" x1="281" x2="281" y1="429.9406" y2="421.941"/><polygon fill="#A80036" points="281,375.215,277,381.215,281,387.215,285,381.215,281,375.215" style="stroke: #A80036; stroke-width: 1.0;"/><path d="M308.48,116.356 C318.795,137.139 330.04,159.796 338.06,175.958 " fill="none" style="stroke: #A80036; stroke-width: 1.0; stroke-dasharray: 7.0,7.0;"/><path d="M337.155,222.209 C328.403,238.619 316.183,261.533 305.375,281.796 " fill="none" style="stroke: #A80036; stroke-width: 1.0; stroke-dasharray: 7.0,7.0;"/></g></svg>