<?xml version="1.0" encoding="UTF-8" standalone="yes"?><svg xmlns="http://www.w3.org/2000/svg" xmlns:xlink="http://www.w3.org/1999/xlink" height="561px" style="width:440px;height:561px;" version="1.1" viewBox="0 0 440 561" width="440px"><defs><filter height="300%" id="frsdh3a" width="300%" x="-1" y="-1"><feGaussianBlur result="blurOut" stdDeviation="2.0"/><feColorMatrix in="blurOut" result="blurOut2" type="matrix" values="0 0 0 0 0 0 0 0 0 0 0 0 0 0 0 0 0 0 .4 0"/><feOffset dx="4.0" dy="4.0" in="blurOut2" result="blurOut3"/><feBlend in="SourceGraphic" in2="blurOut3" mode="normal"/></filter></defs><g><text fill="#000000" font-family="sans-serif" font-size="18" lengthAdjust="spacingAndGlyphs" textLength="174" x="137.5" y="20.6279">Android 资源相关类图</text><!--class ContextImpl--><rect fill="#FEFECE" filter="url(#frsdh3a)" height="93.0688" style="stroke: #A80036; stroke-width: 1.5;" width="158" x="6" y="40.083"/><ellipse cx="48.45" cy="56.083" fill="#ADD1B2" rx="11" ry="11" style="stroke: #A80036; stroke-width: 1.0;"/><path d="M47.0281,61.4424 Q45.1688,61.4424 44.075,60.0518 Q42.9813,58.6611 42.9813,55.6768 Q42.9813,53.1455 44.1453,51.4893 Q45.3094,49.833 47.2938,49.833 Q48.7625,49.833 49.2313,49.958 Q49.7,50.1611 49.7,50.1611 Q49.7,50.1611 49.7,50.0908 Q49.7,50.0205 50.3094,49.0986 L51.3563,52.7549 L50.0281,53.1611 Q49.5594,51.6143 48.8953,50.9502 Q48.2313,50.2861 47.1688,50.2861 Q46.7781,50.2861 46.0125,51.8174 Q45.2469,53.3486 45.2469,55.5986 Q45.2469,58.0674 45.9109,59.458 Q46.575,60.8486 47.1063,60.8486 Q48.1688,60.8486 48.9266,60.083 Q49.6844,59.3174 50.0281,57.6611 L51.3563,58.2549 Q51.0281,59.6611 50.1297,60.5518 Q49.2313,61.4424 47.0281,61.4424 Z "/><text fill="#000000" font-family="sans-serif" font-size="12" lengthAdjust="spacingAndGlyphs" textLength="65" x="68.55" y="61.6406">ContextImpl</text><line style="stroke: #A80036; stroke-width: 1.5;" x1="7" x2="163" y1="72.083" y2="72.083"/><rect fill="none" height="6" style="stroke: #C82930; stroke-width: 1.0;" width="6" x="14" y="82.0945"/><text fill="#000000" font-family="sans-serif" font-size="11" lengthAdjust="spacingAndGlyphs" textLength="105" x="26" y="88.689">Resource mResource</text><line style="stroke: #A80036; stroke-width: 1.5;" x1="7" x2="163" y1="95.106" y2="95.106"/><ellipse cx="17" cy="108.1174" fill="#84BE84" rx="3" ry="3" style="stroke: #038048; stroke-width: 1.0;"/><text fill="#000000" font-family="sans-serif" font-size="11" lengthAdjust="spacingAndGlyphs" textLength="126" x="26" y="111.7119">Resource getResources()</text><ellipse cx="17" cy="123.1404" fill="#84BE84" rx="3" ry="3" style="stroke: #038048; stroke-width: 1.0;"/><text fill="#000000" font-family="sans-serif" font-size="11" lengthAdjust="spacingAndGlyphs" textLength="132" x="26" y="126.7349">AssetManager getAssets()</text><!--class Resource--><rect fill="#FEFECE" filter="url(#frsdh3a)" height="108.0918" style="stroke: #A80036; stroke-width: 1.5;" width="166" x="199" y="32.583"/><ellipse cx="250.75" cy="48.583" fill="#ADD1B2" rx="11" ry="11" style="stroke: #A80036; stroke-width: 1.0;"/><path d="M249.3281,53.9424 Q247.4688,53.9424 246.375,52.5518 Q245.2813,51.1611 245.2813,48.1768 Q245.2813,45.6455 246.4453,43.9893 Q247.6094,42.333 249.5938,42.333 Q251.0625,42.333 251.5313,42.458 Q252,42.6611 252,42.6611 Q252,42.6611 252,42.5908 Q252,42.5205 252.6094,41.5986 L253.6563,45.2549 L252.3281,45.6611 Q251.8594,44.1143 251.1953,43.4502 Q250.5313,42.7861 249.4688,42.7861 Q249.0781,42.7861 248.3125,44.3174 Q247.5469,45.8486 247.5469,48.0986 Q247.5469,50.5674 248.2109,51.958 Q248.875,53.3486 249.4063,53.3486 Q250.4688,53.3486 251.2266,52.583 Q251.9844,51.8174 252.3281,50.1611 L253.6563,50.7549 Q253.3281,52.1611 252.4297,53.0518 Q251.5313,53.9424 249.3281,53.9424 Z "/><text fill="#000000" font-family="sans-serif" font-size="12" lengthAdjust="spacingAndGlyphs" textLength="54" x="271.25" y="54.1406">Resource</text><line style="stroke: #A80036; stroke-width: 1.5;" x1="200" x2="364" y1="64.583" y2="64.583"/><rect fill="none" height="6" style="stroke: #C82930; stroke-width: 1.0;" width="6" x="207" y="74.5945"/><text fill="#000000" font-family="sans-serif" font-size="11" lengthAdjust="spacingAndGlyphs" textLength="140" x="219" y="81.189">AssetManager_Java mAsset</text><rect fill="none" height="6" style="stroke: #C82930; stroke-width: 1.0;" width="6" x="207" y="89.6174"/><text fill="#000000" font-family="sans-serif" font-size="11" lengthAdjust="spacingAndGlyphs" textLength="94" x="219" y="96.2119">Resource mSystem</text><line style="stroke: #A80036; stroke-width: 1.5;" x1="200" x2="364" y1="102.6289" y2="102.6289"/><ellipse cx="210" cy="115.6404" fill="#84BE84" rx="3" ry="3" style="stroke: #038048; stroke-width: 1.0;"/><text fill="#000000" font-family="sans-serif" font-size="11" lengthAdjust="spacingAndGlyphs" textLength="132" x="219" y="119.2349">AssetManager getAssets()</text><ellipse cx="210" cy="130.6633" fill="#84BE84" rx="3" ry="3" style="stroke: #038048; stroke-width: 1.0;"/><text fill="#000000" font-family="sans-serif" font-size="11" lengthAdjust="spacingAndGlyphs" textLength="109" x="219" y="134.2578">Resource getSystem()</text><!--class AssetManager_Java--><rect fill="#FEFECE" filter="url(#frsdh3a)" height="93.0688" style="stroke: #A80036; stroke-width: 1.5;" width="188" x="187" y="306.583"/><ellipse cx="222.25" cy="322.583" fill="#ADD1B2" rx="11" ry="11" style="stroke: #A80036; stroke-width: 1.0;"/><path d="M220.8281,327.9424 Q218.9688,327.9424 217.875,326.5518 Q216.7813,325.1611 216.7813,322.1768 Q216.7813,319.6455 217.9453,317.9893 Q219.1094,316.333 221.0938,316.333 Q222.5625,316.333 223.0313,316.458 Q223.5,316.6611 223.5,316.6611 Q223.5,316.6611 223.5,316.5908 Q223.5,316.5205 224.1094,315.5986 L225.1563,319.2549 L223.8281,319.6611 Q223.3594,318.1143 222.6953,317.4502 Q222.0313,316.7861 220.9688,316.7861 Q220.5781,316.7861 219.8125,318.3174 Q219.0469,319.8486 219.0469,322.0986 Q219.0469,324.5674 219.7109,325.958 Q220.375,327.3486 220.9063,327.3486 Q221.9688,327.3486 222.7266,326.583 Q223.4844,325.8174 223.8281,324.1611 L225.1563,324.7549 Q224.8281,326.1611 223.9297,327.0518 Q223.0313,327.9424 220.8281,327.9424 Z "/><text fill="#000000" font-family="sans-serif" font-size="12" lengthAdjust="spacingAndGlyphs" textLength="111" x="240.75" y="328.1406">AssetManager_Java</text><line style="stroke: #A80036; stroke-width: 1.5;" x1="188" x2="374" y1="338.583" y2="338.583"/><rect fill="none" height="6" style="stroke: #C82930; stroke-width: 1.0;" width="6" x="195" y="348.5945"/><text fill="#000000" font-family="sans-serif" font-size="11" lengthAdjust="spacingAndGlyphs" textLength="145" x="207" y="355.189">AssetManager_Java sSystem</text><rect fill="none" height="6" style="stroke: #C82930; stroke-width: 1.0;" width="6" x="195" y="363.6174"/><text fill="#000000" font-family="sans-serif" font-size="11" lengthAdjust="spacingAndGlyphs" textLength="53" x="207" y="370.2119">int mObject</text><line style="stroke: #A80036; stroke-width: 1.5;" x1="188" x2="374" y1="376.6289" y2="376.6289"/><ellipse cx="198" cy="389.6404" fill="#84BE84" rx="3" ry="3" style="stroke: #038048; stroke-width: 1.0;"/><text fill="#000000" font-family="sans-serif" font-size="11" lengthAdjust="spacingAndGlyphs" textLength="162" x="207" y="393.2349">AssetManager_Java getSystem()</text><!--class AssetManager_C--><rect fill="#FEFECE" filter="url(#frsdh3a)" height="93.0688" style="stroke: #A80036; stroke-width: 1.5;" width="180" x="191" y="459.583"/><ellipse cx="229.85" cy="475.583" fill="#ADD1B2" rx="11" ry="11" style="stroke: #A80036; stroke-width: 1.0;"/><path d="M228.4281,480.9424 Q226.5688,480.9424 225.475,479.5518 Q224.3813,478.1611 224.3813,475.1768 Q224.3813,472.6455 225.5453,470.9893 Q226.7094,469.333 228.6938,469.333 Q230.1625,469.333 230.6313,469.458 Q231.1,469.6611 231.1,469.6611 Q231.1,469.6611 231.1,469.5908 Q231.1,469.5205 231.7094,468.5986 L232.7563,472.2549 L231.4281,472.6611 Q230.9594,471.1143 230.2953,470.4502 Q229.6313,469.7861 228.5688,469.7861 Q228.1781,469.7861 227.4125,471.3174 Q226.6469,472.8486 226.6469,475.0986 Q226.6469,477.5674 227.3109,478.958 Q227.975,480.3486 228.5063,480.3486 Q229.5688,480.3486 230.3266,479.583 Q231.0844,478.8174 231.4281,477.1611 L232.7563,477.7549 Q232.4281,479.1611 231.5297,480.0518 Q230.6313,480.9424 228.4281,480.9424 Z "/><text fill="#000000" font-family="sans-serif" font-size="12" lengthAdjust="spacingAndGlyphs" textLength="95" x="249.15" y="481.1406">AssetManager_C</text><line style="stroke: #A80036; stroke-width: 1.5;" x1="192" x2="370" y1="491.583" y2="491.583"/><rect fill="none" height="6" style="stroke: #C82930; stroke-width: 1.0;" width="6" x="199" y="501.5945"/><text fill="#000000" font-family="sans-serif" font-size="11" lengthAdjust="spacingAndGlyphs" textLength="154" x="211" y="508.189">Vetor&lt;asset_path&gt; mAssetPath</text><rect fill="none" height="6" style="stroke: #C82930; stroke-width: 1.0;" width="6" x="199" y="516.6174"/><text fill="#000000" font-family="sans-serif" font-size="11" lengthAdjust="spacingAndGlyphs" textLength="113" x="211" y="523.2119">ResTable* mResources</text><rect fill="none" height="6" style="stroke: #C82930; stroke-width: 1.0;" width="6" x="199" y="531.6404"/><text fill="#000000" font-family="sans-serif" font-size="11" lengthAdjust="spacingAndGlyphs" textLength="127" x="211" y="538.2349">ResTable_config* mConfig</text><line style="stroke: #A80036; stroke-width: 1.5;" x1="192" x2="370" y1="544.6519" y2="544.6519"/><polygon fill="#FBFB77" filter="url(#frsdh3a)" points="267,200.583,267,246.0918,431,246.0918,431,210.583,421,200.583,267,200.583" style="stroke: #A80036; stroke-width: 1.0;"/><line style="stroke: #A80036; stroke-width: 1.0;" x1="421" x2="421" y1="200.583" y2="210.583"/><line style="stroke: #A80036; stroke-width: 1.0;" x1="431" x2="421" y1="210.583" y2="210.583"/><text fill="#000000" font-family="sans-serif" font-size="13" lengthAdjust="spacingAndGlyphs" textLength="143" x="273" y="220.481">对于一份资源，由这两个</text><text fill="#000000" font-family="sans-serif" font-size="13" lengthAdjust="spacingAndGlyphs" textLength="130" x="273" y="238.2354">类通过完成资源的管理</text><path d="M177.466,86.583 C180.127,86.583 182.789,86.583 185.45,86.583 " fill="none" style="stroke: #A80036; stroke-width: 1.0;"/><polygon fill="#A80036" points="198.755,86.583,189.755,82.583,193.755,86.583,189.755,90.583,198.755,86.583" style="stroke: #A80036; stroke-width: 1.0;"/><line style="stroke: #A80036; stroke-width: 1.0;" x1="193.755" x2="185.755" y1="86.583" y2="86.583"/><polygon fill="#A80036" points="164.262,86.583,170.262,90.583,176.262,86.583,170.262,82.583,164.262,86.583" style="stroke: #A80036; stroke-width: 1.0;"/><path d="M258.459,153.388 C250.932,181.911 245.566,215.767 250,246.583 C252.251,262.231 256.29,278.795 260.724,294.045 " fill="none" style="stroke: #A80036; stroke-width: 1.0;"/><polygon fill="#A80036" points="264.511,306.497,265.7189,296.7225,263.056,301.7134,258.0651,299.0505,264.511,306.497" style="stroke: #A80036; stroke-width: 1.0;"/><line style="stroke: #A80036; stroke-width: 1.0;" x1="263.056" x2="260.729" y1="301.7134" y2="294.06"/><polygon fill="#FFFFFF" points="262.042,140.689,256.563,145.3774,258.7835,152.2381,264.2625,147.5497,262.042,140.689" style="stroke: #A80036; stroke-width: 1.0;"/><path d="M281,413.048 C281,424.026 281,435.494 281,446.461 " fill="none" style="stroke: #A80036; stroke-width: 1.0;"/><polygon fill="#A80036" points="281,459.5236,285,450.5236,281,454.5236,277,450.5236,281,459.5236" style="stroke: #A80036; stroke-width: 1.0;"/><line style="stroke: #A80036; stroke-width: 1.0;" x1="281" x2="281" y1="454.5236" y2="446.524"/><polygon fill="#A80036" points="281,399.798,277,405.798,281,411.798,285,405.798,281,399.798" style="stroke: #A80036; stroke-width: 1.0;"/><path d="M308.48,140.939 C318.795,161.722 330.04,184.379 338.06,200.541 " fill="none" style="stroke: #A80036; stroke-width: 1.0; stroke-dasharray: 7.0,7.0;"/><path d="M337.155,246.792 C328.403,263.202 316.183,286.116 305.375,306.379 " fill="none" style="stroke: #A80036; stroke-width: 1.0; stroke-dasharray: 7.0,7.0;"/></g></svg>