<?xml version="1.0" encoding="UTF-8" standalone="yes"?><svg xmlns="http://www.w3.org/2000/svg" xmlns:xlink="http://www.w3.org/1999/xlink" height="65px" style="width:242px;height:65px;" version="1.1" viewBox="0 0 242 65" width="242px"><defs><filter height="300%" id="fntul2i" width="300%" x="-1" y="-1"><feGaussianBlur result="blurOut" stdDeviation="2.0"/><feColorMatrix in="blurOut" result="blurOut2" type="matrix" values="0 0 0 0 0 0 0 0 0 0 0 0 0 0 0 0 0 0 .4 0"/><feOffset dx="4.0" dy="4.0" in="blurOut2" result="blurOut3"/><feBlend in="SourceGraphic" in2="blurOut3" mode="normal"/></filter></defs><g><!--class PluginManager--><rect fill="#FEFECE" filter="url(#fntul2i)" height="48" style="stroke: #A80036; stroke-width: 1.5;" width="115" x="6" y="8"/><ellipse cx="21" cy="24" fill="#ADD1B2" rx="11" ry="11" style="stroke: #A80036; stroke-width: 1.0;"/><path d="M19.5781,29.3594 Q17.7188,29.3594 16.625,27.9688 Q15.5313,26.5781 15.5313,23.5938 Q15.5313,21.0625 16.6953,19.4063 Q17.8594,17.75 19.8438,17.75 Q21.3125,17.75 21.7813,17.875 Q22.25,18.0781 22.25,18.0781 Q22.25,18.0781 22.25,18.0078 Q22.25,17.9375 22.8594,17.0156 L23.9063,20.6719 L22.5781,21.0781 Q22.1094,19.5313 21.4453,18.8672 Q20.7813,18.2031 19.7188,18.2031 Q19.3281,18.2031 18.5625,19.7344 Q17.7969,21.2656 17.7969,23.5156 Q17.7969,25.9844 18.4609,27.375 Q19.125,28.7656 19.6563,28.7656 Q20.7188,28.7656 21.4766,28 Q22.2344,27.2344 22.5781,25.5781 L23.9063,26.1719 Q23.5781,27.5781 22.6797,28.4688 Q21.7813,29.3594 19.5781,29.3594 Z "/><text fill="#000000" font-family="sans-serif" font-size="12" lengthAdjust="spacingAndGlyphs" textLength="83" x="35" y="29.5576">PluginManager</text><line style="stroke: #A80036; stroke-width: 1.5;" x1="7" x2="120" y1="40" y2="40"/><line style="stroke: #A80036; stroke-width: 1.5;" x1="7" x2="120" y1="48" y2="48"/><!--class Pluginfo--><rect fill="#FEFECE" filter="url(#fntul2i)" height="48" style="stroke: #A80036; stroke-width: 1.5;" width="77" x="156" y="8"/><ellipse cx="171" cy="24" fill="#ADD1B2" rx="11" ry="11" style="stroke: #A80036; stroke-width: 1.0;"/><path d="M169.5781,29.3594 Q167.7188,29.3594 166.625,27.9688 Q165.5313,26.5781 165.5313,23.5938 Q165.5313,21.0625 166.6953,19.4063 Q167.8594,17.75 169.8438,17.75 Q171.3125,17.75 171.7813,17.875 Q172.25,18.0781 172.25,18.0781 Q172.25,18.0781 172.25,18.0078 Q172.25,17.9375 172.8594,17.0156 L173.9063,20.6719 L172.5781,21.0781 Q172.1094,19.5313 171.4453,18.8672 Q170.7813,18.2031 169.7188,18.2031 Q169.3281,18.2031 168.5625,19.7344 Q167.7969,21.2656 167.7969,23.5156 Q167.7969,25.9844 168.4609,27.375 Q169.125,28.7656 169.6563,28.7656 Q170.7188,28.7656 171.4766,28 Q172.2344,27.2344 172.5781,25.5781 L173.9063,26.1719 Q173.5781,27.5781 172.6797,28.4688 Q171.7813,29.3594 169.5781,29.3594 Z "/><text fill="#000000" font-family="sans-serif" font-size="12" lengthAdjust="spacingAndGlyphs" textLength="45" x="185" y="29.5576">Pluginfo</text><line style="stroke: #A80036; stroke-width: 1.5;" x1="157" x2="232" y1="40" y2="40"/><line style="stroke: #A80036; stroke-width: 1.5;" x1="157" x2="232" y1="48" y2="48"/></g></svg>