<?xml version="1.0" encoding="UTF-8" standalone="yes"?><svg xmlns="http://www.w3.org/2000/svg" xmlns:xlink="http://www.w3.org/1999/xlink" height="412px" style="width:650px;height:412px;" version="1.1" viewBox="0 0 650 412" width="650px"><defs><filter height="300%" id="fe4n7ez" width="300%" x="-1" y="-1"><feGaussianBlur result="blurOut" stdDeviation="2.0"/><feColorMatrix in="blurOut" result="blurOut2" type="matrix" values="0 0 0 0 0 0 0 0 0 0 0 0 0 0 0 0 0 0 .4 0"/><feOffset dx="4.0" dy="4.0" in="blurOut2" result="blurOut3"/><feBlend in="SourceGraphic" in2="blurOut3" mode="normal"/></filter></defs><g><!--cluster Current Application--><rect fill="#FFFFFF" filter="url(#fe4n7ez)" height="93" style="stroke: #000000; stroke-width: 2.0;" width="490.9996" x="87.5304" y="24"/><path d="M233.5304,25 L233.5304,36.1201 L223.5304,46.1201 L87.5304,46.1201 " fill="#FFFFFF" style="stroke: #000000; stroke-width: 2.0;"/><text fill="#000000" font-family="sans-serif" font-size="14" font-weight="bold" lengthAdjust="spacingAndGlyphs" textLength="136" x="90.5304" y="41.0439">Current Application</text><!--cluster System Thread--><rect fill="#FFFFFF" filter="url(#fe4n7ez)" height="93" style="stroke: #000000; stroke-width: 2.0;" width="499.9996" x="87.5304" y="168"/><path d="M200.5304,169 L200.5304,180.1201 L190.5304,190.1201 L87.5304,190.1201 " fill="#FFFFFF" style="stroke: #000000; stroke-width: 2.0;"/><text fill="#000000" font-family="sans-serif" font-size="14" font-weight="bold" lengthAdjust="spacingAndGlyphs" textLength="103" x="90.5304" y="185.0439">System Thread</text><!--cluster New Application--><rect fill="#FFFFFF" filter="url(#fe4n7ez)" height="93" style="stroke: #000000; stroke-width: 2.0;" width="488.9996" x="97.5304" y="312"/><path d="M219.5304,313 L219.5304,324.1201 L209.5304,334.1201 L97.5304,334.1201 " fill="#FFFFFF" style="stroke: #000000; stroke-width: 2.0;"/><text fill="#000000" font-family="sans-serif" font-size="14" font-weight="bold" lengthAdjust="spacingAndGlyphs" textLength="112" x="100.5304" y="329.0439">New Application</text><!--entity C.ActivityThread--><rect fill="#FEFECE" filter="url(#fe4n7ez)" height="39.1201" style="stroke: #A80036; stroke-width: 1.5;" width="124" x="438.53" y="62"/><rect fill="#FEFECE" height="5" style="stroke: #A80036; stroke-width: 1.5;" width="10" x="433.53" y="67"/><rect fill="#FEFECE" height="5" style="stroke: #A80036; stroke-width: 1.5;" width="10" x="433.53" y="91.1201"/><text fill="#000000" font-family="sans-serif" font-size="14" lengthAdjust="spacingAndGlyphs" textLength="104" x="448.53" y="88.0439">C.ActivityThread</text><!--entity C.ApplicationThread--><rect fill="#FEFECE" filter="url(#fe4n7ez)" height="39.1201" style="stroke: #A80036; stroke-width: 1.5;" width="149" x="104.0304" y="62"/><rect fill="#FEFECE" height="5" style="stroke: #A80036; stroke-width: 1.5;" width="10" x="99.0304" y="67"/><rect fill="#FEFECE" height="5" style="stroke: #A80036; stroke-width: 1.5;" width="10" x="99.0304" y="91.1201"/><text fill="#000000" font-family="sans-serif" font-size="14" lengthAdjust="spacingAndGlyphs" textLength="129" x="114.0304" y="88.0439">C.ApplicationThread</text><!--entity ActivityManagerService--><rect fill="#FEFECE" filter="url(#fe4n7ez)" height="39.1201" style="stroke: #A80036; stroke-width: 1.5;" width="167" x="104.0304" y="206"/><rect fill="#FEFECE" height="5" style="stroke: #A80036; stroke-width: 1.5;" width="10" x="99.0304" y="211"/><rect fill="#FEFECE" height="5" style="stroke: #A80036; stroke-width: 1.5;" width="10" x="99.0304" y="235.1201"/><text fill="#000000" font-family="sans-serif" font-size="14" lengthAdjust="spacingAndGlyphs" textLength="147" x="114.0304" y="232.0439">ActivityManagerService</text><!--entity ActivityStack--><rect fill="#FEFECE" filter="url(#fe4n7ez)" height="39.1201" style="stroke: #A80036; stroke-width: 1.5;" width="99" x="472.03" y="206"/><rect fill="#FEFECE" height="5" style="stroke: #A80036; stroke-width: 1.5;" width="10" x="467.03" y="211"/><rect fill="#FEFECE" height="5" style="stroke: #A80036; stroke-width: 1.5;" width="10" x="467.03" y="235.1201"/><text fill="#000000" font-family="sans-serif" font-size="14" lengthAdjust="spacingAndGlyphs" textLength="79" x="482.03" y="232.0439">ActivityStack</text><!--entity N.ActivityThread--><rect fill="#FEFECE" filter="url(#fe4n7ez)" height="39.1201" style="stroke: #A80036; stroke-width: 1.5;" width="123" x="447.03" y="350"/><rect fill="#FEFECE" height="5" style="stroke: #A80036; stroke-width: 1.5;" width="10" x="442.03" y="355"/><rect fill="#FEFECE" height="5" style="stroke: #A80036; stroke-width: 1.5;" width="10" x="442.03" y="379.1201"/><text fill="#000000" font-family="sans-serif" font-size="14" lengthAdjust="spacingAndGlyphs" textLength="103" x="457.03" y="376.0439">N.ActivityThread</text><!--entity N.ApplicationThread--><rect fill="#FEFECE" filter="url(#fe4n7ez)" height="39.1201" style="stroke: #A80036; stroke-width: 1.5;" width="148" x="113.53" y="350"/><rect fill="#FEFECE" height="5" style="stroke: #A80036; stroke-width: 1.5;" width="10" x="108.53" y="355"/><rect fill="#FEFECE" height="5" style="stroke: #A80036; stroke-width: 1.5;" width="10" x="108.53" y="379.1201"/><text fill="#000000" font-family="sans-serif" font-size="14" lengthAdjust="spacingAndGlyphs" textLength="128" x="123.53" y="376.0439">N.ApplicationThread</text><path d="M173.034,101.021 C170.504,110.492 167.789,122.26 166.53,133 C163.791,156.379 170.826,182.5 177.479,200.829 " fill="none" style="stroke: #A80036; stroke-width: 1.0;"/><polygon fill="#A80036" points="179.337,205.784,179.9229,195.9526,177.5817,201.1022,172.432,198.7611,179.337,205.784" style="stroke: #A80036; stroke-width: 1.0;"/><text fill="#000000" font-family="sans-serif" font-size="13" lengthAdjust="spacingAndGlyphs" textLength="99" x="167.53" y="148.8979">1.start an activity</text><path d="M235.438,101.248 C249.692,108.796 263.264,119.105 271.53,133 C287.595,160.003 258.162,185.909 229.818,203.219 " fill="none" style="stroke: #A80036; stroke-width: 1.0;"/><polygon fill="#A80036" points="225.285,205.922,235.0635,204.7469,229.5791,203.3607,230.9654,197.8763,225.285,205.922" style="stroke: #A80036; stroke-width: 1.0;"/><text fill="#000000" font-family="sans-serif" font-size="13" lengthAdjust="spacingAndGlyphs" textLength="178" x="277.53" y="148.8979">4.check to create new process</text><path d="M103.589,210.695 C69.3685,200.489 33.0838,182.762 12.5304,152 C-12.7757,114.124 44.5853,96.848 98.6604,88.993 " fill="none" style="stroke: #A80036; stroke-width: 1.0;"/><polygon fill="#A80036" points="103.8804,88.261,94.4125,85.5484,98.9288,88.9547,95.5224,93.471,103.8804,88.261" style="stroke: #A80036; stroke-width: 1.0;"/><text fill="#000000" font-family="sans-serif" font-size="13" lengthAdjust="spacingAndGlyphs" textLength="144" x="13.5304" y="148.8979">5.1 scheduleStartActivity</text><path d="M271.382,225.5 C332.595,225.5 413.82,225.5 466.861,225.5 " fill="none" style="stroke: #A80036; stroke-width: 1.0;"/><polygon fill="#A80036" points="471.904,225.5,462.904,221.5,466.904,225.5,462.904,229.5,471.904,225.5" style="stroke: #A80036; stroke-width: 1.0;"/><text fill="#000000" font-family="sans-serif" font-size="13" lengthAdjust="spacingAndGlyphs" textLength="164" x="289.53" y="219.3979">2.prepare for start an activity</text><path d="M258.114,96.454 C342.553,111.273 463.986,132.632 464.53,133 C490.583,150.603 506.989,184.508 515.19,205.737 " fill="none" style="stroke: #A80036; stroke-width: 1.0;"/><polygon fill="#A80036" points="253.113,95.576,261.286,101.0716,258.0377,96.4404,262.669,93.1921,253.113,95.576" style="stroke: #A80036; stroke-width: 1.0;"/><text fill="#000000" font-family="sans-serif" font-size="13" lengthAdjust="spacingAndGlyphs" textLength="164" x="485.53" y="148.8979">3.prepare for start an activity</text><path d="M253.213,81.5 C307.657,81.5 380.797,81.5 433.397,81.5 " fill="none" style="stroke: #A80036; stroke-width: 1.0;"/><polygon fill="#A80036" points="438.422,81.5,429.422,77.5,433.422,81.5,429.422,85.5,438.422,81.5" style="stroke: #A80036; stroke-width: 1.0;"/><text fill="#000000" font-family="sans-serif" font-size="13" lengthAdjust="spacingAndGlyphs" textLength="149" x="271.28" y="75.3979">6.1 performLaunchActivity</text><path d="M187.53,245.064 C187.53,270.684 187.53,316.884 187.53,344.9174 " fill="none" style="stroke: #A80036; stroke-width: 1.0;"/><polygon fill="#A80036" points="187.53,349.9314,191.53,340.9314,187.53,344.9314,183.53,340.9314,187.53,349.9314" style="stroke: #A80036; stroke-width: 1.0;"/><text fill="#000000" font-family="sans-serif" font-size="13" lengthAdjust="spacingAndGlyphs" textLength="144" x="188.53" y="292.8979">5.2 scheduleStartActivity</text><path d="M261.577,369.5 C316.016,369.5 389.367,369.5 441.959,369.5 " fill="none" style="stroke: #A80036; stroke-width: 1.0;"/><polygon fill="#A80036" points="446.982,369.5,437.982,365.5,441.982,369.5,437.982,373.5,446.982,369.5" style="stroke: #A80036; stroke-width: 1.0;"/><text fill="#000000" font-family="sans-serif" font-size="13" lengthAdjust="spacingAndGlyphs" textLength="149" x="279.78" y="363.3979">6.2 performLaunchActivity</text></g></svg>