<?xml version="1.0" encoding="UTF-8" standalone="yes"?><svg xmlns="http://www.w3.org/2000/svg" xmlns:xlink="http://www.w3.org/1999/xlink" height="337px" style="width:663px;height:337px;" version="1.1" viewBox="0 0 663 337" width="663px"><defs><filter height="300%" id="foh75gg" width="300%" x="-1" y="-1"><feGaussianBlur result="blurOut" stdDeviation="2.0"/><feColorMatrix in="blurOut" result="blurOut2" type="matrix" values="0 0 0 0 0 0 0 0 0 0 0 0 0 0 0 0 0 0 .4 0"/><feOffset dx="4.0" dy="4.0" in="blurOut2" result="blurOut3"/><feBlend in="SourceGraphic" in2="blurOut3" mode="normal"/></filter></defs><g><rect fill="#FFFFFF" filter="url(#foh75gg)" height="31.7544" style="stroke: #A80036; stroke-width: 1.0;" width="10" x="101" y="74.1201"/><rect fill="#FFFFFF" filter="url(#foh75gg)" height="76.5088" style="stroke: #A80036; stroke-width: 1.0;" width="10" x="101" y="169.3833"/><rect fill="#FFFFFF" filter="url(#foh75gg)" height="31.7544" style="stroke: #A80036; stroke-width: 1.0;" width="10" x="261" y="105.8745"/><rect fill="#FFFFFF" filter="url(#foh75gg)" height="31.7544" style="stroke: #A80036; stroke-width: 1.0;" width="10" x="432" y="137.6289"/><rect fill="#FFFFFF" filter="url(#foh75gg)" height="31.7544" style="stroke: #A80036; stroke-width: 1.0;" width="10" x="432" y="245.8921"/><line style="stroke: #A80036; stroke-width: 1.0; stroke-dasharray: 5.0,5.0;" x1="105.5" x2="105.5" y1="41.1201" y2="296.4009"/><line style="stroke: #A80036; stroke-width: 1.0; stroke-dasharray: 5.0,5.0;" x1="265.5" x2="265.5" y1="41.1201" y2="296.4009"/><line style="stroke: #A80036; stroke-width: 1.0; stroke-dasharray: 5.0,5.0;" x1="436.5" x2="436.5" y1="41.1201" y2="296.4009"/><line style="stroke: #A80036; stroke-width: 1.0; stroke-dasharray: 5.0,5.0;" x1="604" x2="604" y1="41.1201" y2="296.4009"/><rect fill="#FEFECE" filter="url(#foh75gg)" height="33.1201" style="stroke: #A80036; stroke-width: 1.5;" width="161" x="23.5" y="3"/><text fill="#000000" font-family="sans-serif" font-size="14" lengthAdjust="spacingAndGlyphs" textLength="147" x="30.5" y="26.0439">ActivityManagerService</text><rect fill="#FEFECE" filter="url(#foh75gg)" height="33.1201" style="stroke: #A80036; stroke-width: 1.5;" width="161" x="23.5" y="295.4009"/><text fill="#000000" font-family="sans-serif" font-size="14" lengthAdjust="spacingAndGlyphs" textLength="147" x="30.5" y="318.4448">ActivityManagerService</text><rect fill="#FEFECE" filter="url(#foh75gg)" height="33.1201" style="stroke: #A80036; stroke-width: 1.5;" width="93" x="217.5" y="3"/><text fill="#000000" font-family="sans-serif" font-size="14" lengthAdjust="spacingAndGlyphs" textLength="79" x="224.5" y="26.0439">ActivityStack</text><rect fill="#FEFECE" filter="url(#foh75gg)" height="33.1201" style="stroke: #A80036; stroke-width: 1.5;" width="93" x="217.5" y="295.4009"/><text fill="#000000" font-family="sans-serif" font-size="14" lengthAdjust="spacingAndGlyphs" textLength="79" x="224.5" y="318.4448">ActivityStack</text><rect fill="#FEFECE" filter="url(#foh75gg)" height="33.1201" style="stroke: #A80036; stroke-width: 1.5;" width="129" x="370.5" y="3"/><text fill="#000000" font-family="sans-serif" font-size="14" lengthAdjust="spacingAndGlyphs" textLength="115" x="377.5" y="26.0439">ApplicationThread</text><rect fill="#FEFECE" filter="url(#foh75gg)" height="33.1201" style="stroke: #A80036; stroke-width: 1.5;" width="129" x="370.5" y="295.4009"/><text fill="#000000" font-family="sans-serif" font-size="14" lengthAdjust="spacingAndGlyphs" textLength="115" x="377.5" y="318.4448">ApplicationThread</text><rect fill="#FEFECE" filter="url(#foh75gg)" height="33.1201" style="stroke: #A80036; stroke-width: 1.5;" width="104" x="550" y="3"/><text fill="#000000" font-family="sans-serif" font-size="14" lengthAdjust="spacingAndGlyphs" textLength="90" x="557" y="26.0439">ActivityThread</text><rect fill="#FEFECE" filter="url(#foh75gg)" height="33.1201" style="stroke: #A80036; stroke-width: 1.5;" width="104" x="550" y="295.4009"/><text fill="#000000" font-family="sans-serif" font-size="14" lengthAdjust="spacingAndGlyphs" textLength="90" x="557" y="318.4448">ActivityThread</text><rect fill="#FFFFFF" filter="url(#foh75gg)" height="31.7544" style="stroke: #A80036; stroke-width: 1.0;" width="10" x="101" y="74.1201"/><rect fill="#FFFFFF" filter="url(#foh75gg)" height="76.5088" style="stroke: #A80036; stroke-width: 1.0;" width="10" x="101" y="169.3833"/><rect fill="#FFFFFF" filter="url(#foh75gg)" height="31.7544" style="stroke: #A80036; stroke-width: 1.0;" width="10" x="261" y="105.8745"/><rect fill="#FFFFFF" filter="url(#foh75gg)" height="31.7544" style="stroke: #A80036; stroke-width: 1.0;" width="10" x="432" y="137.6289"/><rect fill="#FFFFFF" filter="url(#foh75gg)" height="31.7544" style="stroke: #A80036; stroke-width: 1.0;" width="10" x="432" y="245.8921"/><polygon fill="#A80036" points="89,70.1201,99,74.1201,89,78.1201,93,74.1201" style="stroke: #A80036; stroke-width: 1.0;"/><line style="stroke: #A80036; stroke-width: 1.0;" x1="3" x2="95" y1="74.1201" y2="74.1201"/><text fill="#000000" font-family="sans-serif" font-size="13" font-weight="bold" lengthAdjust="spacingAndGlyphs" textLength="7" x="10" y="70.0181">1</text><text fill="#000000" font-family="sans-serif" font-size="13" lengthAdjust="spacingAndGlyphs" textLength="68" x="21" y="70.0181">startActivity</text><polygon fill="#A80036" points="249,101.8745,259,105.8745,249,109.8745,253,105.8745" style="stroke: #A80036; stroke-width: 1.0;"/><line style="stroke: #A80036; stroke-width: 1.0;" x1="106" x2="255" y1="105.8745" y2="105.8745"/><text fill="#000000" font-family="sans-serif" font-size="13" font-weight="bold" lengthAdjust="spacingAndGlyphs" textLength="7" x="113" y="101.7725">2</text><text fill="#000000" font-family="sans-serif" font-size="13" lengthAdjust="spacingAndGlyphs" textLength="120" x="124" y="101.7725">startActivityMayWait</text><polygon fill="#A80036" points="420,133.6289,430,137.6289,420,141.6289,424,137.6289" style="stroke: #A80036; stroke-width: 1.0;"/><line style="stroke: #A80036; stroke-width: 1.0;" x1="266" x2="426" y1="137.6289" y2="137.6289"/><text fill="#000000" font-family="sans-serif" font-size="13" font-weight="bold" lengthAdjust="spacingAndGlyphs" textLength="7" x="273" y="133.5269">3</text><text fill="#000000" font-family="sans-serif" font-size="13" lengthAdjust="spacingAndGlyphs" textLength="131" x="284" y="133.5269">schedulePauseActivity</text><polygon fill="#A80036" points="122,165.3833,112,169.3833,122,173.3833,118,169.3833" style="stroke: #A80036; stroke-width: 1.0;"/><line style="stroke: #A80036; stroke-width: 1.0;" x1="116" x2="436" y1="169.3833" y2="169.3833"/><text fill="#000000" font-family="sans-serif" font-size="13" font-weight="bold" lengthAdjust="spacingAndGlyphs" textLength="7" x="128" y="165.2813">4</text><text fill="#000000" font-family="sans-serif" font-size="13" lengthAdjust="spacingAndGlyphs" textLength="77" x="139" y="165.2813">activityPause</text><line style="stroke: #A80036; stroke-width: 1.0;" x1="111" x2="153" y1="201.8921" y2="201.8921"/><line style="stroke: #A80036; stroke-width: 1.0;" x1="153" x2="153" y1="201.8921" y2="214.8921"/><line style="stroke: #A80036; stroke-width: 1.0;" x1="112" x2="153" y1="214.8921" y2="214.8921"/><polygon fill="#A80036" points="122,210.8921,112,214.8921,122,218.8921,118,214.8921" style="stroke: #A80036; stroke-width: 1.0;"/><text fill="#000000" font-family="sans-serif" font-size="13" font-weight="bold" lengthAdjust="spacingAndGlyphs" textLength="7" x="118" y="197.0356">5</text><text fill="#000000" font-family="sans-serif" font-size="13" lengthAdjust="spacingAndGlyphs" textLength="116" x="129" y="197.0356">startProcessLocked</text><polygon fill="#A80036" points="420,241.8921,430,245.8921,420,249.8921,424,245.8921" style="stroke: #A80036; stroke-width: 1.0;"/><line style="stroke: #A80036; stroke-width: 1.0;" x1="106" x2="426" y1="245.8921" y2="245.8921"/><text fill="#000000" font-family="sans-serif" font-size="13" font-weight="bold" lengthAdjust="spacingAndGlyphs" textLength="7" x="113" y="241.79">6</text><text fill="#000000" font-family="sans-serif" font-size="13" lengthAdjust="spacingAndGlyphs" textLength="136" x="124" y="241.79">scheduleLaunchActivity</text><polygon fill="#A80036" points="592,273.6465,602,277.6465,592,281.6465,596,277.6465" style="stroke: #A80036; stroke-width: 1.0;"/><line style="stroke: #A80036; stroke-width: 1.0;" x1="437" x2="598" y1="277.6465" y2="277.6465"/><text fill="#000000" font-family="sans-serif" font-size="13" font-weight="bold" lengthAdjust="spacingAndGlyphs" textLength="7" x="444" y="273.5444">7</text><text fill="#000000" font-family="sans-serif" font-size="13" lengthAdjust="spacingAndGlyphs" textLength="127" x="455" y="273.5444">performLaunchActivity</text></g></svg>