<?xml version="1.0" encoding="UTF-8" standalone="yes"?><svg xmlns="http://www.w3.org/2000/svg" xmlns:xlink="http://www.w3.org/1999/xlink" height="546px" style="width:510px;height:546px;" version="1.1" viewBox="0 0 510 546" width="510px"><defs><filter height="300%" id="f8gzxj2" width="300%" x="-1" y="-1"><feGaussianBlur result="blurOut" stdDeviation="2.0"/><feColorMatrix in="blurOut" result="blurOut2" type="matrix" values="0 0 0 0 0 0 0 0 0 0 0 0 0 0 0 0 0 0 .4 0"/><feOffset dx="4.0" dy="4.0" in="blurOut2" result="blurOut3"/><feBlend in="SourceGraphic" in2="blurOut3" mode="normal"/></filter></defs><g><!--class AndroidResources--><rect fill="#FEFECE" filter="url(#f8gzxj2)" height="78.0459" style="stroke: #A80036; stroke-width: 1.5;" width="171" x="17" y="45"/><ellipse cx="48.2" cy="61" fill="#ADD1B2" rx="11" ry="11" style="stroke: #A80036; stroke-width: 1.0;"/><path d="M46.7781,66.3594 Q44.9188,66.3594 43.825,64.9688 Q42.7313,63.5781 42.7313,60.5938 Q42.7313,58.0625 43.8953,56.4063 Q45.0594,54.75 47.0438,54.75 Q48.5125,54.75 48.9813,54.875 Q49.45,55.0781 49.45,55.0781 Q49.45,55.0781 49.45,55.0078 Q49.45,54.9375 50.0594,54.0156 L51.1063,57.6719 L49.7781,58.0781 Q49.3094,56.5313 48.6453,55.8672 Q47.9813,55.2031 46.9188,55.2031 Q46.5281,55.2031 45.7625,56.7344 Q44.9969,58.2656 44.9969,60.5156 Q44.9969,62.9844 45.6609,64.375 Q46.325,65.7656 46.8563,65.7656 Q47.9188,65.7656 48.6766,65 Q49.4344,64.2344 49.7781,62.5781 L51.1063,63.1719 Q50.7781,64.5781 49.8797,65.4688 Q48.9813,66.3594 46.7781,66.3594 Z "/><text fill="#000000" font-family="sans-serif" font-size="12" lengthAdjust="spacingAndGlyphs" textLength="103" x="65.8" y="66.5576">AndroidResources</text><line style="stroke: #A80036; stroke-width: 1.5;" x1="18" x2="187" y1="77" y2="77"/><text fill="#000000" font-family="sans-serif" font-size="11" lengthAdjust="spacingAndGlyphs" textLength="159" x="23" y="93.606">Android应用程序的资源可以分为</text><text fill="#000000" font-family="sans-serif" font-size="11" lengthAdjust="spacingAndGlyphs" textLength="81" x="23" y="108.6289">Asset和Res两种</text><line style="stroke: #A80036; stroke-width: 1.5;" x1="18" x2="187" y1="115.0459" y2="115.0459"/><!--class Assets--><rect fill="#FEFECE" filter="url(#f8gzxj2)" height="134.1377" style="stroke: #A80036; stroke-width: 1.5;" width="193" x="6" y="235"/><ellipse cx="79.25" cy="251" fill="#ADD1B2" rx="11" ry="11" style="stroke: #A80036; stroke-width: 1.0;"/><path d="M77.8281,256.3594 Q75.9688,256.3594 74.875,254.9688 Q73.7813,253.5781 73.7813,250.5938 Q73.7813,248.0625 74.9453,246.4063 Q76.1094,244.75 78.0938,244.75 Q79.5625,244.75 80.0313,244.875 Q80.5,245.0781 80.5,245.0781 Q80.5,245.0781 80.5,245.0078 Q80.5,244.9375 81.1094,244.0156 L82.1563,247.6719 L80.8281,248.0781 Q80.3594,246.5313 79.6953,245.8672 Q79.0313,245.2031 77.9688,245.2031 Q77.5781,245.2031 76.8125,246.7344 Q76.0469,248.2656 76.0469,250.5156 Q76.0469,252.9844 76.7109,254.375 Q77.375,255.7656 77.9063,255.7656 Q78.9688,255.7656 79.7266,255 Q80.4844,254.2344 80.8281,252.5781 L82.1563,253.1719 Q81.8281,254.5781 80.9297,255.4688 Q80.0313,256.3594 77.8281,256.3594 Z "/><text fill="#000000" font-family="sans-serif" font-size="12" lengthAdjust="spacingAndGlyphs" textLength="38" x="99.75" y="256.5576">Assets</text><line style="stroke: #A80036; stroke-width: 1.5;" x1="7" x2="198" y1="267" y2="267"/><text fill="#000000" font-family="sans-serif" font-size="11" lengthAdjust="spacingAndGlyphs" textLength="133" x="12" y="283.606">1. 放置在项目assets目录下</text><text fill="#000000" font-family="sans-serif" font-size="11" lengthAdjust="spacingAndGlyphs" textLength="176" x="12" y="298.6289">2. 存放原始文件会被直接打包到APK</text><text fill="#000000" font-family="sans-serif" font-size="11" lengthAdjust="spacingAndGlyphs" textLength="142" x="12" y="313.6519">3. 没有ID只能通过文件名访问</text><text fill="#000000" font-family="sans-serif" font-size="11" lengthAdjust="spacingAndGlyphs" textLength="161" x="12" y="347.6978">AssetManager am = getAssets();</text><text fill="#000000" font-family="sans-serif" font-size="11" lengthAdjust="spacingAndGlyphs" textLength="181" x="12" y="362.7207">InputStream is = am.open("fileName");</text><line style="stroke: #A80036; stroke-width: 1.0; stroke-dasharray: 1.0,2.0;" x1="7" x2="80.5" y1="327.5803" y2="327.5803"/><text fill="#000000" font-family="sans-serif" font-size="11" lengthAdjust="spacingAndGlyphs" textLength="44" x="80.5" y="332.1748">访问方式</text><line style="stroke: #A80036; stroke-width: 1.0; stroke-dasharray: 1.0,2.0;" x1="124.5" x2="198" y1="327.5803" y2="327.5803"/><!--class Res--><rect fill="#FEFECE" filter="url(#f8gzxj2)" height="164.1836" style="stroke: #A80036; stroke-width: 1.5;" width="123" x="267" y="220"/><ellipse cx="312.75" cy="236" fill="#ADD1B2" rx="11" ry="11" style="stroke: #A80036; stroke-width: 1.0;"/><path d="M311.3281,241.3594 Q309.4688,241.3594 308.375,239.9688 Q307.2813,238.5781 307.2813,235.5938 Q307.2813,233.0625 308.4453,231.4063 Q309.6094,229.75 311.5938,229.75 Q313.0625,229.75 313.5313,229.875 Q314,230.0781 314,230.0781 Q314,230.0781 314,230.0078 Q314,229.9375 314.6094,229.0156 L315.6563,232.6719 L314.3281,233.0781 Q313.8594,231.5313 313.1953,230.8672 Q312.5313,230.2031 311.4688,230.2031 Q311.0781,230.2031 310.3125,231.7344 Q309.5469,233.2656 309.5469,235.5156 Q309.5469,237.9844 310.2109,239.375 Q310.875,240.7656 311.4063,240.7656 Q312.4688,240.7656 313.2266,240 Q313.9844,239.2344 314.3281,237.5781 L315.6563,238.1719 Q315.3281,239.5781 314.4297,240.4688 Q313.5313,241.3594 311.3281,241.3594 Z "/><text fill="#000000" font-family="sans-serif" font-size="12" lengthAdjust="spacingAndGlyphs" textLength="23" x="333.25" y="241.5576">Res</text><line style="stroke: #A80036; stroke-width: 1.5;" x1="268" x2="389" y1="252" y2="252"/><text fill="#000000" font-family="sans-serif" font-size="11" lengthAdjust="spacingAndGlyphs" textLength="94" x="273" y="268.606">1. 位于res子目录下</text><text fill="#000000" font-family="sans-serif" font-size="11" lengthAdjust="spacingAndGlyphs" textLength="111" x="273" y="283.6289">2. 大部分文件会被编译</text><text fill="#000000" font-family="sans-serif" font-size="11" lengthAdjust="spacingAndGlyphs" textLength="76" x="273" y="298.6519">3. 都会被赋予ID</text><text fill="#000000" font-family="sans-serif" font-size="11" lengthAdjust="spacingAndGlyphs" textLength="95" x="273" y="313.6748">4. 大致有9中子类型</text><text fill="#000000" font-family="sans-serif" font-size="11" lengthAdjust="spacingAndGlyphs" textLength="96" x="273" y="347.7207">anim/animator/color/</text><text fill="#000000" font-family="sans-serif" font-size="11" lengthAdjust="spacingAndGlyphs" textLength="110" x="273" y="362.7437">drawable/layout/menu/</text><text fill="#000000" font-family="sans-serif" font-size="11" lengthAdjust="spacingAndGlyphs" textLength="74" x="273" y="377.7666">raw/values/xml</text><line style="stroke: #A80036; stroke-width: 1.0; stroke-dasharray: 1.0,2.0;" x1="268" x2="312" y1="327.6033" y2="327.6033"/><text fill="#000000" font-family="sans-serif" font-size="11" lengthAdjust="spacingAndGlyphs" textLength="33" x="312" y="332.1978">子类型</text><line style="stroke: #A80036; stroke-width: 1.0; stroke-dasharray: 1.0,2.0;" x1="345" x2="389" y1="327.6033" y2="327.6033"/><!--class Raw--><rect fill="#FEFECE" filter="url(#f8gzxj2)" height="93.0688" style="stroke: #A80036; stroke-width: 1.5;" width="154" x="251.5" y="444"/><ellipse cx="311.75" cy="460" fill="#ADD1B2" rx="11" ry="11" style="stroke: #A80036; stroke-width: 1.0;"/><path d="M310.3281,465.3594 Q308.4688,465.3594 307.375,463.9688 Q306.2813,462.5781 306.2813,459.5938 Q306.2813,457.0625 307.4453,455.4063 Q308.6094,453.75 310.5938,453.75 Q312.0625,453.75 312.5313,453.875 Q313,454.0781 313,454.0781 Q313,454.0781 313,454.0078 Q313,453.9375 313.6094,453.0156 L314.6563,456.6719 L313.3281,457.0781 Q312.8594,455.5313 312.1953,454.8672 Q311.5313,454.2031 310.4688,454.2031 Q310.0781,454.2031 309.3125,455.7344 Q308.5469,457.2656 308.5469,459.5156 Q308.5469,461.9844 309.2109,463.375 Q309.875,464.7656 310.4063,464.7656 Q311.4688,464.7656 312.2266,464 Q312.9844,463.2344 313.3281,461.5781 L314.6563,462.1719 Q314.3281,463.5781 313.4297,464.4688 Q312.5313,465.3594 310.3281,465.3594 Z "/><text fill="#000000" font-family="sans-serif" font-size="12" lengthAdjust="spacingAndGlyphs" textLength="25" x="332.25" y="465.5576">Raw</text><line style="stroke: #A80036; stroke-width: 1.5;" x1="252.5" x2="404.5" y1="476" y2="476"/><text fill="#000000" font-family="sans-serif" font-size="11" lengthAdjust="spacingAndGlyphs" textLength="128" x="257.5" y="492.606">和Asset一样放置原始文件</text><text fill="#000000" font-family="sans-serif" font-size="11" lengthAdjust="spacingAndGlyphs" textLength="131" x="257.5" y="507.6289">并且会被直接打包到APK中</text><text fill="#000000" font-family="sans-serif" font-size="11" lengthAdjust="spacingAndGlyphs" textLength="142" x="257.5" y="522.6519">区别在于Raw可以通过ID访问</text><line style="stroke: #A80036; stroke-width: 1.5;" x1="252.5" x2="404.5" y1="529.0688" y2="529.0688"/><polygon fill="#FBFB77" filter="url(#f8gzxj2)" points="223.5,8,223.5,160.0352,501.5,160.0352,501.5,18,491.5,8,223.5,8" style="stroke: #A80036; stroke-width: 1.0;"/><polygon fill="#FBFB77" points="223.5,8,223.5,160.0352,346.656,160.0352,341.286,219.771,354.656,160.0352,501.5,160.0352,501.5,18,491.5,8,223.5,8" style="stroke: #A80036; stroke-width: 1.0;"/><line style="stroke: #A80036; stroke-width: 1.0;" x1="491.5" x2="491.5" y1="8" y2="18"/><line style="stroke: #A80036; stroke-width: 1.0;" x1="501.5" x2="491.5" y1="18" y2="18"/><text fill="#000000" font-family="sans-serif" font-size="13" lengthAdjust="spacingAndGlyphs" textLength="257" x="229.5" y="27.8979">1. 描述的9中子类型中除了Raw和Bitmap类型</text><text fill="#000000" font-family="sans-serif" font-size="13" lengthAdjust="spacingAndGlyphs" textLength="246" x="229.5" y="45.6523">之外的所有XML文件在编译成二进制的时候</text><text fill="#000000" font-family="sans-serif" font-size="13" lengthAdjust="spacingAndGlyphs" textLength="247" x="229.5" y="63.4067">每个文件都会有一个字符串资源池用来替换</text><text fill="#000000" font-family="sans-serif" font-size="13" lengthAdjust="spacingAndGlyphs" textLength="130" x="229.5" y="81.1611">文件中所使用的字符串</text><text fill="#000000" font-family="sans-serif" font-size="13" lengthAdjust="spacingAndGlyphs" textLength="241" x="229.5" y="98.9155">2. 每个res在编译完成之后都会被分配一个</text><text fill="#000000" font-family="sans-serif" font-size="13" lengthAdjust="spacingAndGlyphs" textLength="216" x="229.5" y="116.6699">常量ID放置在R.java中用于资源的访问</text><text fill="#000000" font-family="sans-serif" font-size="13" lengthAdjust="spacingAndGlyphs" textLength="249" x="229.5" y="134.4243">3. 打包编译完成之后会产生一个资源映射表</text><text fill="#000000" font-family="sans-serif" font-size="13" lengthAdjust="spacingAndGlyphs" textLength="112" x="229.5" y="152.1787">文件resources.arsc</text><path d="M102.5,143.417 C102.5,171.663 102.5,205.688 102.5,234.882 " fill="none" style="stroke: #A80036; stroke-width: 1.0;"/><polygon fill="none" points="95.5001,143.119,102.5,123.119,109.5,143.119,95.5001,143.119" style="stroke: #A80036; stroke-width: 1.0;"/><path d="M156.896,136.99 C190.043,168.669 232.49,209.239 266.875,242.102 " fill="none" style="stroke: #A80036; stroke-width: 1.0;"/><polygon fill="none" points="152.006,141.998,142.384,123.119,161.679,131.877,152.006,141.998" style="stroke: #A80036; stroke-width: 1.0;"/><path d="M328.5,404.468 C328.5,418.24 328.5,431.771 328.5,443.8471 " fill="none" style="stroke: #A80036; stroke-width: 1.0;"/><polygon fill="none" points="321.5,404.259,328.5,384.259,335.5,404.259,321.5,404.259" style="stroke: #A80036; stroke-width: 1.0;"/></g></svg>