<?xml version="1.0" encoding="UTF-8" standalone="yes"?><svg xmlns="http://www.w3.org/2000/svg" xmlns:xlink="http://www.w3.org/1999/xlink" height="173px" style="width:168px;height:173px;" version="1.1" viewBox="0 0 168 173" width="168px"><defs><filter height="300%" id="fv1hen1" width="300%" x="-1" y="-1"><feGaussianBlur result="blurOut" stdDeviation="2.0"/><feColorMatrix in="blurOut" result="blurOut2" type="matrix" values="0 0 0 0 0 0 0 0 0 0 0 0 0 0 0 0 0 0 .4 0"/><feOffset dx="4.0" dy="4.0" in="blurOut2" result="blurOut3"/><feBlend in="SourceGraphic" in2="blurOut3" mode="normal"/></filter></defs><g><!--class AndroidResources--><rect fill="#FEFECE" filter="url(#fv1hen1)" height="48" style="stroke: #A80036; stroke-width: 1.5;" width="135" x="17" y="8"/><ellipse cx="32" cy="24" fill="#ADD1B2" rx="11" ry="11" style="stroke: #A80036; stroke-width: 1.0;"/><path d="M30.5781,29.3594 Q28.7188,29.3594 27.625,27.9688 Q26.5313,26.5781 26.5313,23.5938 Q26.5313,21.0625 27.6953,19.4063 Q28.8594,17.75 30.8438,17.75 Q32.3125,17.75 32.7813,17.875 Q33.25,18.0781 33.25,18.0781 Q33.25,18.0781 33.25,18.0078 Q33.25,17.9375 33.8594,17.0156 L34.9063,20.6719 L33.5781,21.0781 Q33.1094,19.5313 32.4453,18.8672 Q31.7813,18.2031 30.7188,18.2031 Q30.3281,18.2031 29.5625,19.7344 Q28.7969,21.2656 28.7969,23.5156 Q28.7969,25.9844 29.4609,27.375 Q30.125,28.7656 30.6563,28.7656 Q31.7188,28.7656 32.4766,28 Q33.2344,27.2344 33.5781,25.5781 L34.9063,26.1719 Q34.5781,27.5781 33.6797,28.4688 Q32.7813,29.3594 30.5781,29.3594 Z "/><text fill="#000000" font-family="sans-serif" font-size="12" lengthAdjust="spacingAndGlyphs" textLength="103" x="46" y="29.5576">AndroidResources</text><line style="stroke: #A80036; stroke-width: 1.5;" x1="18" x2="151" y1="40" y2="40"/><line style="stroke: #A80036; stroke-width: 1.5;" x1="18" x2="151" y1="48" y2="48"/><!--class Asset--><rect fill="#FEFECE" filter="url(#fv1hen1)" height="48" style="stroke: #A80036; stroke-width: 1.5;" width="63" x="6" y="116"/><ellipse cx="21" cy="132" fill="#ADD1B2" rx="11" ry="11" style="stroke: #A80036; stroke-width: 1.0;"/><path d="M19.5781,137.3594 Q17.7188,137.3594 16.625,135.9688 Q15.5313,134.5781 15.5313,131.5938 Q15.5313,129.0625 16.6953,127.4063 Q17.8594,125.75 19.8438,125.75 Q21.3125,125.75 21.7813,125.875 Q22.25,126.0781 22.25,126.0781 Q22.25,126.0781 22.25,126.0078 Q22.25,125.9375 22.8594,125.0156 L23.9063,128.6719 L22.5781,129.0781 Q22.1094,127.5313 21.4453,126.8672 Q20.7813,126.2031 19.7188,126.2031 Q19.3281,126.2031 18.5625,127.7344 Q17.7969,129.2656 17.7969,131.5156 Q17.7969,133.9844 18.4609,135.375 Q19.125,136.7656 19.6563,136.7656 Q20.7188,136.7656 21.4766,136 Q22.2344,135.2344 22.5781,133.5781 L23.9063,134.1719 Q23.5781,135.5781 22.6797,136.4688 Q21.7813,137.3594 19.5781,137.3594 Z "/><text fill="#000000" font-family="sans-serif" font-size="12" lengthAdjust="spacingAndGlyphs" textLength="31" x="35" y="137.5576">Asset</text><line style="stroke: #A80036; stroke-width: 1.5;" x1="7" x2="68" y1="148" y2="148"/><line style="stroke: #A80036; stroke-width: 1.5;" x1="7" x2="68" y1="156" y2="156"/><!--class Res--><rect fill="#FEFECE" filter="url(#fv1hen1)" height="48" style="stroke: #A80036; stroke-width: 1.5;" width="55" x="104" y="116"/><ellipse cx="119" cy="132" fill="#ADD1B2" rx="11" ry="11" style="stroke: #A80036; stroke-width: 1.0;"/><path d="M117.5781,137.3594 Q115.7188,137.3594 114.625,135.9688 Q113.5313,134.5781 113.5313,131.5938 Q113.5313,129.0625 114.6953,127.4063 Q115.8594,125.75 117.8438,125.75 Q119.3125,125.75 119.7813,125.875 Q120.25,126.0781 120.25,126.0781 Q120.25,126.0781 120.25,126.0078 Q120.25,125.9375 120.8594,125.0156 L121.9063,128.6719 L120.5781,129.0781 Q120.1094,127.5313 119.4453,126.8672 Q118.7813,126.2031 117.7188,126.2031 Q117.3281,126.2031 116.5625,127.7344 Q115.7969,129.2656 115.7969,131.5156 Q115.7969,133.9844 116.4609,135.375 Q117.125,136.7656 117.6563,136.7656 Q118.7188,136.7656 119.4766,136 Q120.2344,135.2344 120.5781,133.5781 L121.9063,134.1719 Q121.5781,135.5781 120.6797,136.4688 Q119.7813,137.3594 117.5781,137.3594 Z "/><text fill="#000000" font-family="sans-serif" font-size="12" lengthAdjust="spacingAndGlyphs" textLength="23" x="133" y="137.5576">Res</text><line style="stroke: #A80036; stroke-width: 1.5;" x1="105" x2="158" y1="148" y2="148"/><line style="stroke: #A80036; stroke-width: 1.5;" x1="105" x2="158" y1="156" y2="156"/><path d="M66.0659,74.5748 C59.8725,88.5428 53.1863,103.6224 47.8407,115.6784 " fill="none" style="stroke: #A80036; stroke-width: 1.0;"/><polygon fill="none" points="59.7957,71.4464,74.3017,56,72.594,77.1212,59.7957,71.4464" style="stroke: #A80036; stroke-width: 1.0;"/><path d="M102.9341,74.5748 C109.127,88.5428 115.814,103.6224 121.159,115.6784 " fill="none" style="stroke: #A80036; stroke-width: 1.0;"/><polygon fill="none" points="96.406,77.1212,94.6983,56,109.204,71.4464,96.406,77.1212" style="stroke: #A80036; stroke-width: 1.0;"/></g></svg>