<?xml version="1.0" encoding="UTF-8" standalone="yes"?><svg xmlns="http://www.w3.org/2000/svg" xmlns:xlink="http://www.w3.org/1999/xlink" height="546px" style="width:673px;height:546px;" version="1.1" viewBox="0 0 673 546" width="673px"><defs><filter height="300%" id="f0m41h6" width="300%" x="-1" y="-1"><feGaussianBlur result="blurOut" stdDeviation="2.0"/><feColorMatrix in="blurOut" result="blurOut2" type="matrix" values="0 0 0 0 0 0 0 0 0 0 0 0 0 0 0 0 0 0 .4 0"/><feOffset dx="4.0" dy="4.0" in="blurOut2" result="blurOut3"/><feBlend in="SourceGraphic" in2="blurOut3" mode="normal"/></filter></defs><g><!--class AndroidResources--><rect fill="#FEFECE" filter="url(#f0m41h6)" height="78.0459" style="stroke: #A80036; stroke-width: 1.5;" width="171" x="180" y="45"/><ellipse cx="211.2" cy="61" fill="#ADD1B2" rx="11" ry="11" style="stroke: #A80036; stroke-width: 1.0;"/><path d="M209.7781,66.3594 Q207.9188,66.3594 206.825,64.9688 Q205.7313,63.5781 205.7313,60.5938 Q205.7313,58.0625 206.8953,56.4063 Q208.0594,54.75 210.0438,54.75 Q211.5125,54.75 211.9813,54.875 Q212.45,55.0781 212.45,55.0781 Q212.45,55.0781 212.45,55.0078 Q212.45,54.9375 213.0594,54.0156 L214.1063,57.6719 L212.7781,58.0781 Q212.3094,56.5313 211.6453,55.8672 Q210.9813,55.2031 209.9188,55.2031 Q209.5281,55.2031 208.7625,56.7344 Q207.9969,58.2656 207.9969,60.5156 Q207.9969,62.9844 208.6609,64.375 Q209.325,65.7656 209.8563,65.7656 Q210.9188,65.7656 211.6766,65 Q212.4344,64.2344 212.7781,62.5781 L214.1063,63.1719 Q213.7781,64.5781 212.8797,65.4688 Q211.9813,66.3594 209.7781,66.3594 Z "/><text fill="#000000" font-family="sans-serif" font-size="12" lengthAdjust="spacingAndGlyphs" textLength="103" x="228.8" y="66.5576">AndroidResources</text><line style="stroke: #A80036; stroke-width: 1.5;" x1="181" x2="350" y1="77" y2="77"/><text fill="#000000" font-family="sans-serif" font-size="11" lengthAdjust="spacingAndGlyphs" textLength="159" x="186" y="93.606">Android应用程序的资源可以分为</text><text fill="#000000" font-family="sans-serif" font-size="11" lengthAdjust="spacingAndGlyphs" textLength="81" x="186" y="108.6289">Asset和Res两种</text><line style="stroke: #A80036; stroke-width: 1.5;" x1="181" x2="350" y1="115.0459" y2="115.0459"/><!--class Assets--><rect fill="#FEFECE" filter="url(#f0m41h6)" height="134.1377" style="stroke: #A80036; stroke-width: 1.5;" width="193" x="6" y="235"/><ellipse cx="79.25" cy="251" fill="#ADD1B2" rx="11" ry="11" style="stroke: #A80036; stroke-width: 1.0;"/><path d="M77.8281,256.3594 Q75.9688,256.3594 74.875,254.9688 Q73.7813,253.5781 73.7813,250.5938 Q73.7813,248.0625 74.9453,246.4063 Q76.1094,244.75 78.0938,244.75 Q79.5625,244.75 80.0313,244.875 Q80.5,245.0781 80.5,245.0781 Q80.5,245.0781 80.5,245.0078 Q80.5,244.9375 81.1094,244.0156 L82.1563,247.6719 L80.8281,248.0781 Q80.3594,246.5313 79.6953,245.8672 Q79.0313,245.2031 77.9688,245.2031 Q77.5781,245.2031 76.8125,246.7344 Q76.0469,248.2656 76.0469,250.5156 Q76.0469,252.9844 76.7109,254.375 Q77.375,255.7656 77.9063,255.7656 Q78.9688,255.7656 79.7266,255 Q80.4844,254.2344 80.8281,252.5781 L82.1563,253.1719 Q81.8281,254.5781 80.9297,255.4688 Q80.0313,256.3594 77.8281,256.3594 Z "/><text fill="#000000" font-family="sans-serif" font-size="12" lengthAdjust="spacingAndGlyphs" textLength="38" x="99.75" y="256.5576">Assets</text><line style="stroke: #A80036; stroke-width: 1.5;" x1="7" x2="198" y1="267" y2="267"/><text fill="#000000" font-family="sans-serif" font-size="11" lengthAdjust="spacingAndGlyphs" textLength="133" x="12" y="283.606">1. 放置在项目assets目录下</text><text fill="#000000" font-family="sans-serif" font-size="11" lengthAdjust="spacingAndGlyphs" textLength="176" x="12" y="298.6289">2. 存放原始文件会被直接打包到APK</text><text fill="#000000" font-family="sans-serif" font-size="11" lengthAdjust="spacingAndGlyphs" textLength="142" x="12" y="313.6519">3. 没有ID只能通过文件名访问</text><text fill="#000000" font-family="sans-serif" font-size="11" lengthAdjust="spacingAndGlyphs" textLength="161" x="12" y="347.6978">AssetManager am = getAssets();</text><text fill="#000000" font-family="sans-serif" font-size="11" lengthAdjust="spacingAndGlyphs" textLength="181" x="12" y="362.7207">InputStream is = am.open("fileName");</text><line style="stroke: #A80036; stroke-width: 1.0; stroke-dasharray: 1.0,2.0;" x1="7" x2="80.5" y1="327.5803" y2="327.5803"/><text fill="#000000" font-family="sans-serif" font-size="11" lengthAdjust="spacingAndGlyphs" textLength="44" x="80.5" y="332.1748">访问方式</text><line style="stroke: #A80036; stroke-width: 1.0; stroke-dasharray: 1.0,2.0;" x1="124.5" x2="198" y1="327.5803" y2="327.5803"/><!--class Res--><rect fill="#FEFECE" filter="url(#f0m41h6)" height="164.1836" style="stroke: #A80036; stroke-width: 1.5;" width="123" x="332" y="220"/><ellipse cx="377.75" cy="236" fill="#ADD1B2" rx="11" ry="11" style="stroke: #A80036; stroke-width: 1.0;"/><path d="M376.3281,241.3594 Q374.4688,241.3594 373.375,239.9688 Q372.2813,238.5781 372.2813,235.5938 Q372.2813,233.0625 373.4453,231.4063 Q374.6094,229.75 376.5938,229.75 Q378.0625,229.75 378.5313,229.875 Q379,230.0781 379,230.0781 Q379,230.0781 379,230.0078 Q379,229.9375 379.6094,229.0156 L380.6563,232.6719 L379.3281,233.0781 Q378.8594,231.5313 378.1953,230.8672 Q377.5313,230.2031 376.4688,230.2031 Q376.0781,230.2031 375.3125,231.7344 Q374.5469,233.2656 374.5469,235.5156 Q374.5469,237.9844 375.2109,239.375 Q375.875,240.7656 376.4063,240.7656 Q377.4688,240.7656 378.2266,240 Q378.9844,239.2344 379.3281,237.5781 L380.6563,238.1719 Q380.3281,239.5781 379.4297,240.4688 Q378.5313,241.3594 376.3281,241.3594 Z "/><text fill="#000000" font-family="sans-serif" font-size="12" lengthAdjust="spacingAndGlyphs" textLength="23" x="398.25" y="241.5576">Res</text><line style="stroke: #A80036; stroke-width: 1.5;" x1="333" x2="454" y1="252" y2="252"/><text fill="#000000" font-family="sans-serif" font-size="11" lengthAdjust="spacingAndGlyphs" textLength="94" x="338" y="268.606">1. 位于res子目录下</text><text fill="#000000" font-family="sans-serif" font-size="11" lengthAdjust="spacingAndGlyphs" textLength="111" x="338" y="283.6289">2. 大部分文件会被编译</text><text fill="#000000" font-family="sans-serif" font-size="11" lengthAdjust="spacingAndGlyphs" textLength="76" x="338" y="298.6519">3. 都会被赋予ID</text><text fill="#000000" font-family="sans-serif" font-size="11" lengthAdjust="spacingAndGlyphs" textLength="95" x="338" y="313.6748">4. 大致有9中子类型</text><text fill="#000000" font-family="sans-serif" font-size="11" lengthAdjust="spacingAndGlyphs" textLength="96" x="338" y="347.7207">anim/animator/color/</text><text fill="#000000" font-family="sans-serif" font-size="11" lengthAdjust="spacingAndGlyphs" textLength="110" x="338" y="362.7437">drawable/layout/menu/</text><text fill="#000000" font-family="sans-serif" font-size="11" lengthAdjust="spacingAndGlyphs" textLength="74" x="338" y="377.7666">raw/values/xml</text><line style="stroke: #A80036; stroke-width: 1.0; stroke-dasharray: 1.0,2.0;" x1="333" x2="377" y1="327.6033" y2="327.6033"/><text fill="#000000" font-family="sans-serif" font-size="11" lengthAdjust="spacingAndGlyphs" textLength="33" x="377" y="332.1978">子类型</text><line style="stroke: #A80036; stroke-width: 1.0; stroke-dasharray: 1.0,2.0;" x1="410" x2="454" y1="327.6033" y2="327.6033"/><!--class Raw--><rect fill="#FEFECE" filter="url(#f0m41h6)" height="93.0688" style="stroke: #A80036; stroke-width: 1.5;" width="154" x="316.5" y="444"/><ellipse cx="376.75" cy="460" fill="#ADD1B2" rx="11" ry="11" style="stroke: #A80036; stroke-width: 1.0;"/><path d="M375.3281,465.3594 Q373.4688,465.3594 372.375,463.9688 Q371.2813,462.5781 371.2813,459.5938 Q371.2813,457.0625 372.4453,455.4063 Q373.6094,453.75 375.5938,453.75 Q377.0625,453.75 377.5313,453.875 Q378,454.0781 378,454.0781 Q378,454.0781 378,454.0078 Q378,453.9375 378.6094,453.0156 L379.6563,456.6719 L378.3281,457.0781 Q377.8594,455.5313 377.1953,454.8672 Q376.5313,454.2031 375.4688,454.2031 Q375.0781,454.2031 374.3125,455.7344 Q373.5469,457.2656 373.5469,459.5156 Q373.5469,461.9844 374.2109,463.375 Q374.875,464.7656 375.4063,464.7656 Q376.4688,464.7656 377.2266,464 Q377.9844,463.2344 378.3281,461.5781 L379.6563,462.1719 Q379.3281,463.5781 378.4297,464.4688 Q377.5313,465.3594 375.3281,465.3594 Z "/><text fill="#000000" font-family="sans-serif" font-size="12" lengthAdjust="spacingAndGlyphs" textLength="25" x="397.25" y="465.5576">Raw</text><line style="stroke: #A80036; stroke-width: 1.5;" x1="317.5" x2="469.5" y1="476" y2="476"/><text fill="#000000" font-family="sans-serif" font-size="11" lengthAdjust="spacingAndGlyphs" textLength="128" x="322.5" y="492.606">和Asset一样放置原始文件</text><text fill="#000000" font-family="sans-serif" font-size="11" lengthAdjust="spacingAndGlyphs" textLength="131" x="322.5" y="507.6289">并且会被直接打包到APK中</text><text fill="#000000" font-family="sans-serif" font-size="11" lengthAdjust="spacingAndGlyphs" textLength="142" x="322.5" y="522.6519">区别在于Raw可以通过ID访问</text><line style="stroke: #A80036; stroke-width: 1.5;" x1="317.5" x2="469.5" y1="529.0688" y2="529.0688"/><polygon fill="#FBFB77" filter="url(#f0m41h6)" points="386.5,8,386.5,160.0352,664.5,160.0352,664.5,18,654.5,8,386.5,8" style="stroke: #A80036; stroke-width: 1.0;"/><polygon fill="#FBFB77" points="386.5,8,386.5,160.0352,475.518,160.0352,443.14,219.771,483.518,160.0352,664.5,160.0352,664.5,18,654.5,8,386.5,8" style="stroke: #A80036; stroke-width: 1.0;"/><line style="stroke: #A80036; stroke-width: 1.0;" x1="654.5" x2="654.5" y1="8" y2="18"/><line style="stroke: #A80036; stroke-width: 1.0;" x1="664.5" x2="654.5" y1="18" y2="18"/><text fill="#000000" font-family="sans-serif" font-size="13" lengthAdjust="spacingAndGlyphs" textLength="257" x="392.5" y="27.8979">1. 描述的9中子类型中除了Raw和Bitmap类型</text><text fill="#000000" font-family="sans-serif" font-size="13" lengthAdjust="spacingAndGlyphs" textLength="246" x="392.5" y="45.6523">之外的所有XML文件在编译成二进制的时候</text><text fill="#000000" font-family="sans-serif" font-size="13" lengthAdjust="spacingAndGlyphs" textLength="247" x="392.5" y="63.4067">每个文件都会有一个字符串资源池用来替换</text><text fill="#000000" font-family="sans-serif" font-size="13" lengthAdjust="spacingAndGlyphs" textLength="130" x="392.5" y="81.1611">文件中所使用的字符串</text><text fill="#000000" font-family="sans-serif" font-size="13" lengthAdjust="spacingAndGlyphs" textLength="241" x="392.5" y="98.9155">2. 每个res在编译完成之后都会被分配一个</text><text fill="#000000" font-family="sans-serif" font-size="13" lengthAdjust="spacingAndGlyphs" textLength="216" x="392.5" y="116.6699">常量ID放置在R.java中用于资源的访问</text><text fill="#000000" font-family="sans-serif" font-size="13" lengthAdjust="spacingAndGlyphs" textLength="249" x="392.5" y="134.4243">3. 打包编译完成之后会产生一个资源映射表</text><text fill="#000000" font-family="sans-serif" font-size="13" lengthAdjust="spacingAndGlyphs" textLength="112" x="392.5" y="152.1787">文件resources.arsc</text><!--class Asset--><rect fill="#FEFECE" filter="url(#f0m41h6)" height="48" style="stroke: #A80036; stroke-width: 1.5;" width="63" x="234" y="278"/><ellipse cx="249" cy="294" fill="#ADD1B2" rx="11" ry="11" style="stroke: #A80036; stroke-width: 1.0;"/><path d="M247.5781,299.3594 Q245.7188,299.3594 244.625,297.9688 Q243.5313,296.5781 243.5313,293.5938 Q243.5313,291.0625 244.6953,289.4063 Q245.8594,287.75 247.8438,287.75 Q249.3125,287.75 249.7813,287.875 Q250.25,288.0781 250.25,288.0781 Q250.25,288.0781 250.25,288.0078 Q250.25,287.9375 250.8594,287.0156 L251.9063,290.6719 L250.5781,291.0781 Q250.1094,289.5313 249.4453,288.8672 Q248.7813,288.2031 247.7188,288.2031 Q247.3281,288.2031 246.5625,289.7344 Q245.7969,291.2656 245.7969,293.5156 Q245.7969,295.9844 246.4609,297.375 Q247.125,298.7656 247.6563,298.7656 Q248.7188,298.7656 249.4766,298 Q250.2344,297.2344 250.5781,295.5781 L251.9063,296.1719 Q251.5781,297.5781 250.6797,298.4688 Q249.7813,299.3594 247.5781,299.3594 Z "/><text fill="#000000" font-family="sans-serif" font-size="12" lengthAdjust="spacingAndGlyphs" textLength="31" x="263" y="299.5576">Asset</text><line style="stroke: #A80036; stroke-width: 1.5;" x1="235" x2="296" y1="310" y2="310"/><line style="stroke: #A80036; stroke-width: 1.5;" x1="235" x2="296" y1="318" y2="318"/><path d="M224.519,139.306 C202.628,168.316 175.505,204.257 152.394,234.882 " fill="none" style="stroke: #A80036; stroke-width: 1.0;"/><polygon fill="none" points="219.099,134.867,236.734,123.119,230.274,143.3,219.099,134.867" style="stroke: #A80036; stroke-width: 1.0;"/><path d="M287.305,140.913 C300.137,164.968 316.724,193.557 333.032,219.872 " fill="none" style="stroke: #A80036; stroke-width: 1.0;"/><polygon fill="none" points="281.072,144.099,278.094,123.119,293.505,137.662,281.072,144.099" style="stroke: #A80036; stroke-width: 1.0;"/><path d="M309.93,139.849 C325.877,164.122 343.488,193.168 358.546,219.872 " fill="none" style="stroke: #A80036; stroke-width: 1.0;"/><polygon fill="none" points="304.031,143.62,298.672,123.119,315.646,135.804,304.031,143.62" style="stroke: #A80036; stroke-width: 1.0;"/><path d="M393.5,404.468 C393.5,418.24 393.5,431.771 393.5,443.8471 " fill="none" style="stroke: #A80036; stroke-width: 1.0;"/><polygon fill="none" points="386.5,404.259,393.5,384.259,400.5,404.259,386.5,404.259" style="stroke: #A80036; stroke-width: 1.0;"/><path d="M265.5,143.213 C265.5,187.469 265.5,246.003 265.5,277.883 " fill="none" style="stroke: #A80036; stroke-width: 1.0;"/><polygon fill="none" points="258.5,143.119,265.5,123.119,272.5,143.119,258.5,143.119" style="stroke: #A80036; stroke-width: 1.0;"/></g></svg>