<?xml version="1.0" encoding="UTF-8" standalone="yes"?><svg xmlns="http://www.w3.org/2000/svg" xmlns:xlink="http://www.w3.org/1999/xlink" height="286px" style="width:921px;height:286px;" version="1.1" viewBox="0 0 921 286" width="921px"><defs><filter height="300%" id="fcd2usf" width="300%" x="-1" y="-1"><feGaussianBlur result="blurOut" stdDeviation="2.0"/><feColorMatrix in="blurOut" result="blurOut2" type="matrix" values="0 0 0 0 0 0 0 0 0 0 0 0 0 0 0 0 0 0 .4 0"/><feOffset dx="4.0" dy="4.0" in="blurOut2" result="blurOut3"/><feBlend in="SourceGraphic" in2="blurOut3" mode="normal"/></filter></defs><g><rect fill="#FEFECE" filter="url(#fcd2usf)" height="55.5088" rx="12.5" ry="12.5" style="stroke: #A80036; stroke-width: 1.5;" width="213" x="61.5" y="40.5"/><line style="stroke: #A80036; stroke-width: 1.5;" x1="61.5" x2="274.5" y1="69.6201" y2="69.6201"/><text fill="#000000" font-family="sans-serif" font-size="14" lengthAdjust="spacingAndGlyphs" textLength="158" x="89" y="61.5439">解析AndroidManifest文件</text><text fill="#000000" font-family="sans-serif" font-size="12" lengthAdjust="spacingAndGlyphs" textLength="193" x="66.5" y="88.3721">获取应用包名并创建ResourceTable</text><rect fill="#FEFECE" filter="url(#fcd2usf)" height="121.0635" rx="12.5" ry="12.5" style="stroke: #A80036; stroke-width: 1.5;" width="308" x="310" y="8"/><line style="stroke: #A80036; stroke-width: 1.5;" x1="310" x2="618" y1="37.1201" y2="37.1201"/><text fill="#000000" font-family="sans-serif" font-size="14" lengthAdjust="spacingAndGlyphs" textLength="112" x="408" y="29.0439">添加被引用资源包</text><text fill="#000000" font-family="sans-serif" font-size="12" lengthAdjust="spacingAndGlyphs" textLength="169" x="315" y="55.8721">1. 引用资源包指的是系统资源包</text><text fill="#000000" font-family="sans-serif" font-size="12" lengthAdjust="spacingAndGlyphs" textLength="265" x="315" y="72.2607">2. 当前程序资源包通过资源ID访问系统资源包内容</text><text fill="#000000" font-family="sans-serif" font-size="12" lengthAdjust="spacingAndGlyphs" textLength="277" x="315" y="88.6494">3. 资源ID是一个无符号四字节整数，最高字节表示资</text><text fill="#000000" font-family="sans-serif" font-size="12" lengthAdjust="spacingAndGlyphs" textLength="288" x="315" y="105.0381">源包ID，次高字节表示资源类型ID，最后两个字节表示</text><text fill="#000000" font-family="sans-serif" font-size="12" lengthAdjust="spacingAndGlyphs" textLength="132" x="315" y="121.4268">资源在该类型下的序列ID</text><rect fill="#FEFECE" filter="url(#fcd2usf)" height="71.8975" rx="12.5" ry="12.5" style="stroke: #A80036; stroke-width: 1.5;" width="259" x="653.5" y="32.5"/><line style="stroke: #A80036; stroke-width: 1.5;" x1="653.5" x2="912.5" y1="61.6201" y2="61.6201"/><text fill="#000000" font-family="sans-serif" font-size="14" lengthAdjust="spacingAndGlyphs" textLength="84" x="741" y="53.5439">收集资源文件</text><text fill="#000000" font-family="sans-serif" font-size="12" lengthAdjust="spacingAndGlyphs" textLength="239" x="658.5" y="80.3721">在这一步中会将待编译的XML文件收集放置在</text><text fill="#000000" font-family="sans-serif" font-size="12" lengthAdjust="spacingAndGlyphs" textLength="212" x="658.5" y="96.7607">AaptAsset.mRes中，关于这个结构后补</text><rect fill="#FEFECE" filter="url(#fcd2usf)" height="88.2861" rx="12.5" ry="12.5" style="stroke: #A80036; stroke-width: 1.5;" width="241" x="662.5" y="189"/><line style="stroke: #A80036; stroke-width: 1.5;" x1="662.5" x2="903.5" y1="218.1201" y2="218.1201"/><text fill="#000000" font-family="sans-serif" font-size="14" lengthAdjust="spacingAndGlyphs" textLength="182" x="692" y="210.0439">将收集到的资源添加到资源表</text><text fill="#000000" font-family="sans-serif" font-size="12" lengthAdjust="spacingAndGlyphs" textLength="216" x="667.5" y="236.8721">将上一步中收集到的资源同步到资源表中</text><text fill="#000000" font-family="sans-serif" font-size="12" lengthAdjust="spacingAndGlyphs" textLength="221" x="667.5" y="253.2607">但是不包括value类型资源，这种类型需要</text><text fill="#000000" font-family="sans-serif" font-size="12" lengthAdjust="spacingAndGlyphs" textLength="168" x="667.5" y="269.6494">在编译之后才能保存到资源表中</text><rect fill="#FEFECE" filter="url(#fcd2usf)" height="71.8975" rx="12.5" ry="12.5" style="stroke: #A80036; stroke-width: 1.5;" width="243" x="384.5" y="197"/><line style="stroke: #A80036; stroke-width: 1.5;" x1="384.5" x2="627.5" y1="226.1201" y2="226.1201"/><text fill="#000000" font-family="sans-serif" font-size="14" lengthAdjust="spacingAndGlyphs" textLength="106" x="453" y="218.0439">编译Value类资源</text><text fill="#000000" font-family="sans-serif" font-size="12" lengthAdjust="spacingAndGlyphs" textLength="223" x="389.5" y="244.8721">将Value类型资源编译过后如同上一步将其</text><text fill="#000000" font-family="sans-serif" font-size="12" lengthAdjust="spacingAndGlyphs" textLength="84" x="389.5" y="261.2607">保存到资源表中</text><rect fill="#FEFECE" filter="url(#fcd2usf)" height="88.2861" rx="12.5" ry="12.5" style="stroke: #A80036; stroke-width: 1.5;" width="265" x="84.5" y="189"/><line style="stroke: #A80036; stroke-width: 1.5;" x1="84.5" x2="349.5" y1="218.1201" y2="218.1201"/><text fill="#000000" font-family="sans-serif" font-size="14" lengthAdjust="spacingAndGlyphs" textLength="108" x="163" y="210.0439">给Bag资源分配ID</text><text fill="#000000" font-family="sans-serif" font-size="12" lengthAdjust="spacingAndGlyphs" textLength="245" x="89.5" y="236.8721">拥有专用值得Value资源统称为Bag资源，比如</text><text fill="#000000" font-family="sans-serif" font-size="12" lengthAdjust="spacingAndGlyphs" textLength="230" x="89.5" y="253.2607">常用的Styleable，这一步会先为这些专用值</text><text fill="#000000" font-family="sans-serif" font-size="12" lengthAdjust="spacingAndGlyphs" textLength="36" x="89.5" y="269.6494">分配ID</text><ellipse cx="16" cy="68.5" fill="#000000" filter="url(#fcd2usf)" rx="10" ry="10" style="stroke: none; stroke-width: 1.0;"/><path d="M26.0938,68.5 C36.0852,68.5 46.0767,68.5 56.0682,68.5 " fill="none" style="stroke: #A80036; stroke-width: 1.0;"/><polygon fill="#A80036" points="61.2932,68.5,52.2932,64.5,56.2932,68.5,52.2932,72.5,61.2932,68.5" style="stroke: #A80036; stroke-width: 1.0;"/><path d="M274.664,68.5 C284.636,68.5 294.608,68.5 304.58,68.5 " fill="none" style="stroke: #A80036; stroke-width: 1.0;"/><polygon fill="#A80036" points="309.795,68.5,300.795,64.5,304.795,68.5,300.795,72.5,309.795,68.5" style="stroke: #A80036; stroke-width: 1.0;"/><path d="M618.204,68.5 C628.163,68.5 638.121,68.5 648.08,68.5 " fill="none" style="stroke: #A80036; stroke-width: 1.0;"/><polygon fill="#A80036" points="653.288,68.5,644.288,64.5,648.288,68.5,644.288,72.5,653.288,68.5" style="stroke: #A80036; stroke-width: 1.0;"/><path d="M783,104.76 C783,127.767 783,158.109 783,183.3924 " fill="none" style="stroke: #A80036; stroke-width: 1.0;"/><polygon fill="#A80036" points="783,188.7064,787,179.7064,783,183.7064,779,179.7064,783,188.7064" style="stroke: #A80036; stroke-width: 1.0;"/><path d="M632.86,233 C642.674,233 652.487,233 662.301,233 " fill="none" style="stroke: #A80036; stroke-width: 1.0;"/><polygon fill="#A80036" points="627.729,233,636.729,237,632.729,233,636.729,229,627.729,233" style="stroke: #A80036; stroke-width: 1.0;"/><path d="M354.814,233 C364.696,233 374.578,233 384.46,233 " fill="none" style="stroke: #A80036; stroke-width: 1.0;"/><polygon fill="#A80036" points="349.646,233,358.646,237,354.646,233,358.646,229,349.646,233" style="stroke: #A80036; stroke-width: 1.0;"/></g></svg>