<?xml version="1.0" encoding="UTF-8" standalone="yes"?><svg xmlns="http://www.w3.org/2000/svg" xmlns:xlink="http://www.w3.org/1999/xlink" height="1482px" style="width:1485px;height:1482px;" version="1.1" viewBox="0 0 1485 1482" width="1485px"><defs><filter height="300%" id="f2892bn" width="300%" x="-1" y="-1"><feGaussianBlur result="blurOut" stdDeviation="2.0"/><feColorMatrix in="blurOut" result="blurOut2" type="matrix" values="0 0 0 0 0 0 0 0 0 0 0 0 0 0 0 0 0 0 .4 0"/><feOffset dx="4.0" dy="4.0" in="blurOut2" result="blurOut3"/><feBlend in="SourceGraphic" in2="blurOut3" mode="normal"/></filter></defs><g><rect fill="#FFFFFF" filter="url(#f2892bn)" height="1045.2095" style="stroke: #A80036; stroke-width: 1.0;" width="10" x="121" y="387.6641"/><rect fill="#FFFFFF" filter="url(#f2892bn)" height="1013.4551" style="stroke: #A80036; stroke-width: 1.0;" width="10" x="249" y="419.4185"/><rect fill="#FFFFFF" filter="url(#f2892bn)" height="856.4146" style="stroke: #A80036; stroke-width: 1.0;" width="10" x="470" y="576.459"/><rect fill="#FFFFFF" filter="url(#f2892bn)" height="190.2808" style="stroke: #A80036; stroke-width: 1.0;" width="10" x="620" y="119.8745"/><rect fill="#FFFFFF" filter="url(#f2892bn)" height="63.386" style="stroke: #A80036; stroke-width: 1.0;" width="10" x="740.5" y="151.6289"/><rect fill="#FFFFFF" filter="url(#f2892bn)" height="797.9058" style="stroke: #A80036; stroke-width: 1.0;" width="10" x="740.5" y="634.9678"/><rect fill="#FFFFFF" filter="url(#f2892bn)" height="662.8882" style="stroke: #A80036; stroke-width: 1.0;" width="10" x="745.5" y="674.7222"/><rect fill="#FFFFFF" filter="url(#f2892bn)" height="435.8389" style="stroke: #A80036; stroke-width: 1.0;" width="10" x="750.5" y="753.4854"/><rect fill="#FFFFFF" filter="url(#f2892bn)" height="95.1404" style="stroke: #A80036; stroke-width: 1.0;" width="10" x="923.5" y="215.0149"/><rect fill="#FFFFFF" filter="url(#f2892bn)" height="231.0352" style="stroke: #A80036; stroke-width: 1.0;" width="10" x="923.5" y="824.2485"/><rect fill="#FFFFFF" filter="url(#f2892bn)" height="136.772" style="stroke: #A80036; stroke-width: 1.0;" width="10" x="928.5" y="864.0029"/><rect fill="#FFFFFF" filter="url(#f2892bn)" height="77.2632" style="stroke: #A80036; stroke-width: 1.0;" width="10" x="1078.5" y="923.5117"/><rect fill="#FFFFFF" filter="url(#f2892bn)" height="111.2861" style="stroke: #000000; stroke-width: 2.0;" width="285" x="190" y="435.1729"/><rect fill="#FFFFFF" height="46.7544" style="stroke: none; stroke-width: 1.0;" width="285" x="190" y="499.7046"/><rect fill="#FFFFFF" filter="url(#f2892bn)" height="754.1514" style="stroke: #000000; stroke-width: 2.0;" width="1078" x="392.5" y="592.2134"/><rect fill="#FFFFFF" filter="url(#f2892bn)" height="111.2861" style="stroke: #000000; stroke-width: 2.0;" width="236" x="692.5" y="1071.0381"/><rect fill="#FFFFFF" height="46.7544" style="stroke: none; stroke-width: 1.0;" width="236" x="692.5" y="1135.5698"/><rect fill="#FFFFFF" filter="url(#f2892bn)" height="111.2861" style="stroke: #000000; stroke-width: 2.0;" width="303" x="692.5" y="1196.3242"/><rect fill="#FFFFFF" height="46.7544" style="stroke: none; stroke-width: 1.0;" width="303" x="692.5" y="1260.856"/><rect fill="#FFFFFF" filter="url(#f2892bn)" height="64.5088" style="stroke: #000000; stroke-width: 2.0;" width="165" x="392.5" y="1360.3647"/><line style="stroke: #A80036; stroke-width: 1.0; stroke-dasharray: 5.0,5.0;" x1="126" x2="126" y1="41.1201" y2="1441.8735"/><line style="stroke: #A80036; stroke-width: 1.0; stroke-dasharray: 5.0,5.0;" x1="254" x2="254" y1="41.1201" y2="1441.8735"/><line style="stroke: #A80036; stroke-width: 1.0; stroke-dasharray: 5.0,5.0;" x1="474.5" x2="474.5" y1="41.1201" y2="1441.8735"/><line style="stroke: #A80036; stroke-width: 1.0; stroke-dasharray: 5.0,5.0;" x1="624.5" x2="624.5" y1="41.1201" y2="1441.8735"/><line style="stroke: #A80036; stroke-width: 1.0; stroke-dasharray: 5.0,5.0;" x1="745.5" x2="745.5" y1="41.1201" y2="1441.8735"/><line style="stroke: #A80036; stroke-width: 1.0; stroke-dasharray: 5.0,5.0;" x1="928" x2="928" y1="41.1201" y2="1441.8735"/><line style="stroke: #A80036; stroke-width: 1.0; stroke-dasharray: 5.0,5.0;" x1="1083" x2="1083" y1="41.1201" y2="1441.8735"/><line style="stroke: #A80036; stroke-width: 1.0; stroke-dasharray: 5.0,5.0;" x1="1187" x2="1187" y1="41.1201" y2="1441.8735"/><rect fill="#FEFECE" filter="url(#f2892bn)" height="33.1201" style="stroke: #A80036; stroke-width: 1.5;" width="58" x="95" y="3"/><text fill="#000000" font-family="sans-serif" font-size="14" lengthAdjust="spacingAndGlyphs" textLength="44" x="102" y="26.0439">Activity</text><rect fill="#FEFECE" filter="url(#f2892bn)" height="33.1201" style="stroke: #A80036; stroke-width: 1.5;" width="58" x="95" y="1440.8735"/><text fill="#000000" font-family="sans-serif" font-size="14" lengthAdjust="spacingAndGlyphs" textLength="44" x="102" y="1463.9175">Activity</text><rect fill="#FEFECE" filter="url(#f2892bn)" height="33.1201" style="stroke: #A80036; stroke-width: 1.5;" width="104" x="200" y="3"/><text fill="#000000" font-family="sans-serif" font-size="14" lengthAdjust="spacingAndGlyphs" textLength="90" x="207" y="26.0439">PhoneWindow</text><rect fill="#FEFECE" filter="url(#f2892bn)" height="33.1201" style="stroke: #A80036; stroke-width: 1.5;" width="104" x="200" y="1440.8735"/><text fill="#000000" font-family="sans-serif" font-size="14" lengthAdjust="spacingAndGlyphs" textLength="90" x="207" y="1463.9175">PhoneWindow</text><rect fill="#FEFECE" filter="url(#f2892bn)" height="33.1201" style="stroke: #A80036; stroke-width: 1.5;" width="141" x="402.5" y="3"/><text fill="#000000" font-family="sans-serif" font-size="14" lengthAdjust="spacingAndGlyphs" textLength="127" x="409.5" y="26.0439">PhoneLayoutInflater</text><rect fill="#FEFECE" filter="url(#f2892bn)" height="33.1201" style="stroke: #A80036; stroke-width: 1.5;" width="141" x="402.5" y="1440.8735"/><text fill="#000000" font-family="sans-serif" font-size="14" lengthAdjust="spacingAndGlyphs" textLength="127" x="409.5" y="1463.9175">PhoneLayoutInflater</text><rect fill="#FEFECE" filter="url(#f2892bn)" height="33.1201" style="stroke: #A80036; stroke-width: 1.5;" width="131" x="557.5" y="3"/><text fill="#000000" font-family="sans-serif" font-size="14" lengthAdjust="spacingAndGlyphs" textLength="117" x="564.5" y="26.0439">ApplicationContext</text><rect fill="#FEFECE" filter="url(#f2892bn)" height="33.1201" style="stroke: #A80036; stroke-width: 1.5;" width="131" x="557.5" y="1440.8735"/><text fill="#000000" font-family="sans-serif" font-size="14" lengthAdjust="spacingAndGlyphs" textLength="117" x="564.5" y="1463.9175">ApplicationContext</text><rect fill="#FEFECE" filter="url(#f2892bn)" height="33.1201" style="stroke: #A80036; stroke-width: 1.5;" width="82" x="702.5" y="3"/><text fill="#000000" font-family="sans-serif" font-size="14" lengthAdjust="spacingAndGlyphs" textLength="68" x="709.5" y="26.0439">Resources</text><rect fill="#FEFECE" filter="url(#f2892bn)" height="33.1201" style="stroke: #A80036; stroke-width: 1.5;" width="82" x="702.5" y="1440.8735"/><text fill="#000000" font-family="sans-serif" font-size="14" lengthAdjust="spacingAndGlyphs" textLength="68" x="709.5" y="1463.9175">Resources</text><rect fill="#FEFECE" filter="url(#f2892bn)" height="33.1201" style="stroke: #A80036; stroke-width: 1.5;" width="105" x="874" y="3"/><text fill="#000000" font-family="sans-serif" font-size="14" lengthAdjust="spacingAndGlyphs" textLength="91" x="881" y="26.0439">AssetManager</text><rect fill="#FEFECE" filter="url(#f2892bn)" height="33.1201" style="stroke: #A80036; stroke-width: 1.5;" width="105" x="874" y="1440.8735"/><text fill="#000000" font-family="sans-serif" font-size="14" lengthAdjust="spacingAndGlyphs" textLength="91" x="881" y="1463.9175">AssetManager</text><rect fill="#FEFECE" filter="url(#f2892bn)" height="33.1201" style="stroke: #A80036; stroke-width: 1.5;" width="139" x="1012" y="3"/><text fill="#000000" font-family="sans-serif" font-size="14" lengthAdjust="spacingAndGlyphs" textLength="125" x="1019" y="26.0439">AssetManager_Cpp</text><rect fill="#FEFECE" filter="url(#f2892bn)" height="33.1201" style="stroke: #A80036; stroke-width: 1.5;" width="139" x="1012" y="1440.8735"/><text fill="#000000" font-family="sans-serif" font-size="14" lengthAdjust="spacingAndGlyphs" textLength="125" x="1019" y="1463.9175">AssetManager_Cpp</text><rect fill="#FEFECE" filter="url(#f2892bn)" height="33.1201" style="stroke: #A80036; stroke-width: 1.5;" width="41" x="1165" y="3"/><text fill="#000000" font-family="sans-serif" font-size="14" lengthAdjust="spacingAndGlyphs" textLength="27" x="1172" y="26.0439">APK</text><rect fill="#FEFECE" filter="url(#f2892bn)" height="33.1201" style="stroke: #A80036; stroke-width: 1.5;" width="41" x="1165" y="1440.8735"/><text fill="#000000" font-family="sans-serif" font-size="14" lengthAdjust="spacingAndGlyphs" textLength="27" x="1172" y="1463.9175">APK</text><rect fill="#FFFFFF" filter="url(#f2892bn)" height="1045.2095" style="stroke: #A80036; stroke-width: 1.0;" width="10" x="121" y="387.6641"/><rect fill="#FFFFFF" filter="url(#f2892bn)" height="1013.4551" style="stroke: #A80036; stroke-width: 1.0;" width="10" x="249" y="419.4185"/><rect fill="#FFFFFF" filter="url(#f2892bn)" height="856.4146" style="stroke: #A80036; stroke-width: 1.0;" width="10" x="470" y="576.459"/><rect fill="#FFFFFF" filter="url(#f2892bn)" height="190.2808" style="stroke: #A80036; stroke-width: 1.0;" width="10" x="620" y="119.8745"/><rect fill="#FFFFFF" filter="url(#f2892bn)" height="63.386" style="stroke: #A80036; stroke-width: 1.0;" width="10" x="740.5" y="151.6289"/><rect fill="#FFFFFF" filter="url(#f2892bn)" height="797.9058" style="stroke: #A80036; stroke-width: 1.0;" width="10" x="740.5" y="634.9678"/><rect fill="#FFFFFF" filter="url(#f2892bn)" height="662.8882" style="stroke: #A80036; stroke-width: 1.0;" width="10" x="745.5" y="674.7222"/><rect fill="#FFFFFF" filter="url(#f2892bn)" height="435.8389" style="stroke: #A80036; stroke-width: 1.0;" width="10" x="750.5" y="753.4854"/><rect fill="#FFFFFF" filter="url(#f2892bn)" height="95.1404" style="stroke: #A80036; stroke-width: 1.0;" width="10" x="923.5" y="215.0149"/><rect fill="#FFFFFF" filter="url(#f2892bn)" height="231.0352" style="stroke: #A80036; stroke-width: 1.0;" width="10" x="923.5" y="824.2485"/><rect fill="#FFFFFF" filter="url(#f2892bn)" height="136.772" style="stroke: #A80036; stroke-width: 1.0;" width="10" x="928.5" y="864.0029"/><rect fill="#FFFFFF" filter="url(#f2892bn)" height="77.2632" style="stroke: #A80036; stroke-width: 1.0;" width="10" x="1078.5" y="923.5117"/><rect fill="#EEEEEE" filter="url(#f2892bn)" height="3" style="stroke: #EEEEEE; stroke-width: 1.0;" width="1477.5" x="3" y="72.9973"/><line style="stroke: #000000; stroke-width: 1.0;" x1="3" x2="1480.5" y1="72.9973" y2="72.9973"/><line style="stroke: #000000; stroke-width: 1.0;" x1="3" x2="1480.5" y1="75.9973" y2="75.9973"/><rect fill="#EEEEEE" filter="url(#f2892bn)" height="25.7544" style="stroke: #000000; stroke-width: 2.0;" width="116" x="683.75" y="61.1201"/><text fill="#000000" font-family="sans-serif" font-size="13" font-weight="bold" lengthAdjust="spacingAndGlyphs" textLength="98" x="689.75" y="80.0181">获取资源的流程</text><polygon fill="#A80036" points="608,115.8745,618,119.8745,608,123.8745,612,119.8745" style="stroke: #A80036; stroke-width: 1.0;"/><line style="stroke: #A80036; stroke-width: 1.0;" x1="3" x2="614" y1="119.8745" y2="119.8745"/><text fill="#000000" font-family="sans-serif" font-size="13" lengthAdjust="spacingAndGlyphs" textLength="90" x="10" y="115.7725">fetchResources</text><polygon fill="#A80036" points="728.5,147.6289,738.5,151.6289,728.5,155.6289,732.5,151.6289" style="stroke: #A80036; stroke-width: 1.0;"/><line style="stroke: #A80036; stroke-width: 1.0;" x1="630" x2="734.5" y1="151.6289" y2="151.6289"/><text fill="#000000" font-family="sans-serif" font-size="13" lengthAdjust="spacingAndGlyphs" textLength="74" x="637" y="147.5269">ResourcesID</text><polygon fill="#A80036" points="911.5,211.0149,921.5,215.0149,911.5,219.0149,915.5,215.0149" style="stroke: #A80036; stroke-width: 1.0;"/><line style="stroke: #A80036; stroke-width: 1.0;" x1="745.5" x2="917.5" y1="215.0149" y2="215.0149"/><text fill="#000000" font-family="sans-serif" font-size="13" lengthAdjust="spacingAndGlyphs" textLength="55" x="752.5" y="210.9128">FileName</text><polygon fill="#FBFB77" filter="url(#f2892bn)" points="938,165.3833,938,246.3833,1141,246.3833,1141,175.3833,1131,165.3833,938,165.3833" style="stroke: #A80036; stroke-width: 1.0;"/><line style="stroke: #A80036; stroke-width: 1.0;" x1="1131" x2="1131" y1="165.3833" y2="175.3833"/><line style="stroke: #A80036; stroke-width: 1.0;" x1="1141" x2="1131" y1="175.3833" y2="175.3833"/><text fill="#000000" font-family="sans-serif" font-size="13" lengthAdjust="spacingAndGlyphs" textLength="181" x="944" y="185.2813">资源ID和文件名称的对应关系被</text><text fill="#000000" font-family="sans-serif" font-size="13" lengthAdjust="spacingAndGlyphs" textLength="174" x="944" y="203.0356">打包在Apk中resources.arsc文</text><text fill="#000000" font-family="sans-serif" font-size="13" lengthAdjust="spacingAndGlyphs" textLength="182" x="944" y="220.79">件中，所以这个转换的过程同样</text><text fill="#000000" font-family="sans-serif" font-size="13" lengthAdjust="spacingAndGlyphs" textLength="175" x="944" y="238.5444">需要依赖AssetManager来完成</text><polygon fill="#A80036" points="911.5,274.4009,921.5,278.4009,911.5,282.4009,915.5,278.4009" style="stroke: #A80036; stroke-width: 1.0;"/><line style="stroke: #A80036; stroke-width: 1.0;" x1="630" x2="917.5" y1="278.4009" y2="278.4009"/><text fill="#000000" font-family="sans-serif" font-size="13" lengthAdjust="spacingAndGlyphs" textLength="55" x="637" y="274.2988">FileName</text><polygon fill="#A80036" points="1175.5,306.1553,1185.5,310.1553,1175.5,314.1553,1179.5,310.1553" style="stroke: #A80036; stroke-width: 1.0;"/><line style="stroke: #A80036; stroke-width: 1.0;" x1="928.5" x2="1181.5" y1="310.1553" y2="310.1553"/><text fill="#000000" font-family="sans-serif" font-size="13" lengthAdjust="spacingAndGlyphs" textLength="28" x="935.5" y="306.0532">open</text><rect fill="#EEEEEE" filter="url(#f2892bn)" height="3" style="stroke: #EEEEEE; stroke-width: 1.0;" width="1477.5" x="3" y="340.7869"/><line style="stroke: #000000; stroke-width: 1.0;" x1="3" x2="1480.5" y1="340.7869" y2="340.7869"/><line style="stroke: #000000; stroke-width: 1.0;" x1="3" x2="1480.5" y1="343.7869" y2="343.7869"/><rect fill="#EEEEEE" filter="url(#f2892bn)" height="25.7544" style="stroke: #000000; stroke-width: 2.0;" width="86" x="698.75" y="328.9097"/><text fill="#000000" font-family="sans-serif" font-size="13" font-weight="bold" lengthAdjust="spacingAndGlyphs" textLength="68" x="704.75" y="347.8076">Inflate过程</text><polygon fill="#A80036" points="109,383.6641,119,387.6641,109,391.6641,113,387.6641" style="stroke: #A80036; stroke-width: 1.0;"/><line style="stroke: #A80036; stroke-width: 1.0;" x1="3" x2="115" y1="387.6641" y2="387.6641"/><text fill="#000000" font-family="sans-serif" font-size="13" lengthAdjust="spacingAndGlyphs" textLength="99" x="10" y="383.562">setContentView()</text><polygon fill="#A80036" points="237,415.4185,247,419.4185,237,423.4185,241,419.4185" style="stroke: #A80036; stroke-width: 1.0;"/><line style="stroke: #A80036; stroke-width: 1.0;" x1="131" x2="243" y1="419.4185" y2="419.4185"/><text fill="#000000" font-family="sans-serif" font-size="13" lengthAdjust="spacingAndGlyphs" textLength="99" x="138" y="415.3164">setContentView()</text><rect fill="none" height="111.2861" style="stroke: #000000; stroke-width: 2.0;" width="285" x="190" y="435.1729"/><polygon fill="#EEEEEE" points="190,435.1729,251,435.1729,251,444.1729,241,454.1729,190,454.1729,190,435.1729" style="stroke: #000000; stroke-width: 2.0;"/><text fill="#000000" font-family="sans-serif" font-size="13" font-weight="bold" lengthAdjust="spacingAndGlyphs" textLength="16" x="205" y="451.0708">alt</text><text fill="#000000" font-family="sans-serif" font-size="11" font-weight="bold" lengthAdjust="spacingAndGlyphs" textLength="137" x="266" y="449.7788">[mContentParent == null]</text><line style="stroke: #A80036; stroke-width: 1.0;" x1="259" x2="301" y1="478.7046" y2="478.7046"/><line style="stroke: #A80036; stroke-width: 1.0;" x1="301" x2="301" y1="478.7046" y2="491.7046"/><line style="stroke: #A80036; stroke-width: 1.0;" x1="260" x2="301" y1="491.7046" y2="491.7046"/><polygon fill="#A80036" points="270,487.7046,260,491.7046,270,495.7046,266,491.7046" style="stroke: #A80036; stroke-width: 1.0;"/><text fill="#000000" font-family="sans-serif" font-size="13" lengthAdjust="spacingAndGlyphs" textLength="76" x="266" y="473.8481">installDecor()</text><line style="stroke: #000000; stroke-width: 1.0; stroke-dasharray: 2.0,2.0;" x1="190" x2="475" y1="500.7046" y2="500.7046"/><line style="stroke: #A80036; stroke-width: 1.0;" x1="259" x2="301" y1="525.459" y2="525.459"/><line style="stroke: #A80036; stroke-width: 1.0;" x1="301" x2="301" y1="525.459" y2="538.459"/><line style="stroke: #A80036; stroke-width: 1.0;" x1="260" x2="301" y1="538.459" y2="538.459"/><polygon fill="#A80036" points="270,534.459,260,538.459,270,542.459,266,538.459" style="stroke: #A80036; stroke-width: 1.0;"/><text fill="#000000" font-family="sans-serif" font-size="13" lengthAdjust="spacingAndGlyphs" textLength="197" x="266" y="520.6025">mContentParent.removeAllViews()</text><polygon fill="#A80036" points="458,572.459,468,576.459,458,580.459,462,576.459" style="stroke: #A80036; stroke-width: 1.0;"/><line style="stroke: #A80036; stroke-width: 1.0;" x1="259" x2="464" y1="576.459" y2="576.459"/><text fill="#000000" font-family="sans-serif" font-size="13" lengthAdjust="spacingAndGlyphs" textLength="42" x="266" y="572.3569">inflate()</text><rect fill="none" height="754.1514" style="stroke: #000000; stroke-width: 2.0;" width="1078" x="392.5" y="592.2134"/><polygon fill="#EEEEEE" points="392.5,592.2134,521.5,592.2134,521.5,601.2134,511.5,611.2134,392.5,611.2134,392.5,592.2134" style="stroke: #000000; stroke-width: 2.0;"/><text fill="#000000" font-family="sans-serif" font-size="13" font-weight="bold" lengthAdjust="spacingAndGlyphs" textLength="84" x="407.5" y="608.1113">资源查找部分</text><polygon fill="#A80036" points="728.5,630.9678,738.5,634.9678,728.5,638.9678,732.5,634.9678" style="stroke: #A80036; stroke-width: 1.0;"/><line style="stroke: #A80036; stroke-width: 1.0;" x1="480" x2="734.5" y1="634.9678" y2="634.9678"/><text fill="#000000" font-family="sans-serif" font-size="13" lengthAdjust="spacingAndGlyphs" textLength="65" x="487" y="630.8657">getLayout()</text><line style="stroke: #A80036; stroke-width: 1.0;" x1="750.5" x2="797.5" y1="662.4766" y2="662.4766"/><line style="stroke: #A80036; stroke-width: 1.0;" x1="797.5" x2="797.5" y1="662.4766" y2="675.4766"/><line style="stroke: #A80036; stroke-width: 1.0;" x1="756.5" x2="797.5" y1="675.4766" y2="675.4766"/><polygon fill="#A80036" points="766.5,671.4766,756.5,675.4766,766.5,679.4766,762.5,675.4766" style="stroke: #A80036; stroke-width: 1.0;"/><text fill="#000000" font-family="sans-serif" font-size="13" lengthAdjust="spacingAndGlyphs" textLength="146" x="762.5" y="657.6201">loadXmlResourceParser()</text><line style="stroke: #A80036; stroke-width: 1.0;" x1="755.5" x2="802.5" y1="741.2397" y2="741.2397"/><line style="stroke: #A80036; stroke-width: 1.0;" x1="802.5" x2="802.5" y1="741.2397" y2="754.2397"/><line style="stroke: #A80036; stroke-width: 1.0;" x1="761.5" x2="802.5" y1="754.2397" y2="754.2397"/><polygon fill="#A80036" points="771.5,750.2397,761.5,754.2397,771.5,758.2397,767.5,754.2397" style="stroke: #A80036; stroke-width: 1.0;"/><text fill="#000000" font-family="sans-serif" font-size="13" lengthAdjust="spacingAndGlyphs" textLength="59" x="767.5" y="736.3833">getValue()</text><polygon fill="#FBFB77" filter="url(#f2892bn)" points="838,693.4766,838,791.4766,1118,791.4766,1118,703.4766,1108,693.4766,838,693.4766" style="stroke: #A80036; stroke-width: 1.0;"/><line style="stroke: #A80036; stroke-width: 1.0;" x1="1108" x2="1108" y1="693.4766" y2="703.4766"/><line style="stroke: #A80036; stroke-width: 1.0;" x1="1118" x2="1108" y1="703.4766" y2="703.4766"/><text fill="#000000" font-family="sans-serif" font-size="13" lengthAdjust="spacingAndGlyphs" textLength="250" x="844" y="713.3745">getValue 查找资源找出来的结果保存在一个</text><text fill="#000000" font-family="sans-serif" font-size="13" lengthAdjust="spacingAndGlyphs" textLength="254" x="844" y="731.1289">TypedValue 对象中，因为对于有文件类型的</text><text fill="#000000" font-family="sans-serif" font-size="13" lengthAdjust="spacingAndGlyphs" textLength="259" x="844" y="748.8833">资源来说，资源ID映射到的都是一个文件名称</text><text fill="#000000" font-family="sans-serif" font-size="13" lengthAdjust="spacingAndGlyphs" textLength="253" x="844" y="766.6377">，所以这里返回的数据类型应该是string，如</text><text fill="#000000" font-family="sans-serif" font-size="13" lengthAdjust="spacingAndGlyphs" textLength="219" x="844" y="784.3921">果不是则会抛出一个NoteFound的异常</text><polygon fill="#A80036" points="911.5,820.2485,921.5,824.2485,911.5,828.2485,915.5,824.2485" style="stroke: #A80036; stroke-width: 1.0;"/><line style="stroke: #A80036; stroke-width: 1.0;" x1="760.5" x2="917.5" y1="824.2485" y2="824.2485"/><text fill="#000000" font-family="sans-serif" font-size="13" lengthAdjust="spacingAndGlyphs" textLength="114" x="767.5" y="820.1465">getResourceValue()</text><line style="stroke: #A80036; stroke-width: 1.0;" x1="933.5" x2="980.5" y1="851.7573" y2="851.7573"/><line style="stroke: #A80036; stroke-width: 1.0;" x1="980.5" x2="980.5" y1="851.7573" y2="864.7573"/><line style="stroke: #A80036; stroke-width: 1.0;" x1="939.5" x2="980.5" y1="864.7573" y2="864.7573"/><polygon fill="#A80036" points="949.5,860.7573,939.5,864.7573,949.5,868.7573,945.5,864.7573" style="stroke: #A80036; stroke-width: 1.0;"/><text fill="#000000" font-family="sans-serif" font-size="13" lengthAdjust="spacingAndGlyphs" textLength="120" x="945.5" y="846.9009">loadResourceValue()</text><polygon fill="#A80036" points="1066.5,919.5117,1076.5,923.5117,1066.5,927.5117,1070.5,923.5117" style="stroke: #A80036; stroke-width: 1.0;"/><line style="stroke: #A80036; stroke-width: 1.0;" x1="938.5" x2="1072.5" y1="923.5117" y2="923.5117"/><text fill="#000000" font-family="sans-serif" font-size="13" lengthAdjust="spacingAndGlyphs" textLength="120" x="945.5" y="919.4097">loadResourceValue()</text><polygon fill="#FBFB77" filter="url(#f2892bn)" points="1093,882.7573,1093,945.7573,1387,945.7573,1387,892.7573,1377,882.7573,1093,882.7573" style="stroke: #A80036; stroke-width: 1.0;"/><line style="stroke: #A80036; stroke-width: 1.0;" x1="1377" x2="1377" y1="882.7573" y2="892.7573"/><line style="stroke: #A80036; stroke-width: 1.0;" x1="1387" x2="1377" y1="892.7573" y2="892.7573"/><text fill="#000000" font-family="sans-serif" font-size="13" lengthAdjust="spacingAndGlyphs" textLength="273" x="1099" y="902.6553">这一部分的内容和资源打包编译的过程牵扯太大</text><text fill="#000000" font-family="sans-serif" font-size="13" lengthAdjust="spacingAndGlyphs" textLength="273" x="1099" y="920.4097">暂时没有办法太过详细的理解，只能够后面补完</text><text fill="#000000" font-family="sans-serif" font-size="13" lengthAdjust="spacingAndGlyphs" textLength="143" x="1099" y="938.1641">知识点内容之后再去学习</text><polygon fill="#A80036" points="944.5,996.7749,934.5,1000.7749,944.5,1004.7749,940.5,1000.7749" style="stroke: #A80036; stroke-width: 1.0;"/><line style="stroke: #A80036; stroke-width: 1.0; stroke-dasharray: 2.0,2.0;" x1="938.5" x2="1082.5" y1="1000.7749" y2="1000.7749"/><text fill="#000000" font-family="sans-serif" font-size="13" lengthAdjust="spacingAndGlyphs" textLength="116" x="950.5" y="996.6729">index of StringBlack</text><polygon fill="#FBFB77" filter="url(#f2892bn)" points="1093,960.0205,1093,1023.0205,1451,1023.0205,1451,970.0205,1441,960.0205,1093,960.0205" style="stroke: #A80036; stroke-width: 1.0;"/><line style="stroke: #A80036; stroke-width: 1.0;" x1="1441" x2="1441" y1="960.0205" y2="970.0205"/><line style="stroke: #A80036; stroke-width: 1.0;" x1="1451" x2="1441" y1="970.0205" y2="970.0205"/><text fill="#000000" font-family="sans-serif" font-size="13" lengthAdjust="spacingAndGlyphs" textLength="312" x="1099" y="979.9185">在这里返回一个索引值用来确定在哪一个资源索引表中</text><text fill="#000000" font-family="sans-serif" font-size="13" lengthAdjust="spacingAndGlyphs" textLength="285" x="1099" y="997.6729">可以获取到ID对应的资源，获取字符串代码如下：</text><text fill="#000000" font-family="sans-serif" font-size="13" lengthAdjust="spacingAndGlyphs" textLength="337" x="1099" y="1015.4272">outValue.string = mStringBlocks[index].get(outValue.data)</text><polygon fill="#A80036" points="771.5,1051.2837,761.5,1055.2837,771.5,1059.2837,767.5,1055.2837" style="stroke: #A80036; stroke-width: 1.0;"/><line style="stroke: #A80036; stroke-width: 1.0; stroke-dasharray: 2.0,2.0;" x1="765.5" x2="927.5" y1="1055.2837" y2="1055.2837"/><text fill="#000000" font-family="sans-serif" font-size="13" lengthAdjust="spacingAndGlyphs" textLength="61" x="777.5" y="1051.1816">Bool:found</text><rect fill="none" height="111.2861" style="stroke: #000000; stroke-width: 2.0;" width="236" x="692.5" y="1071.0381"/><polygon fill="#EEEEEE" points="692.5,1071.0381,753.5,1071.0381,753.5,1080.0381,743.5,1090.0381,692.5,1090.0381,692.5,1071.0381" style="stroke: #000000; stroke-width: 2.0;"/><text fill="#000000" font-family="sans-serif" font-size="13" font-weight="bold" lengthAdjust="spacingAndGlyphs" textLength="16" x="707.5" y="1086.936">alt</text><text fill="#000000" font-family="sans-serif" font-size="11" font-weight="bold" lengthAdjust="spacingAndGlyphs" textLength="81" x="768.5" y="1085.644">[found == ture]</text><line style="stroke: #A80036; stroke-width: 1.0;" x1="760.5" x2="802.5" y1="1114.5698" y2="1114.5698"/><line style="stroke: #A80036; stroke-width: 1.0;" x1="802.5" x2="802.5" y1="1114.5698" y2="1127.5698"/><line style="stroke: #A80036; stroke-width: 1.0;" x1="761.5" x2="802.5" y1="1127.5698" y2="1127.5698"/><polygon fill="#A80036" points="771.5,1123.5698,761.5,1127.5698,771.5,1131.5698,767.5,1127.5698" style="stroke: #A80036; stroke-width: 1.0;"/><text fill="#000000" font-family="sans-serif" font-size="13" lengthAdjust="spacingAndGlyphs" textLength="127" x="767.5" y="1109.7134">return the TypedValue</text><line style="stroke: #000000; stroke-width: 1.0; stroke-dasharray: 2.0,2.0;" x1="692.5" x2="928.5" y1="1136.5698" y2="1136.5698"/><line style="stroke: #A80036; stroke-width: 1.0;" x1="760.5" x2="802.5" y1="1161.3242" y2="1161.3242"/><line style="stroke: #A80036; stroke-width: 1.0;" x1="802.5" x2="802.5" y1="1161.3242" y2="1174.3242"/><line style="stroke: #A80036; stroke-width: 1.0;" x1="761.5" x2="802.5" y1="1174.3242" y2="1174.3242"/><polygon fill="#A80036" points="771.5,1170.3242,761.5,1174.3242,771.5,1178.3242,767.5,1174.3242" style="stroke: #A80036; stroke-width: 1.0;"/><text fill="#000000" font-family="sans-serif" font-size="13" lengthAdjust="spacingAndGlyphs" textLength="149" x="767.5" y="1156.4678">throw NotFoundException</text><rect fill="none" height="111.2861" style="stroke: #000000; stroke-width: 2.0;" width="303" x="692.5" y="1196.3242"/><polygon fill="#EEEEEE" points="692.5,1196.3242,753.5,1196.3242,753.5,1205.3242,743.5,1215.3242,692.5,1215.3242,692.5,1196.3242" style="stroke: #000000; stroke-width: 2.0;"/><text fill="#000000" font-family="sans-serif" font-size="13" font-weight="bold" lengthAdjust="spacingAndGlyphs" textLength="16" x="707.5" y="1212.2222">alt</text><text fill="#000000" font-family="sans-serif" font-size="11" font-weight="bold" lengthAdjust="spacingAndGlyphs" textLength="222" x="768.5" y="1210.9302">[value.type == TypedValue.TYPE_STRING]</text><line style="stroke: #A80036; stroke-width: 1.0;" x1="755.5" x2="797.5" y1="1239.856" y2="1239.856"/><line style="stroke: #A80036; stroke-width: 1.0;" x1="797.5" x2="797.5" y1="1239.856" y2="1252.856"/><line style="stroke: #A80036; stroke-width: 1.0;" x1="756.5" x2="797.5" y1="1252.856" y2="1252.856"/><polygon fill="#A80036" points="766.5,1248.856,756.5,1252.856,766.5,1256.856,762.5,1252.856" style="stroke: #A80036; stroke-width: 1.0;"/><text fill="#000000" font-family="sans-serif" font-size="13" lengthAdjust="spacingAndGlyphs" textLength="146" x="762.5" y="1234.9995">loadXmlResourceParser()</text><line style="stroke: #000000; stroke-width: 1.0; stroke-dasharray: 2.0,2.0;" x1="692.5" x2="995.5" y1="1261.856" y2="1261.856"/><line style="stroke: #A80036; stroke-width: 1.0;" x1="755.5" x2="797.5" y1="1286.6104" y2="1286.6104"/><line style="stroke: #A80036; stroke-width: 1.0;" x1="797.5" x2="797.5" y1="1286.6104" y2="1299.6104"/><line style="stroke: #A80036; stroke-width: 1.0;" x1="756.5" x2="797.5" y1="1299.6104" y2="1299.6104"/><polygon fill="#A80036" points="766.5,1295.6104,756.5,1299.6104,766.5,1303.6104,762.5,1299.6104" style="stroke: #A80036; stroke-width: 1.0;"/><text fill="#000000" font-family="sans-serif" font-size="13" lengthAdjust="spacingAndGlyphs" textLength="149" x="762.5" y="1281.7539">throw NotFoundException</text><polygon fill="#A80036" points="491,1333.6104,481,1337.6104,491,1341.6104,487,1337.6104" style="stroke: #A80036; stroke-width: 1.0;"/><line style="stroke: #A80036; stroke-width: 1.0; stroke-dasharray: 2.0,2.0;" x1="485" x2="739.5" y1="1337.6104" y2="1337.6104"/><text fill="#000000" font-family="sans-serif" font-size="13" lengthAdjust="spacingAndGlyphs" textLength="114" x="497" y="1333.5083">XmlResourceParser</text><rect fill="none" height="64.5088" style="stroke: #000000; stroke-width: 2.0;" width="165" x="392.5" y="1360.3647"/><polygon fill="#EEEEEE" points="392.5,1360.3647,506.5,1360.3647,506.5,1369.3647,496.5,1379.3647,392.5,1379.3647,392.5,1360.3647" style="stroke: #000000; stroke-width: 2.0;"/><text fill="#000000" font-family="sans-serif" font-size="13" font-weight="bold" lengthAdjust="spacingAndGlyphs" textLength="69" x="407.5" y="1376.2627">UI创建部分</text><line style="stroke: #A80036; stroke-width: 1.0;" x1="480" x2="522" y1="1403.8735" y2="1403.8735"/><line style="stroke: #A80036; stroke-width: 1.0;" x1="522" x2="522" y1="1403.8735" y2="1416.8735"/><line style="stroke: #A80036; stroke-width: 1.0;" x1="481" x2="522" y1="1416.8735" y2="1416.8735"/><polygon fill="#A80036" points="491,1412.8735,481,1416.8735,491,1420.8735,487,1416.8735" style="stroke: #A80036; stroke-width: 1.0;"/><text fill="#000000" font-family="sans-serif" font-size="13" lengthAdjust="spacingAndGlyphs" textLength="42" x="487" y="1399.0171">inflate()</text></g></svg>